<svg width="104" height="92" fill="none" xmlns="http://www.w3.org/2000/svg"><g clip-path="url(#a)"><path d="m77.203 79.522-1.018 11.115c-.092 1-1.347 1.389-1.99.618L42.363 53.066a1.124 1.124 0 0 1 .146-1.585l14.598-12.137a1.128 1.128 0 0 1 1.587.146l31.834 38.189c.642.77.03 1.932-.97 1.841l-11.13-1.016a1.128 1.128 0 0 0-1.224 1.018z" fill="#D1D1D1"/><path d="m29.252 79.522 1.018 11.115c.091 1 1.346 1.389 1.989.618l31.833-38.189a1.124 1.124 0 0 0-.145-1.585L49.349 39.344a1.129 1.129 0 0 0-1.588.146L15.928 77.679c-.643.77-.031 1.932.97 1.841l11.13-1.016a1.128 1.128 0 0 1 1.224 1.018z" fill="#D1D1D1"/><path d="m53.88 81.555 38.603-21.542a1.97 1.97 0 0 0 1.01-1.72V1.97A1.969 1.969 0 0 0 91.521 0H14.316a1.974 1.974 0 0 0-1.972 1.97v56.324c0 .713.386 1.371 1.01 1.72l38.602 21.541a1.974 1.974 0 0 0 1.925 0z" fill="#fff"/><g filter="url(#b)"><path d="m52.488 77.275-35.914-18.87a.563.563 0 0 1-.3-.499V5.12a.562.562 0 0 1 .563-.562h71.826a.564.564 0 0 1 .564.562v52.787a.56.56 0 0 1-.302.498l-35.913 18.87a.565.565 0 0 1-.524 0z" fill="#E7E7E7"/><path d="m52.488 77.275-35.914-18.87a.563.563 0 0 1-.3-.499V5.12a.562.562 0 0 1 .563-.562h71.826a.564.564 0 0 1 .564.562v52.787a.56.56 0 0 1-.302.498l-35.913 18.87a.565.565 0 0 1-.524 0z" stroke="#D5D5C6" stroke-width=".66"/></g><path d="M52.346 59.02a.411.411 0 0 1 .359-.202.426.426 0 0 1 .36.201l1.323 2.207a.414.414 0 0 0 .27.192l2.569.54a.42.42 0 0 1 .19.096.402.402 0 0 1 .129.383.401.401 0 0 1-.097.186l-1.75 1.905a.402.402 0 0 0-.105.31l.265 2.54a.395.395 0 0 1-.17.369.424.424 0 0 1-.412.043l-2.405-1.03a.425.425 0 0 0-.335 0l-2.405 1.03a.428.428 0 0 1-.412-.044.407.407 0 0 1-.169-.367l.265-2.541a.394.394 0 0 0-.104-.31l-1.75-1.905a.4.4 0 0 1-.087-.394.42.42 0 0 1 .308-.27l2.568-.541a.423.423 0 0 0 .272-.192l1.322-2.207zm11.612 1.882a.425.425 0 0 1 .719 0l.696 1.162a.413.413 0 0 0 .271.192l1.353.285a.421.421 0 0 1 .19.095.404.404 0 0 1 .129.383.4.4 0 0 1-.097.186l-.921 1.003a.399.399 0 0 0-.104.31l.139 1.338a.395.395 0 0 1-.17.368.422.422 0 0 1-.412.043l-1.266-.542a.423.423 0 0 0-.335 0l-1.267.542a.427.427 0 0 1-.412-.043.407.407 0 0 1-.17-.368l.14-1.338a.393.393 0 0 0-.103-.31l-.922-1.003a.4.4 0 0 1-.086-.394.404.404 0 0 1 .117-.175.421.421 0 0 1 .19-.095l1.353-.285a.428.428 0 0 0 .272-.192l.696-1.162zm-23.24 0a.426.426 0 0 1 .719 0l.696 1.162a.42.42 0 0 0 .272.192l1.352.285a.42.42 0 0 1 .191.095.404.404 0 0 1 .128.383.4.4 0 0 1-.097.186l-.922 1.003a.399.399 0 0 0-.104.31l.14 1.338a.394.394 0 0 1-.17.368.423.423 0 0 1-.412.043l-1.265-.542a.423.423 0 0 0-.336 0l-1.266.542a.426.426 0 0 1-.413-.043.407.407 0 0 1-.17-.368l.14-1.338a.393.393 0 0 0-.104-.31l-.92-1.003a.4.4 0 0 1-.086-.394.404.404 0 0 1 .116-.175.421.421 0 0 1 .191-.095l1.353-.285a.423.423 0 0 0 .27-.192l.697-1.162z" fill="#646464"/><path d="M101.451 15.512H2.536A2.535 2.535 0 0 0 0 18.044V37.94a2.535 2.535 0 0 0 2.536 2.533h98.915a2.534 2.534 0 0 0 2.536-2.533V18.044a2.534 2.534 0 0 0-2.536-2.532z" fill="#fff"/><path d="M24.96 54.264c-.56 0-1.003-.116-1.33-.35-.32-.233-.55-.56-.69-.98a4.931 4.931 0 0 1-.2-1.47v-2.72c0-.573.073-1.07.22-1.49.147-.42.397-.743.75-.97.36-.233.847-.35 1.46-.35.6 0 1.07.1 1.41.3.347.2.593.477.74.83.147.354.22.767.22 1.24v.52h-1.75v-.66c0-.173-.013-.333-.04-.48a.592.592 0 0 0-.16-.35c-.08-.093-.213-.14-.4-.14-.193 0-.333.054-.42.16a.768.768 0 0 0-.17.38c-.02.154-.03.314-.03.48v3.75c0 .18.017.35.05.51.04.154.107.28.2.38.1.094.24.14.42.14.187 0 .33-.05.43-.15.1-.1.17-.23.21-.39.04-.16.06-.33.06-.51v-.95h-.73v-1.05h2.34v4.2h-1.18l-.1-.67a1.492 1.492 0 0 1-.47.57c-.207.147-.487.22-.84.22zm6.85 0c-.62 0-1.106-.1-1.46-.3a1.663 1.663 0 0 1-.73-.89c-.14-.393-.21-.873-.21-1.44v-5.59h1.77v5.86c0 .167.014.334.04.5a.85.85 0 0 0 .17.41c.094.107.234.16.42.16.194 0 .334-.053.42-.16a.782.782 0 0 0 .16-.41c.027-.166.04-.333.04-.5v-5.86h1.78v5.59c0 .567-.073 1.047-.22 1.44-.14.387-.383.684-.73.89-.346.2-.83.3-1.45.3zm3.871-.12 1.53-8.1h2.04l1.51 8.1h-1.65l-.27-1.71h-1.19l-.28 1.71h-1.69zm2.13-2.78h.86l-.43-3.16-.43 3.16zm4.568 2.78v-8.1h2.23c.547 0 1.02.06 1.42.18.4.12.71.337.93.65.227.307.34.744.34 1.31 0 .334-.027.63-.08.89-.053.26-.153.487-.3.68a1.6 1.6 0 0 1-.61.47l1.11 3.92h-1.85l-.89-3.63h-.51v3.63h-1.79zm1.79-4.66h.5c.253 0 .45-.043.59-.13a.716.716 0 0 0 .29-.39c.06-.173.09-.38.09-.62 0-.346-.063-.616-.19-.81-.127-.193-.36-.29-.7-.29h-.58v2.24zm4.616 4.66 1.53-8.1h2.04l1.51 8.1h-1.65l-.27-1.71h-1.19l-.28 1.71h-1.69zm2.13-2.78h.86l-.43-3.16-.43 3.16zm4.568 2.78v-8.1h1.26l1.66 3.9v-3.9h1.48v8.1h-1.21l-1.66-4.2v4.2h-1.53zm7.135 0v-6.77h-1.22v-1.33h4.23v1.33h-1.21v6.77h-1.8zm4.523 0v-8.1h3.64v1.22h-1.85v2.01h1.41v1.24h-1.41v2.42h1.87v1.21h-3.66zm5.273 0v-8.1h3.64v1.22h-1.85v2.01h1.41v1.24h-1.41v2.42h1.87v1.21h-3.66zm5.273 0v-8.1h2.05c.706 0 1.256.09 1.65.27.393.174.67.45.83.83.16.374.24.86.24 1.46v2.94c0 .607-.08 1.104-.24 1.49-.16.38-.437.66-.83.84-.387.18-.93.27-1.63.27h-2.07zm1.79-1.24h.28c.273 0 .47-.04.59-.12a.51.51 0 0 0 .22-.36c.033-.16.05-.36.05-.6v-3.53c0-.24-.02-.433-.06-.58a.464.464 0 0 0-.23-.32c-.12-.066-.314-.1-.58-.1h-.27v5.61zM10.202 32.602c-.5 0-.916-.09-1.25-.27a1.807 1.807 0 0 1-.76-.83c-.166-.373-.263-.846-.29-1.42l1.42-.24c.014.334.047.614.1.84.06.22.147.387.26.5.12.107.267.16.44.16.213 0 .357-.066.43-.2a.877.877 0 0 0 .12-.46c0-.34-.083-.623-.25-.85a3.81 3.81 0 0 0-.64-.7l-.84-.73c-.3-.253-.546-.54-.74-.86-.186-.32-.28-.713-.28-1.18 0-.666.194-1.176.58-1.53.394-.36.93-.54 1.61-.54.407 0 .74.067 1 .2s.46.313.6.54c.147.22.247.463.3.73.06.26.097.52.11.78l-1.41.21a5.396 5.396 0 0 0-.07-.65.832.832 0 0 0-.18-.44c-.086-.107-.22-.16-.4-.16-.193 0-.336.074-.43.22a.829.829 0 0 0-.14.47c0 .287.064.523.19.71.134.18.314.37.54.57l.82.72c.34.293.63.63.87 1.01.247.373.37.837.37 1.39 0 .38-.087.724-.26 1.03a1.85 1.85 0 0 1-.73.72c-.306.174-.67.26-1.09.26zm2.79-.11 1.57-8.1h1.83l1.56 8.1h-1.53l-.29-1.78h-1.28l-.31 1.78h-1.55zm2.01-2.79h.97l-.49-3.27-.48 3.27zm4.041 2.79.14-8.1h1.75l1 5.11 1.07-5.11h1.69l.14 8.1h-1.2l-.13-5.49-1.03 5.49h-1.03l-1.08-5.53-.11 5.53h-1.21zm7.283 0v-8.1h3.53v1.14h-1.88v2.15h1.45v1.15h-1.45v2.54h1.9v1.12h-3.55zm7.485 0v-8.1h1.98c.687 0 1.22.09 1.6.27.387.174.66.45.82.83.16.373.24.854.24 1.44v2.95c0 .6-.08 1.093-.24 1.48a1.62 1.62 0 0 1-.81.86c-.373.18-.897.27-1.57.27h-2.02zm1.65-1.15h.35c.307 0 .523-.046.65-.14a.658.658 0 0 0 .25-.43c.034-.193.05-.43.05-.71v-3.34c0-.28-.023-.503-.07-.67a.568.568 0 0 0-.26-.38c-.127-.08-.337-.12-.63-.12h-.34v5.79zm3.885 1.15 1.57-8.1h1.83l1.56 8.1h-1.53l-.29-1.78h-1.28l-.31 1.78h-1.55zm2.01-2.79h.97l-.49-3.27-.48 3.27zm4.76 2.79v-3.21l-1.58-4.89h1.55l.87 2.85.81-2.85h1.5l-1.56 4.89v3.21h-1.59zm6.942 0v-8.1h2.1c.547 0 1.013.064 1.4.19.393.12.693.337.9.65.213.314.32.747.32 1.3 0 .334-.03.63-.09.89a1.657 1.657 0 0 1-.3.67c-.14.187-.34.337-.6.45l1.12 3.95h-1.69l-.93-3.67h-.58v3.67h-1.65zm1.65-4.65h.48c.267 0 .477-.043.63-.13a.691.691 0 0 0 .32-.39c.067-.18.1-.4.1-.66 0-.373-.07-.656-.21-.85-.133-.2-.387-.3-.76-.3h-.56v2.33zm4.48 4.65v-8.1h3.53v1.14h-1.88v2.15h1.45v1.15h-1.45v2.54h1.9v1.12h-3.55zm6.785.11c-.5 0-.917-.09-1.25-.27a1.807 1.807 0 0 1-.76-.83c-.167-.373-.263-.846-.29-1.42l1.42-.24c.013.334.047.614.1.84.06.22.147.387.26.5.12.107.267.16.44.16.213 0 .357-.066.43-.2a.877.877 0 0 0 .12-.46c0-.34-.083-.623-.25-.85a3.81 3.81 0 0 0-.64-.7l-.84-.73c-.3-.253-.547-.54-.74-.86-.187-.32-.28-.713-.28-1.18 0-.666.193-1.176.58-1.53.393-.36.93-.54 1.61-.54.407 0 .74.067 1 .2s.46.313.6.54c.147.22.247.463.3.73.06.26.097.52.11.78l-1.41.21a5.396 5.396 0 0 0-.07-.65.832.832 0 0 0-.18-.44c-.087-.107-.22-.16-.4-.16-.193 0-.337.074-.43.22a.829.829 0 0 0-.14.47c0 .287.063.523.19.71.133.18.313.37.54.57l.82.72c.34.293.63.63.87 1.01.247.373.37.837.37 1.39 0 .38-.087.724-.26 1.03a1.85 1.85 0 0 1-.73.72c-.307.174-.67.26-1.09.26zm3.249-.11v-8.1h2.57c.486 0 .883.093 1.19.28.306.18.533.444.68.79.153.347.23.767.23 1.26 0 .58-.1 1.034-.3 1.36-.194.327-.46.56-.8.7-.34.134-.73.2-1.17.2h-.75v3.51h-1.65zm1.65-4.67h.58c.24 0 .423-.037.55-.11a.6.6 0 0 0 .27-.37c.046-.166.07-.38.07-.64 0-.247-.02-.453-.06-.62a.614.614 0 0 0-.24-.39c-.127-.093-.327-.14-.6-.14h-.57v2.27zm6.427 4.78c-.593 0-1.063-.106-1.41-.32a1.807 1.807 0 0 1-.75-.91c-.146-.4-.22-.877-.22-1.43v-3.02c0-.553.074-1.027.22-1.42.154-.393.404-.693.75-.9.347-.207.817-.31 1.41-.31.6 0 1.074.107 1.42.32.354.207.604.507.75.9.154.387.23.857.23 1.41v3.02c0 .553-.076 1.03-.23 1.43a1.744 1.744 0 0 1-.75.91c-.346.214-.82.32-1.42.32zm0-1.19c.214 0 .37-.046.47-.14.1-.1.167-.23.2-.39.034-.167.05-.343.05-.53v-3.83c0-.186-.016-.36-.05-.52a.698.698 0 0 0-.2-.38c-.1-.1-.256-.15-.47-.15-.2 0-.35.05-.45.15a.698.698 0 0 0-.2.38c-.033.16-.05.334-.05.52v3.83c0 .187.014.363.04.53.034.16.1.29.2.39.1.094.254.14.46.14zm3.802 1.08v-8.1h1.15l1.8 4.22v-4.22h1.36v8.1h-1.1l-1.8-4.48v4.48h-1.41zm7.937.11c-.5 0-.916-.09-1.25-.27a1.807 1.807 0 0 1-.76-.83c-.166-.373-.263-.846-.29-1.42l1.42-.24c.013.334.047.614.1.84.06.22.147.387.26.5.12.107.267.16.44.16.213 0 .357-.066.43-.2a.877.877 0 0 0 .12-.46c0-.34-.083-.623-.25-.85a3.81 3.81 0 0 0-.64-.7l-.84-.73c-.3-.253-.547-.54-.74-.86-.186-.32-.28-.713-.28-1.18 0-.666.194-1.176.58-1.53.394-.36.93-.54 1.61-.54.407 0 .74.067 1 .2s.46.313.6.54c.147.22.247.463.3.73.06.26.097.52.11.78l-1.41.21a5.376 5.376 0 0 0-.07-.65.83.83 0 0 0-.18-.44c-.087-.107-.22-.16-.4-.16-.193 0-.337.074-.43.22a.829.829 0 0 0-.14.47c0 .287.063.523.19.71.133.18.314.37.54.57l.82.72c.34.293.63.63.87 1.01.247.373.37.837.37 1.39 0 .38-.087.724-.26 1.03a1.849 1.849 0 0 1-.73.72c-.306.174-.67.26-1.09.26zm3.249-.11v-8.1h3.53v1.14h-1.88v2.15h1.45v1.15h-1.45v2.54h1.9v1.12h-3.55z" fill="#3F3F3F" fill-opacity=".7"/></g><defs><clipPath id="a"><path fill="#fff" d="M0 0h104v92H0z"/></clipPath><filter id="b" x="11.143" y="4.227" width="83.213" height="83.047" filterUnits="userSpaceOnUse" color-interpolation-filters="sRGB"><feFlood flood-opacity="0" result="BackgroundImageFix"/><feColorMatrix in="SourceAlpha" values="0 0 0 0 0 0 0 0 0 0 0 0 0 0 0 0 0 0 127 0" result="hardAlpha"/><feOffset dy="4.802"/><feGaussianBlur stdDeviation="2.401"/><feComposite in2="hardAlpha" operator="out"/><feColorMatrix values="0 0 0 0 0 0 0 0 0 0 0 0 0 0 0 0 0 0 0.05 0"/><feBlend in2="BackgroundImageFix" result="effect1_dropShadow_7996_31141"/><feBlend in="SourceGraphic" in2="effect1_dropShadow_7996_31141" result="shape"/></filter></defs></svg>