<svg width="104" height="92" viewBox="0 0 104 92" fill="none" xmlns="http://www.w3.org/2000/svg">
<g clip-path="url(#clip0_7996_31141)">
<path d="M77.2026 79.5223L76.1847 90.6375C76.0934 91.6365 74.8383 92.026 74.1958 91.2555L42.3624 53.0662C42.2677 52.9526 42.1963 52.8214 42.1524 52.6802C42.1084 52.539 42.0928 52.3906 42.1063 52.2433C42.1198 52.0961 42.1622 51.953 42.2311 51.8221C42.3 51.6912 42.394 51.5752 42.5078 51.4806L57.1057 39.3445C57.2195 39.2499 57.3508 39.1786 57.4922 39.1347C57.6335 39.0908 57.7822 39.0752 57.9296 39.0887C58.0771 39.1022 58.2204 39.1445 58.3514 39.2133C58.4825 39.2821 58.5987 39.3761 58.6933 39.4897L90.5267 77.679C91.1692 78.4495 90.5577 79.6113 89.5578 79.5201L78.4278 78.5036C78.2804 78.4901 78.1317 78.5058 77.9904 78.5497C77.849 78.5936 77.7177 78.6649 77.6039 78.7595C77.4901 78.8541 77.3961 78.9702 77.3272 79.101C77.2584 79.2319 77.216 79.3751 77.2026 79.5223Z" fill="#D1D1D1"/>
<path d="M29.252 79.5223L30.2698 90.6375C30.3611 91.6365 31.6163 92.026 32.2588 91.2555L64.0921 53.0662C64.1868 52.9526 64.2582 52.8214 64.3021 52.6802C64.3461 52.539 64.3618 52.3906 64.3483 52.2433C64.3348 52.0961 64.2923 51.953 64.2234 51.8221C64.1545 51.6912 64.0605 51.5752 63.9467 51.4806L49.3489 39.3445C49.2351 39.2499 49.1037 39.1786 48.9624 39.1347C48.821 39.0908 48.6723 39.0752 48.5249 39.0887C48.3775 39.1022 48.2341 39.1445 48.1031 39.2133C47.9721 39.2821 47.8559 39.3761 47.7612 39.4897L15.9279 77.679C15.2854 78.4495 15.8969 79.6113 16.8973 79.5201L28.0273 78.5036C28.3249 78.4765 28.6212 78.5687 28.8508 78.7597C29.0805 78.9507 29.2248 79.2251 29.252 79.5223Z" fill="#D1D1D1"/>
<path d="M53.8806 81.5551L92.4828 60.0132C92.7892 59.8423 93.0444 59.5929 93.222 59.2906C93.3997 58.9883 93.4933 58.6442 93.4933 58.2937V1.96997C93.4933 1.4475 93.2855 0.946432 92.9156 0.576991C92.5456 0.20755 92.0439 0 91.5207 0H14.3164C13.7932 0 13.2914 0.20755 12.9215 0.576991C12.5516 0.946432 12.3437 1.4475 12.3438 1.96997V58.2937C12.3438 59.0074 12.7304 59.6654 13.3543 60.0132L51.9565 81.5551C52.2505 81.7192 52.5817 81.8053 52.9185 81.8053C53.2554 81.8053 53.5866 81.7192 53.8806 81.5551Z" fill="white"/>
<g filter="url(#filter0_d_7996_31141)">
<path d="M52.4876 77.2745L16.5744 58.4044C16.4835 58.3567 16.4074 58.2851 16.3543 58.1973C16.3013 58.1095 16.2733 58.0088 16.2734 57.9063V5.11949C16.2734 4.97021 16.3328 4.82705 16.4385 4.7215C16.5442 4.61594 16.6876 4.55664 16.837 4.55664H88.6629C88.8124 4.55664 88.9558 4.61594 89.0615 4.7215C89.1672 4.82705 89.2265 4.97021 89.2265 5.11949V57.9063C89.2266 58.0089 89.1986 58.1096 89.1454 58.1974C89.0923 58.2852 89.016 58.3568 88.925 58.4044L53.0123 77.2745C52.8478 77.3606 52.6516 77.3606 52.4876 77.2745Z" fill="#E7E7E7"/>
<path d="M52.4876 77.2745L16.5744 58.4044C16.4835 58.3567 16.4074 58.2851 16.3543 58.1973C16.3013 58.1095 16.2733 58.0088 16.2734 57.9063V5.11949C16.2734 4.97021 16.3328 4.82705 16.4385 4.7215C16.5442 4.61594 16.6876 4.55664 16.837 4.55664H88.6629C88.8124 4.55664 88.9558 4.61594 89.0615 4.7215C89.1672 4.82705 89.2265 4.97021 89.2265 5.11949V57.9063C89.2266 58.0089 89.1986 58.1096 89.1454 58.1974C89.0923 58.2852 89.016 58.3568 88.925 58.4044L53.0123 77.2745C52.8478 77.3606 52.6516 77.3606 52.4876 77.2745Z" stroke="#D5D5C6" stroke-width="0.659849"/>
</g>
<path d="M52.3455 59.0191C52.3821 58.9581 52.4346 58.9074 52.4977 58.8721C52.5608 58.8369 52.6322 58.8184 52.705 58.8184C52.7777 58.8184 52.8492 58.8369 52.9123 58.8721C52.9754 58.9074 53.0278 58.9581 53.0645 59.0191L54.3875 61.2263C54.4458 61.3242 54.544 61.3937 54.6588 61.418L57.2267 61.9583C57.2978 61.9732 57.3637 62.0061 57.4177 62.0535C57.4717 62.1009 57.512 62.1613 57.5344 62.2286C57.5569 62.2959 57.5609 62.3677 57.5459 62.437C57.5308 62.5062 57.4974 62.5704 57.4489 62.6231L55.6981 64.5278C55.6596 64.5696 55.6305 64.6187 55.6126 64.672C55.5947 64.7254 55.5884 64.7817 55.5941 64.8376L55.8587 67.3788C55.866 67.4491 55.8543 67.5201 55.8246 67.5847C55.7948 67.6492 55.7482 67.7051 55.6894 67.7467C55.6305 67.7882 55.5615 67.8141 55.4891 67.8216C55.4168 67.8292 55.3436 67.8181 55.2771 67.7896L52.8722 66.76C52.8194 66.7373 52.7623 66.7255 52.7046 66.7255C52.6468 66.7255 52.5897 66.7373 52.5369 66.76L50.1321 67.7896C50.0655 67.8179 49.9925 67.8288 49.9203 67.8212C49.8481 67.8136 49.7792 67.7877 49.7204 67.7461C49.6617 67.7046 49.6152 67.6488 49.5855 67.5844C49.5558 67.5199 49.544 67.449 49.5513 67.3788L49.8159 64.8376C49.8216 64.7817 49.8153 64.7254 49.7974 64.672C49.7795 64.6187 49.7504 64.5696 49.7119 64.5278L47.9611 62.6231C47.9126 62.5704 47.8791 62.5062 47.8641 62.437C47.8491 62.3677 47.853 62.2959 47.8755 62.2286C47.898 62.1613 47.9383 62.1009 47.9923 62.0535C48.0463 62.0061 48.1121 61.9732 48.1833 61.9583L50.7512 61.418C50.8077 61.4061 50.8611 61.3829 50.9079 61.3499C50.9548 61.3169 50.994 61.2748 51.0233 61.2263L52.3455 59.0191ZM63.9577 60.902C63.9943 60.8409 64.0468 60.7902 64.1099 60.755C64.1729 60.7198 64.2444 60.7012 64.3172 60.7012C64.3899 60.7012 64.4614 60.7198 64.5245 60.755C64.5875 60.7902 64.64 60.8409 64.6766 60.902L65.3731 62.0642C65.4023 62.1126 65.4415 62.1546 65.4881 62.1876C65.5348 62.2206 65.588 62.2439 65.6444 62.2559L66.9966 62.5406C67.0677 62.5556 67.1336 62.5884 67.1876 62.6358C67.2416 62.6833 67.2818 62.7436 67.3043 62.8109C67.3268 62.8782 67.3307 62.9501 67.3157 63.0193C67.3007 63.0885 67.2673 63.1527 67.2188 63.2054L66.2976 64.2083C66.259 64.25 66.2298 64.2991 66.2119 64.3525C66.1939 64.4058 66.1877 64.4623 66.1936 64.5181L66.3326 65.8558C66.3399 65.9262 66.3281 65.9972 66.2984 66.0617C66.2687 66.1263 66.2221 66.1822 66.1632 66.2237C66.1044 66.2653 66.0353 66.2912 65.963 66.2987C65.8906 66.3062 65.8175 66.2952 65.7509 66.2667L64.4853 65.7248C64.4325 65.702 64.3753 65.6902 64.3176 65.6902C64.2598 65.6902 64.2027 65.702 64.1499 65.7248L62.8834 66.2667C62.8168 66.2952 62.7437 66.3062 62.6714 66.2987C62.599 66.2912 62.53 66.2653 62.4711 66.2237C62.4123 66.1822 62.3656 66.1263 62.3359 66.0617C62.3062 65.9972 62.2944 65.9262 62.3018 65.8558L62.4416 64.5181C62.4474 64.4623 62.4412 64.4058 62.4233 64.3525C62.4054 64.2991 62.3762 64.25 62.3376 64.2083L61.4156 63.2054C61.3671 63.1527 61.3336 63.0885 61.3186 63.0193C61.3036 62.9501 61.3075 62.8782 61.33 62.8109C61.3525 62.7436 61.3927 62.6833 61.4467 62.6358C61.5007 62.5884 61.5666 62.5556 61.6378 62.5406L62.9899 62.2559C63.0464 62.2439 63.0997 62.2206 63.1466 62.1877C63.1934 62.1547 63.2327 62.1127 63.262 62.0642L63.9577 60.902ZM40.7184 60.902C40.755 60.8409 40.8074 60.7902 40.8705 60.755C40.9336 60.7198 41.0051 60.7012 41.0778 60.7012C41.1506 60.7012 41.222 60.7198 41.2851 60.755C41.3482 60.7902 41.4007 60.8409 41.4373 60.902L42.1329 62.0642C42.192 62.1621 42.2911 62.2316 42.4051 62.2559L43.7572 62.5406C43.8284 62.5556 43.8942 62.5884 43.9482 62.6358C44.0022 62.6833 44.0425 62.7436 44.065 62.8109C44.0875 62.8782 44.0914 62.9501 44.0764 63.0193C44.0614 63.0885 44.0279 63.1527 43.9794 63.2054L43.0574 64.2083C43.0188 64.25 42.9896 64.2991 42.9717 64.3525C42.9538 64.4058 42.9475 64.4623 42.9534 64.5181L43.0932 65.8558C43.1006 65.9263 43.0889 65.9974 43.0591 66.0621C43.0294 66.1267 42.9827 66.1827 42.9237 66.2243C42.8647 66.2659 42.7955 66.2917 42.723 66.2991C42.6506 66.3066 42.5774 66.2954 42.5107 66.2667L41.2459 65.7248C41.193 65.7019 41.1357 65.6901 41.0778 65.6901C41.0199 65.6901 40.9626 65.7019 40.9097 65.7248L39.6441 66.2667C39.5775 66.2954 39.5042 66.3066 39.4318 66.2991C39.3593 66.2917 39.2901 66.2659 39.2311 66.2243C39.1722 66.1827 39.1254 66.1267 39.0957 66.0621C39.0659 65.9974 39.0542 65.9263 39.0616 65.8558L39.2014 64.5181C39.2072 64.4623 39.201 64.4059 39.1831 64.3525C39.1652 64.2992 39.136 64.2501 39.0974 64.2083L38.1762 63.2054C38.1277 63.1527 38.0943 63.0885 38.0793 63.0193C38.0642 62.9501 38.0682 62.8782 38.0907 62.8109C38.1132 62.7436 38.1534 62.6833 38.2074 62.6358C38.2614 62.5884 38.3273 62.5556 38.3984 62.5406L39.7506 62.2559C39.807 62.2439 39.8602 62.2207 39.9069 62.1877C39.9536 62.1547 39.9927 62.1127 40.0219 62.0642L40.7184 60.902Z" fill="#646464"/>
<path d="M101.451 15.5117H2.53621C1.1355 15.5117 0 16.6457 0 18.0445V37.939C0 39.3378 1.1355 40.4718 2.53621 40.4718H101.451C102.852 40.4718 103.987 39.3378 103.987 37.939V18.0445C103.987 16.6457 102.852 15.5117 101.451 15.5117Z" fill="white"/>
<path d="M24.96 54.2645C24.4 54.2645 23.9567 54.1479 23.63 53.9145C23.31 53.6812 23.08 53.3545 22.94 52.9345C22.8067 52.5079 22.74 52.0179 22.74 51.4645V48.7445C22.74 48.1712 22.8133 47.6745 22.96 47.2545C23.1067 46.8345 23.3567 46.5112 23.71 46.2845C24.07 46.0512 24.5567 45.9345 25.17 45.9345C25.77 45.9345 26.24 46.0345 26.58 46.2345C26.9267 46.4345 27.1733 46.7112 27.32 47.0645C27.4667 47.4179 27.54 47.8312 27.54 48.3045V48.8245H25.79V48.1645C25.79 47.9912 25.7767 47.8312 25.75 47.6845C25.73 47.5379 25.6767 47.4212 25.59 47.3345C25.51 47.2412 25.3767 47.1945 25.19 47.1945C24.9967 47.1945 24.8567 47.2479 24.77 47.3545C24.6833 47.4545 24.6267 47.5812 24.6 47.7345C24.58 47.8879 24.57 48.0479 24.57 48.2145V51.9645C24.57 52.1445 24.5867 52.3145 24.62 52.4745C24.66 52.6279 24.7267 52.7545 24.82 52.8545C24.92 52.9479 25.06 52.9945 25.24 52.9945C25.4267 52.9945 25.57 52.9445 25.67 52.8445C25.77 52.7445 25.84 52.6145 25.88 52.4545C25.92 52.2945 25.94 52.1245 25.94 51.9445V50.9945H25.21V49.9445H27.55V54.1445H26.37L26.27 53.4745C26.1633 53.7012 26.0067 53.8912 25.8 54.0445C25.5933 54.1912 25.3133 54.2645 24.96 54.2645ZM31.8103 54.2645C31.1903 54.2645 30.7036 54.1645 30.3503 53.9645C30.0036 53.7579 29.7603 53.4612 29.6203 53.0745C29.4803 52.6812 29.4103 52.2012 29.4103 51.6345V46.0445H31.1803V51.9045C31.1803 52.0712 31.1936 52.2379 31.2203 52.4045C31.247 52.5712 31.3036 52.7079 31.3903 52.8145C31.4836 52.9212 31.6236 52.9745 31.8103 52.9745C32.0036 52.9745 32.1436 52.9212 32.2303 52.8145C32.317 52.7079 32.3703 52.5712 32.3903 52.4045C32.417 52.2379 32.4303 52.0712 32.4303 51.9045V46.0445H34.2103V51.6345C34.2103 52.2012 34.137 52.6812 33.9903 53.0745C33.8503 53.4612 33.607 53.7579 33.2603 53.9645C32.9136 54.1645 32.4303 54.2645 31.8103 54.2645ZM35.6811 54.1445L37.2111 46.0445H39.2511L40.7611 54.1445H39.1111L38.8411 52.4345H37.6511L37.3711 54.1445H35.6811ZM37.8111 51.3645H38.6711L38.2411 48.2045L37.8111 51.3645ZM42.3789 54.1445V46.0445H44.6089C45.1556 46.0445 45.6289 46.1045 46.0289 46.2245C46.4289 46.3445 46.7389 46.5612 46.9589 46.8745C47.1856 47.1812 47.2989 47.6179 47.2989 48.1845C47.2989 48.5179 47.2722 48.8145 47.2189 49.0745C47.1656 49.3345 47.0656 49.5612 46.9189 49.7545C46.7789 49.9412 46.5756 50.0979 46.3089 50.2245L47.4189 54.1445H45.5689L44.6789 50.5145H44.1689V54.1445H42.3789ZM44.1689 49.4845H44.6689C44.9222 49.4845 45.1189 49.4412 45.2589 49.3545C45.3989 49.2612 45.4956 49.1312 45.5489 48.9645C45.6089 48.7912 45.6389 48.5845 45.6389 48.3445C45.6389 47.9979 45.5756 47.7279 45.4489 47.5345C45.3222 47.3412 45.0889 47.2445 44.7489 47.2445H44.1689V49.4845ZM48.785 54.1445L50.315 46.0445H52.355L53.865 54.1445H52.215L51.945 52.4345H50.755L50.475 54.1445H48.785ZM50.915 51.3645H51.775L51.345 48.2045L50.915 51.3645ZM55.4828 54.1445V46.0445H56.7428L58.4028 49.9445V46.0445H59.8828V54.1445H58.6728L57.0128 49.9445V54.1445H55.4828ZM62.6183 54.1445V47.3745H61.3983V46.0445H65.6283V47.3745H64.4183V54.1445H62.6183ZM67.1414 54.1445V46.0445H70.7814V47.2645H68.9314V49.2745H70.3414V50.5145H68.9314V52.9345H70.8014V54.1445H67.1414ZM72.4141 54.1445V46.0445H76.0541V47.2645H74.2041V49.2745H75.6141V50.5145H74.2041V52.9345H76.0741V54.1445H72.4141ZM77.6867 54.1445V46.0445H79.7367C80.4434 46.0445 80.9934 46.1345 81.3867 46.3145C81.7801 46.4879 82.0567 46.7645 82.2167 47.1445C82.3767 47.5179 82.4567 48.0045 82.4567 48.6045V51.5445C82.4567 52.1512 82.3767 52.6479 82.2167 53.0345C82.0567 53.4145 81.7801 53.6945 81.3867 53.8745C81.0001 54.0545 80.4567 54.1445 79.7567 54.1445H77.6867ZM79.4767 52.9045H79.7567C80.0301 52.9045 80.2267 52.8645 80.3467 52.7845C80.4667 52.7045 80.5401 52.5845 80.5667 52.4245C80.6001 52.2645 80.6167 52.0645 80.6167 51.8245V48.2945C80.6167 48.0545 80.5967 47.8612 80.5567 47.7145C80.5234 47.5679 80.4467 47.4612 80.3267 47.3945C80.2067 47.3279 80.0134 47.2945 79.7467 47.2945H79.4767V52.9045Z" fill="#3F3F3F" fill-opacity="0.7"/>
<path d="M10.2022 32.6022C9.70219 32.6022 9.28552 32.5122 8.95219 32.3322C8.61885 32.1455 8.36552 31.8689 8.19219 31.5022C8.02552 31.1289 7.92885 30.6555 7.90219 30.0822L9.32219 29.8422C9.33552 30.1755 9.36885 30.4555 9.42219 30.6822C9.48219 30.9022 9.56885 31.0689 9.68219 31.1822C9.80219 31.2889 9.94885 31.3422 10.1222 31.3422C10.3355 31.3422 10.4789 31.2755 10.5522 31.1422C10.6322 31.0089 10.6722 30.8555 10.6722 30.6822C10.6722 30.3422 10.5889 30.0589 10.4222 29.8322C10.2622 29.5989 10.0489 29.3655 9.78219 29.1322L8.94219 28.4022C8.64219 28.1489 8.39552 27.8622 8.20219 27.5422C8.01552 27.2222 7.92219 26.8289 7.92219 26.3622C7.92219 25.6955 8.11552 25.1855 8.50219 24.8322C8.89552 24.4722 9.43219 24.2922 10.1122 24.2922C10.5189 24.2922 10.8522 24.3589 11.1122 24.4922C11.3722 24.6255 11.5722 24.8055 11.7122 25.0322C11.8589 25.2522 11.9589 25.4955 12.0122 25.7622C12.0722 26.0222 12.1089 26.2822 12.1222 26.5422L10.7122 26.7522C10.6989 26.5055 10.6755 26.2889 10.6422 26.1022C10.6155 25.9155 10.5555 25.7689 10.4622 25.6622C10.3755 25.5555 10.2422 25.5022 10.0622 25.5022C9.86885 25.5022 9.72552 25.5755 9.63219 25.7222C9.53885 25.8622 9.49219 26.0189 9.49219 26.1922C9.49219 26.4789 9.55552 26.7155 9.68219 26.9022C9.81552 27.0822 9.99552 27.2722 10.2222 27.4722L11.0422 28.1922C11.3822 28.4855 11.6722 28.8222 11.9122 29.2022C12.1589 29.5755 12.2822 30.0389 12.2822 30.5922C12.2822 30.9722 12.1955 31.3155 12.0222 31.6222C11.8489 31.9289 11.6055 32.1689 11.2922 32.3422C10.9855 32.5155 10.6222 32.6022 10.2022 32.6022ZM12.9924 32.4922L14.5624 24.3922H16.3924L17.9524 32.4922H16.4224L16.1324 30.7122H14.8524L14.5424 32.4922H12.9924ZM15.0024 29.7022H15.9724L15.4824 26.4322L15.0024 29.7022ZM19.0433 32.4922L19.1833 24.3922H20.9333L21.9333 29.5022L23.0033 24.3922H24.6933L24.8333 32.4922H23.6333L23.5033 27.0022L22.4733 32.4922H21.4433L20.3633 26.9622L20.2533 32.4922H19.0433ZM26.3264 32.4922V24.3922H29.8564V25.5322H27.9764V27.6822H29.4264V28.8322H27.9764V31.3722H29.8764V32.4922H26.3264ZM33.8112 32.4922V24.3922H35.7912C36.4778 24.3922 37.0112 24.4822 37.3912 24.6622C37.7778 24.8355 38.0512 25.1122 38.2112 25.4922C38.3712 25.8655 38.4512 26.3455 38.4512 26.9322V29.8822C38.4512 30.4822 38.3712 30.9755 38.2112 31.3622C38.0512 31.7489 37.7812 32.0355 37.4012 32.2222C37.0278 32.4022 36.5045 32.4922 35.8312 32.4922H33.8112ZM35.4612 31.3422H35.8112C36.1178 31.3422 36.3345 31.2955 36.4612 31.2022C36.5945 31.1022 36.6778 30.9589 36.7112 30.7722C36.7445 30.5789 36.7612 30.3422 36.7612 30.0622V26.7222C36.7612 26.4422 36.7378 26.2189 36.6912 26.0522C36.6512 25.8789 36.5645 25.7522 36.4312 25.6722C36.3045 25.5922 36.0945 25.5522 35.8012 25.5522H35.4612V31.3422ZM39.3459 32.4922L40.9159 24.3922H42.7459L44.3059 32.4922H42.7759L42.4859 30.7122H41.2059L40.8959 32.4922H39.3459ZM41.3559 29.7022H42.3259L41.8359 26.4322L41.3559 29.7022ZM46.1157 32.4922V29.2822L44.5357 24.3922H46.0857L46.9557 27.2422L47.7657 24.3922H49.2657L47.7057 29.2822V32.4922H46.1157ZM53.058 32.4922V24.3922H55.158C55.7047 24.3922 56.1714 24.4555 56.558 24.5822C56.9514 24.7022 57.2514 24.9189 57.458 25.2322C57.6714 25.5455 57.778 25.9789 57.778 26.5322C57.778 26.8655 57.748 27.1622 57.688 27.4222C57.6347 27.6755 57.5347 27.8989 57.388 28.0922C57.248 28.2789 57.048 28.4289 56.788 28.5422L57.908 32.4922H56.218L55.288 28.8222H54.708V32.4922H53.058ZM54.708 27.8422H55.188C55.4547 27.8422 55.6647 27.7989 55.818 27.7122C55.9714 27.6255 56.078 27.4955 56.138 27.3222C56.2047 27.1422 56.238 26.9222 56.238 26.6622C56.238 26.2889 56.168 26.0055 56.028 25.8122C55.8947 25.6122 55.6414 25.5122 55.268 25.5122H54.708V27.8422ZM59.1881 32.4922V24.3922H62.7181V25.5322H60.8381V27.6822H62.2881V28.8322H60.8381V31.3722H62.7381V32.4922H59.1881ZM65.9729 32.6022C65.4729 32.6022 65.0562 32.5122 64.7229 32.3322C64.3896 32.1455 64.1362 31.8689 63.9629 31.5022C63.7962 31.1289 63.6996 30.6555 63.6729 30.0822L65.0929 29.8422C65.1062 30.1755 65.1396 30.4555 65.1929 30.6822C65.2529 30.9022 65.3396 31.0689 65.4529 31.1822C65.5729 31.2889 65.7196 31.3422 65.8929 31.3422C66.1062 31.3422 66.2496 31.2755 66.3229 31.1422C66.4029 31.0089 66.4429 30.8555 66.4429 30.6822C66.4429 30.3422 66.3596 30.0589 66.1929 29.8322C66.0329 29.5989 65.8196 29.3655 65.5529 29.1322L64.7129 28.4022C64.4129 28.1489 64.1662 27.8622 63.9729 27.5422C63.7862 27.2222 63.6929 26.8289 63.6929 26.3622C63.6929 25.6955 63.8862 25.1855 64.2729 24.8322C64.6662 24.4722 65.2029 24.2922 65.8829 24.2922C66.2896 24.2922 66.6229 24.3589 66.8829 24.4922C67.1429 24.6255 67.3429 24.8055 67.4829 25.0322C67.6296 25.2522 67.7296 25.4955 67.7829 25.7622C67.8429 26.0222 67.8796 26.2822 67.8929 26.5422L66.4829 26.7522C66.4696 26.5055 66.4462 26.2889 66.4129 26.1022C66.3862 25.9155 66.3262 25.7689 66.2329 25.6622C66.1462 25.5555 66.0129 25.5022 65.8329 25.5022C65.6396 25.5022 65.4962 25.5755 65.4029 25.7222C65.3096 25.8622 65.2629 26.0189 65.2629 26.1922C65.2629 26.4789 65.3262 26.7155 65.4529 26.9022C65.5862 27.0822 65.7662 27.2722 65.9929 27.4722L66.8129 28.1922C67.1529 28.4855 67.4429 28.8222 67.6829 29.2022C67.9296 29.5755 68.0529 30.0389 68.0529 30.5922C68.0529 30.9722 67.9662 31.3155 67.7929 31.6222C67.6196 31.9289 67.3762 32.1689 67.0629 32.3422C66.7562 32.5155 66.3929 32.6022 65.9729 32.6022ZM69.2217 32.4922V24.3922H71.7917C72.2784 24.3922 72.6751 24.4855 72.9817 24.6722C73.2884 24.8522 73.5151 25.1155 73.6617 25.4622C73.8151 25.8089 73.8917 26.2289 73.8917 26.7222C73.8917 27.3022 73.7917 27.7555 73.5917 28.0822C73.3984 28.4089 73.1317 28.6422 72.7917 28.7822C72.4517 28.9155 72.0617 28.9822 71.6217 28.9822H70.8717V32.4922H69.2217ZM70.8717 27.8222H71.4517C71.6917 27.8222 71.8751 27.7855 72.0017 27.7122C72.1351 27.6322 72.2251 27.5089 72.2717 27.3422C72.3184 27.1755 72.3417 26.9622 72.3417 26.7022C72.3417 26.4555 72.3217 26.2489 72.2817 26.0822C72.2484 25.9155 72.1684 25.7855 72.0417 25.6922C71.9151 25.5989 71.7151 25.5522 71.4417 25.5522H70.8717V27.8222ZM77.2993 32.6022C76.706 32.6022 76.236 32.4955 75.8893 32.2822C75.5426 32.0689 75.2926 31.7655 75.1393 31.3722C74.9926 30.9722 74.9193 30.4955 74.9193 29.9422V26.9222C74.9193 26.3689 74.9926 25.8955 75.1393 25.5022C75.2926 25.1089 75.5426 24.8089 75.8893 24.6022C76.236 24.3955 76.706 24.2922 77.2993 24.2922C77.8993 24.2922 78.3726 24.3989 78.7193 24.6122C79.0726 24.8189 79.3226 25.1189 79.4693 25.5122C79.6226 25.8989 79.6993 26.3689 79.6993 26.9222V29.9422C79.6993 30.4955 79.6226 30.9722 79.4693 31.3722C79.3226 31.7655 79.0726 32.0689 78.7193 32.2822C78.3726 32.4955 77.8993 32.6022 77.2993 32.6022ZM77.2993 31.4122C77.5126 31.4122 77.6693 31.3655 77.7693 31.2722C77.8693 31.1722 77.936 31.0422 77.9693 30.8822C78.0026 30.7155 78.0193 30.5389 78.0193 30.3522V26.5222C78.0193 26.3355 78.0026 26.1622 77.9693 26.0022C77.936 25.8422 77.8693 25.7155 77.7693 25.6222C77.6693 25.5222 77.5126 25.4722 77.2993 25.4722C77.0993 25.4722 76.9493 25.5222 76.8493 25.6222C76.7493 25.7155 76.6826 25.8422 76.6493 26.0022C76.616 26.1622 76.5993 26.3355 76.5993 26.5222V30.3522C76.5993 30.5389 76.6126 30.7155 76.6393 30.8822C76.6726 31.0422 76.7393 31.1722 76.8393 31.2722C76.9393 31.3655 77.0926 31.4122 77.2993 31.4122ZM81.101 32.4922V24.3922H82.251L84.051 28.6122V24.3922H85.411V32.4922H84.311L82.511 28.0122V32.4922H81.101ZM89.0381 32.6022C88.5381 32.6022 88.1215 32.5122 87.7881 32.3322C87.4548 32.1455 87.2015 31.8689 87.0281 31.5022C86.8615 31.1289 86.7648 30.6555 86.7381 30.0822L88.1581 29.8422C88.1715 30.1755 88.2048 30.4555 88.2581 30.6822C88.3181 30.9022 88.4048 31.0689 88.5181 31.1822C88.6381 31.2889 88.7848 31.3422 88.9581 31.3422C89.1715 31.3422 89.3148 31.2755 89.3881 31.1422C89.4681 31.0089 89.5081 30.8555 89.5081 30.6822C89.5081 30.3422 89.4248 30.0589 89.2581 29.8322C89.0981 29.5989 88.8848 29.3655 88.6181 29.1322L87.7781 28.4022C87.4781 28.1489 87.2315 27.8622 87.0381 27.5422C86.8515 27.2222 86.7581 26.8289 86.7581 26.3622C86.7581 25.6955 86.9515 25.1855 87.3381 24.8322C87.7315 24.4722 88.2681 24.2922 88.9481 24.2922C89.3548 24.2922 89.6881 24.3589 89.9481 24.4922C90.2081 24.6255 90.4081 24.8055 90.5481 25.0322C90.6948 25.2522 90.7948 25.4955 90.8481 25.7622C90.9081 26.0222 90.9448 26.2822 90.9581 26.5422L89.5481 26.7522C89.5348 26.5055 89.5115 26.2889 89.4781 26.1022C89.4515 25.9155 89.3915 25.7689 89.2981 25.6622C89.2115 25.5555 89.0781 25.5022 88.8981 25.5022C88.7048 25.5022 88.5615 25.5755 88.4681 25.7222C88.3748 25.8622 88.3281 26.0189 88.3281 26.1922C88.3281 26.4789 88.3915 26.7155 88.5181 26.9022C88.6515 27.0822 88.8315 27.2722 89.0581 27.4722L89.8781 28.1922C90.2181 28.4855 90.5081 28.8222 90.7481 29.2022C90.9948 29.5755 91.1181 30.0389 91.1181 30.5922C91.1181 30.9722 91.0315 31.3155 90.8581 31.6222C90.6848 31.9289 90.4415 32.1689 90.1281 32.3422C89.8215 32.5155 89.4581 32.6022 89.0381 32.6022ZM92.287 32.4922V24.3922H95.817V25.5322H93.937V27.6822H95.387V28.8322H93.937V31.3722H95.837V32.4922H92.287Z" fill="#3F3F3F" fill-opacity="0.7"/>
</g>
<defs>
<filter id="filter0_d_7996_31141" x="11.1433" y="4.22656" width="83.2135" height="83.0475" filterUnits="userSpaceOnUse" color-interpolation-filters="sRGB">
<feFlood flood-opacity="0" result="BackgroundImageFix"/>
<feColorMatrix in="SourceAlpha" type="matrix" values="0 0 0 0 0 0 0 0 0 0 0 0 0 0 0 0 0 0 127 0" result="hardAlpha"/>
<feOffset dy="4.80205"/>
<feGaussianBlur stdDeviation="2.40102"/>
<feComposite in2="hardAlpha" operator="out"/>
<feColorMatrix type="matrix" values="0 0 0 0 0 0 0 0 0 0 0 0 0 0 0 0 0 0 0.05 0"/>
<feBlend mode="normal" in2="BackgroundImageFix" result="effect1_dropShadow_7996_31141"/>
<feBlend mode="normal" in="SourceGraphic" in2="effect1_dropShadow_7996_31141" result="shape"/>
</filter>
<clipPath id="clip0_7996_31141">
<rect width="104" height="92" fill="white"/>
</clipPath>
</defs>
</svg>
