<svg xmlns="http://www.w3.org/2000/svg" width="512" height="512" viewBox="0 0 512 512">
  <g fill="none" stroke="#2e58ff" stroke-width="0.75">
    <path d="M510 203.049v-6.458a27.9 27.9 0 0 0-55.052-2.373l-.326 1.6H337.383v-17.447a9.753 9.753 0 0 0-8.542-9.676l-22.6-2.78-.375-1.25a121 121 0 0 0-9.206-22.252l-.613-1.146 13.965-17.926a9.793 9.793 0 0 0-.777-12.907l-30.328-30.32a9.779 9.779 0 0 0-12.874-.786l-17.956 14-1.148-.618a120.88 120.88 0 0 0-22.245-9.21l-1.246-.377-2.793-22.582a9.773 9.773 0 0 0-9.676-8.567h-42.884a9.763 9.763 0 0 0-9.676 8.563l-2.744 22.583-1.251.376a119.649 119.649 0 0 0-22.246 9.215l-1.149.618-17.955-14a9.807 9.807 0 0 0-12.921.786l-30.328 30.32a9.814 9.814 0 0 0-.779 12.9l14.015 17.926-.615 1.149a121.062 121.062 0 0 0-9.205 22.252l-.375 1.25-22.6 2.78a9.8 9.8 0 0 0-8.59 9.676v42.89a9.794 9.794 0 0 0 8.589 9.684l22.6 2.769.375 1.251a121.082 121.082 0 0 0 9.205 22.251l.615 1.148L69.036 276.3a9.8 9.8 0 0 0 .779 12.893l30.328 30.331a9.806 9.806 0 0 0 12.92.787l17.956-14.011 1.149.618a119.735 119.735 0 0 0 22.246 9.227l1.251.376 2.744 22.578a9.756 9.756 0 0 0 9.676 8.561h42.884a9.766 9.766 0 0 0 9.676-8.565l2.793-22.573 1.246-.377a120.162 120.162 0 0 0 22.247-9.225l1.15-.621 17.957 14.014a9.775 9.775 0 0 0 12.872-.787l30.329-30.326a9.786 9.786 0 0 0 .777-12.9l-13.965-17.937.614-1.147a120.47 120.47 0 0 0 9.2-22.25l.376-1.251 22.6-2.769a9.752 9.752 0 0 0 8.541-9.684v-17.44H454.62l.326 1.6A27.9 27.9 0 0 0 510 203.049z"/>
    <path d="M443.206 312.709a28.42 28.42 0 0 0-3.954.282l-1.611.226-16.349-45.517c-1.593-4.438-4.291-8.356-9.449-8.356h-75.657a4 4 0 1 0 0 8h76.057l.587.936a11.216 11.216 0 0 1 .942 2.118l16.35 45.534-1.392.849a27.88 27.88 0 1 0 14.476-4.068zM336.186 140.3h75.657c5.154 0 7.858-3.922 9.449-8.355l16.353-45.54 1.619.237a27.076 27.076 0 0 0 3.942.288 27.949 27.949 0 1 0-14.474-4.066l1.389.85-16.353 45.542a12.505 12.505 0 0 1-.92 2.08l-.584.964h-76.078a4 4 0 1 0 0 8zM275.623 383.03H102.56v-13.17a30.228 30.228 0 0 0-13.653-25.715 179.345 179.345 0 0 1-78.744-148.494c0-98.906 80.458-179.363 179.364-179.363a4 4 0 1 0 0-8C86.232 8.288 2.173 92.356 2.173 195.651A187.383 187.383 0 0 0 84.43 350.766a22.265 22.265 0 0 1 10.092 19.094v14.367l-1.374.452a33.025 33.025 0 0 0 0 62.771l1.372.452v1.445A54.514 54.514 0 0 0 149 503.709h81.111a54.505 54.505 0 0 0 54.426-54.362v-1.446l1.374-.451a33.031 33.031 0 0 0-10.285-64.42z"/>
  </g>
</svg>
