<svg width="97" height="95" viewBox="0 0 97 95" fill="none" xmlns="http://www.w3.org/2000/svg">
<path d="M88.8897 72.2574C89.8545 71.7003 90.4489 70.6708 90.4489 69.5567V25.8783C90.4489 24.764 89.8544 23.7344 88.8894 23.1773L51.0649 1.34155C50.1001 0.784531 48.9113 0.784533 47.9464 1.34155L10.122 23.1773C9.15698 23.7344 8.5625 24.764 8.5625 25.8783V69.5567C8.5625 70.6708 9.15683 71.7003 10.1216 72.2574L47.9461 94.0997C48.9111 94.657 50.1002 94.657 51.0653 94.0997L88.8897 72.2574Z" fill="#ECECEC"/>
<path d="M96 34.6709H1L3.98488 46.7174L1 58.7705H96L93.0151 46.7174L96 34.6709Z" fill="#C6C6C6" stroke="white" stroke-width="0.935622" stroke-miterlimit="10"/>
<path d="M27.9 54.0586C27.7533 54.0586 27.6333 54.0119 27.54 53.9186C27.4467 53.8253 27.4 53.7053 27.4 53.5586V40.5586C27.4 40.4119 27.4467 40.2919 27.54 40.1986C27.6333 40.1053 27.7533 40.0586 27.9 40.0586H30.02C30.2467 40.0586 30.4067 40.1119 30.5 40.2186C30.6067 40.3119 30.6733 40.3853 30.7 40.4386L35.58 48.1386V40.5586C35.58 40.4119 35.6267 40.2919 35.72 40.1986C35.8133 40.1053 35.9333 40.0586 36.08 40.0586H38.48C38.6267 40.0586 38.7467 40.1053 38.84 40.1986C38.9333 40.2919 38.98 40.4119 38.98 40.5586V53.5586C38.98 53.6919 38.9333 53.8119 38.84 53.9186C38.7467 54.0119 38.6267 54.0586 38.48 54.0586H36.34C36.1267 54.0586 35.9667 54.0053 35.86 53.8986C35.7667 53.7919 35.7067 53.7186 35.68 53.6786L30.8 46.2786V53.5586C30.8 53.7053 30.7533 53.8253 30.66 53.9186C30.5667 54.0119 30.4467 54.0586 30.3 54.0586H27.9ZM43.275 54.0586C43.1283 54.0586 43.0083 54.0119 42.915 53.9186C42.8217 53.8253 42.775 53.7053 42.775 53.5586V40.5586C42.775 40.4119 42.8217 40.2919 42.915 40.1986C43.0083 40.1053 43.1283 40.0586 43.275 40.0586H48.475C49.7817 40.0586 50.895 40.2719 51.815 40.6986C52.735 41.1119 53.4417 41.7253 53.935 42.5386C54.4283 43.3386 54.695 44.3319 54.735 45.5186C54.7483 46.1053 54.755 46.6186 54.755 47.0586C54.755 47.4986 54.7483 48.0053 54.735 48.5786C54.6817 49.8186 54.415 50.8453 53.935 51.6586C53.4683 52.4719 52.7817 53.0786 51.875 53.4786C50.9817 53.8653 49.8817 54.0586 48.575 54.0586H43.275ZM46.355 51.1786H48.475C49.0483 51.1786 49.5217 51.0919 49.895 50.9186C50.2817 50.7319 50.5683 50.4453 50.755 50.0586C50.955 49.6719 51.0617 49.1653 51.075 48.5386C51.1017 48.1519 51.115 47.8053 51.115 47.4986C51.1283 47.1919 51.1283 46.8853 51.115 46.5786C51.115 46.2719 51.1017 45.9319 51.075 45.5586C51.0483 44.6519 50.8083 43.9919 50.355 43.5786C49.915 43.1519 49.255 42.9386 48.375 42.9386H46.355V51.1786ZM56.9984 54.0586C56.8918 54.0586 56.7918 54.0186 56.6984 53.9386C56.6184 53.8453 56.5784 53.7453 56.5784 53.6386C56.5784 53.5719 56.5851 53.5119 56.5984 53.4586L61.2984 40.6186C61.3384 40.4719 61.4184 40.3453 61.5384 40.2386C61.6718 40.1186 61.8518 40.0586 62.0784 40.0586H65.0384C65.2651 40.0586 65.4384 40.1186 65.5584 40.2386C65.6918 40.3453 65.7784 40.4719 65.8184 40.6186L70.4984 53.4586C70.5251 53.5119 70.5384 53.5719 70.5384 53.6386C70.5384 53.7453 70.4918 53.8453 70.3984 53.9386C70.3184 54.0186 70.2184 54.0586 70.0984 54.0586H67.6384C67.4384 54.0586 67.2851 54.0119 67.1784 53.9186C67.0851 53.8119 67.0251 53.7186 66.9984 53.6386L66.2184 51.5986H60.8784L60.1184 53.6386C60.0918 53.7186 60.0318 53.8119 59.9384 53.9186C59.8451 54.0119 59.6851 54.0586 59.4584 54.0586H56.9984ZM61.6984 48.7186H65.4184L63.5384 43.4386L61.6984 48.7186Z" fill="#3F3F3F" fill-opacity="0.7"/>
<path d="M33.7338 29.9033C33.6538 29.9033 33.5898 29.882 33.5418 29.8393C33.4992 29.7913 33.4698 29.7327 33.4538 29.6633L32.5018 24.5353C32.5018 24.5193 32.4992 24.506 32.4938 24.4953C32.4938 24.4847 32.4938 24.4767 32.4938 24.4713C32.4938 24.4233 32.5098 24.3833 32.5418 24.3513C32.5792 24.3193 32.6192 24.3033 32.6618 24.3033H33.3658C33.4992 24.3033 33.5738 24.3567 33.5898 24.4633L34.2538 28.0873L34.9738 25.7433C34.9898 25.7007 35.0165 25.658 35.0538 25.6153C35.0965 25.5673 35.1578 25.5433 35.2378 25.5433H35.6698C35.7552 25.5433 35.8165 25.5673 35.8538 25.6153C35.8912 25.658 35.9152 25.7007 35.9258 25.7433L36.6538 28.0793L37.3178 24.4633C37.3338 24.3567 37.4085 24.3033 37.5418 24.3033H38.2458C38.2885 24.3033 38.3258 24.3193 38.3578 24.3513C38.3898 24.3833 38.4058 24.4233 38.4058 24.4713C38.4058 24.4767 38.4058 24.4847 38.4058 24.4953C38.4058 24.506 38.4032 24.5193 38.3978 24.5353L37.4458 29.6633C37.4352 29.7327 37.4058 29.7913 37.3578 29.8393C37.3098 29.882 37.2458 29.9033 37.1658 29.9033H36.6298C36.5498 29.9033 36.4858 29.882 36.4378 29.8393C36.3952 29.7967 36.3658 29.7513 36.3498 29.7033L35.4538 27.0313L34.5578 29.7033C34.5365 29.7513 34.5045 29.7967 34.4618 29.8393C34.4192 29.882 34.3552 29.9033 34.2698 29.9033H33.7338ZM39.9371 29.9033C39.8838 29.9033 39.8384 29.8847 39.8011 29.8473C39.7638 29.81 39.7451 29.7647 39.7451 29.7113V24.5033C39.7451 24.4447 39.7638 24.3967 39.8011 24.3593C39.8384 24.322 39.8838 24.3033 39.9371 24.3033H43.4571C43.5158 24.3033 43.5638 24.322 43.6011 24.3593C43.6384 24.3967 43.6571 24.4447 43.6571 24.5033V25.0313C43.6571 25.0847 43.6384 25.13 43.6011 25.1673C43.5638 25.2047 43.5158 25.2233 43.4571 25.2233H40.8251V26.6393H43.2811C43.3398 26.6393 43.3878 26.658 43.4251 26.6953C43.4624 26.7273 43.4811 26.7727 43.4811 26.8313V27.3273C43.4811 27.386 43.4624 27.434 43.4251 27.4713C43.3878 27.5033 43.3398 27.5193 43.2811 27.5193H40.8251V28.9833H43.5211C43.5798 28.9833 43.6278 29.002 43.6651 29.0393C43.7024 29.0767 43.7211 29.1247 43.7211 29.1833V29.7113C43.7211 29.7647 43.7024 29.81 43.6651 29.8473C43.6278 29.8847 43.5798 29.9033 43.5211 29.9033H39.9371ZM49.2938 29.9833C48.7978 29.9833 48.3818 29.9113 48.0458 29.7673C47.7151 29.618 47.4618 29.426 47.2858 29.1913C47.1151 28.9513 47.0244 28.7007 47.0138 28.4393C47.0138 28.3913 47.0298 28.3513 47.0618 28.3193C47.0938 28.2873 47.1338 28.2713 47.1818 28.2713H47.8938C47.9631 28.2713 48.0138 28.2873 48.0458 28.3193C48.0831 28.346 48.1151 28.3807 48.1418 28.4233C48.1738 28.5247 48.2351 28.626 48.3258 28.7273C48.4164 28.8233 48.5391 28.9033 48.6938 28.9673C48.8538 29.0313 49.0538 29.0633 49.2938 29.0633C49.6778 29.0633 49.9631 28.9993 50.1498 28.8713C50.3418 28.7433 50.4378 28.57 50.4378 28.3513C50.4378 28.1967 50.3871 28.074 50.2858 27.9833C50.1844 27.8873 50.0271 27.802 49.8138 27.7273C49.6058 27.6473 49.3284 27.5647 48.9818 27.4793C48.5818 27.3833 48.2458 27.2687 47.9738 27.1353C47.7071 26.9967 47.5044 26.8233 47.3658 26.6153C47.2324 26.4073 47.1658 26.1433 47.1658 25.8233C47.1658 25.514 47.2484 25.2393 47.4138 24.9993C47.5844 24.7593 47.8244 24.57 48.1338 24.4313C48.4484 24.2927 48.8218 24.2233 49.2538 24.2233C49.6004 24.2233 49.9071 24.2713 50.1738 24.3673C50.4404 24.458 50.6618 24.5807 50.8378 24.7353C51.0138 24.8847 51.1471 25.0473 51.2378 25.2233C51.3338 25.394 51.3844 25.562 51.3898 25.7273C51.3898 25.77 51.3738 25.81 51.3418 25.8473C51.3151 25.8793 51.2751 25.8953 51.2218 25.8953H50.4778C50.4351 25.8953 50.3924 25.8847 50.3498 25.8633C50.3071 25.842 50.2724 25.802 50.2458 25.7433C50.2138 25.578 50.1098 25.4367 49.9338 25.3193C49.7578 25.202 49.5311 25.1433 49.2538 25.1433C48.9658 25.1433 48.7338 25.1967 48.5578 25.3033C48.3818 25.41 48.2938 25.5753 48.2938 25.7993C48.2938 25.9487 48.3364 26.074 48.4218 26.1753C48.5124 26.2713 48.6538 26.3567 48.8458 26.4313C49.0431 26.506 49.3018 26.586 49.6218 26.6713C50.0751 26.7727 50.4458 26.89 50.7338 27.0233C51.0218 27.1567 51.2324 27.3273 51.3658 27.5353C51.4991 27.738 51.5658 27.9967 51.5658 28.3113C51.5658 28.6633 51.4698 28.9647 51.2778 29.2153C51.0911 29.4607 50.8271 29.65 50.4858 29.7833C50.1444 29.9167 49.7471 29.9833 49.2938 29.9833ZM53.0746 29.9033C53.0213 29.9033 52.9759 29.8847 52.9386 29.8473C52.9013 29.81 52.8826 29.7647 52.8826 29.7113V24.4953C52.8826 24.442 52.9013 24.3967 52.9386 24.3593C52.9759 24.322 53.0213 24.3033 53.0746 24.3033H53.8266C53.8853 24.3033 53.9306 24.322 53.9626 24.3593C53.9999 24.3967 54.0186 24.442 54.0186 24.4953V29.7113C54.0186 29.7647 53.9999 29.81 53.9626 29.8473C53.9306 29.8847 53.8853 29.9033 53.8266 29.9033H53.0746ZM57.8492 29.9833C57.3586 29.9833 56.9399 29.898 56.5932 29.7273C56.2519 29.5567 55.9852 29.3113 55.7932 28.9913C55.6066 28.666 55.5052 28.2793 55.4892 27.8313C55.4839 27.602 55.4812 27.3567 55.4812 27.0953C55.4812 26.8287 55.4839 26.578 55.4892 26.3433C55.5052 25.9007 55.6066 25.522 55.7932 25.2073C55.9852 24.8927 56.2546 24.65 56.6012 24.4793C56.9532 24.3087 57.3692 24.2233 57.8492 24.2233C58.2386 24.2233 58.5799 24.2767 58.8732 24.3833C59.1666 24.4847 59.4092 24.618 59.6012 24.7833C59.7986 24.9433 59.9452 25.1167 60.0412 25.3033C60.1426 25.49 60.1959 25.6633 60.2012 25.8233C60.2066 25.8713 60.1932 25.9113 60.1612 25.9433C60.1292 25.9753 60.0866 25.9913 60.0332 25.9913H59.2092C59.1559 25.9913 59.1159 25.9807 59.0892 25.9593C59.0626 25.938 59.0386 25.906 59.0172 25.8633C58.9746 25.7513 58.9079 25.642 58.8172 25.5353C58.7266 25.4233 58.6039 25.33 58.4492 25.2553C58.2946 25.1807 58.0946 25.1433 57.8492 25.1433C57.4866 25.1433 57.1959 25.2393 56.9772 25.4313C56.7639 25.6233 56.6492 25.9407 56.6332 26.3833C56.6172 26.8473 56.6172 27.3167 56.6332 27.7913C56.6492 28.2447 56.7666 28.57 56.9852 28.7673C57.2092 28.9647 57.5026 29.0633 57.8652 29.0633C58.1052 29.0633 58.3186 29.0207 58.5052 28.9353C58.6972 28.85 58.8466 28.7167 58.9532 28.5353C59.0652 28.354 59.1212 28.122 59.1212 27.8393V27.5913H58.1452C58.0919 27.5913 58.0466 27.5727 58.0092 27.5353C57.9719 27.498 57.9532 27.45 57.9532 27.3913V26.9673C57.9532 26.9087 57.9719 26.8607 58.0092 26.8233C58.0466 26.786 58.0919 26.7673 58.1452 26.7673H60.0572C60.1159 26.7673 60.1612 26.786 60.1932 26.8233C60.2306 26.8607 60.2492 26.9087 60.2492 26.9673V27.8073C60.2492 28.2553 60.1506 28.642 59.9532 28.9673C59.7612 29.2927 59.4839 29.5433 59.1212 29.7193C58.7639 29.8953 58.3399 29.9833 57.8492 29.9833ZM61.8668 29.9033C61.8134 29.9033 61.7681 29.8847 61.7308 29.8473C61.6934 29.81 61.6748 29.7647 61.6748 29.7113V24.5033C61.6748 24.4447 61.6934 24.3967 61.7308 24.3593C61.7681 24.322 61.8134 24.3033 61.8668 24.3033H62.4828C62.5574 24.3033 62.6108 24.322 62.6428 24.3593C62.6801 24.3913 62.7041 24.4153 62.7148 24.4313L65.0188 28.0153V24.5033C65.0188 24.4447 65.0348 24.3967 65.0668 24.3593C65.1041 24.322 65.1521 24.3033 65.2108 24.3033H65.8828C65.9414 24.3033 65.9894 24.322 66.0268 24.3593C66.0641 24.3967 66.0828 24.4447 66.0828 24.5033V29.7033C66.0828 29.762 66.0641 29.81 66.0268 29.8473C65.9894 29.8847 65.9441 29.9033 65.8908 29.9033H65.2668C65.1921 29.9033 65.1388 29.8847 65.1068 29.8473C65.0748 29.81 65.0508 29.786 65.0348 29.7753L62.7388 26.2713V29.7113C62.7388 29.7647 62.7201 29.81 62.6828 29.8473C62.6454 29.8847 62.5974 29.9033 62.5388 29.9033H61.8668Z" fill="#3F3F3F" fill-opacity="0.7"/>
<path d="M49.2171 12.6854C49.2467 12.6347 49.2892 12.5925 49.3402 12.5632C49.3913 12.534 49.4491 12.5186 49.508 12.5186C49.5669 12.5186 49.6247 12.534 49.6758 12.5632C49.7268 12.5925 49.7693 12.6347 49.7989 12.6854L50.8697 14.5199C50.9169 14.6013 50.9963 14.6591 51.0892 14.6792L53.1675 15.1283C53.2251 15.1407 53.2784 15.168 53.3221 15.2074C53.3658 15.2469 53.3983 15.297 53.4165 15.353C53.4347 15.4089 53.4379 15.4686 53.4258 15.5261C53.4136 15.5837 53.3866 15.637 53.3473 15.6809L51.9304 17.2639C51.8992 17.2987 51.8756 17.3395 51.8612 17.3838C51.8467 17.4282 51.8416 17.475 51.8462 17.5214L52.0603 19.6335C52.0663 19.692 52.0568 19.751 52.0327 19.8047C52.0087 19.8583 51.9709 19.9048 51.9233 19.9393C51.8757 19.9739 51.8198 19.9954 51.7612 20.0016C51.7027 20.0079 51.6435 19.9987 51.5896 19.975L49.6434 19.1193C49.6006 19.1004 49.5544 19.0906 49.5077 19.0906C49.4609 19.0906 49.4147 19.1004 49.372 19.1193L47.4257 19.975C47.3719 19.9986 47.3128 20.0076 47.2543 20.0013C47.1959 19.9949 47.1401 19.9734 47.0926 19.9389C47.045 19.9043 47.0074 19.858 46.9834 19.8044C46.9594 19.7508 46.9498 19.6919 46.9557 19.6335L47.1698 17.5214C47.1745 17.475 47.1694 17.4282 47.1549 17.3838C47.1404 17.3395 47.1168 17.2987 47.0857 17.2639L45.6687 15.6809C45.6295 15.637 45.6024 15.5837 45.5903 15.5261C45.5781 15.4686 45.5813 15.4089 45.5995 15.353C45.6177 15.297 45.6503 15.2469 45.694 15.2074C45.7377 15.168 45.791 15.1407 45.8486 15.1283L47.9268 14.6792C47.9725 14.6694 48.0157 14.6501 48.0536 14.6227C48.0916 14.5952 48.1233 14.5603 48.147 14.5199L49.2171 12.6854ZM58.6149 14.2504C58.6446 14.1996 58.687 14.1575 58.7381 14.1282C58.7891 14.0989 58.847 14.0835 58.9058 14.0835C58.9647 14.0835 59.0226 14.0989 59.0736 14.1282C59.1247 14.1575 59.1671 14.1996 59.1968 14.2504L59.7604 15.2164C59.784 15.2566 59.8157 15.2915 59.8535 15.3189C59.8913 15.3463 59.9344 15.3657 59.98 15.3757L61.0743 15.6123C61.1319 15.6247 61.1852 15.652 61.2289 15.6914C61.2726 15.7309 61.3052 15.781 61.3234 15.837C61.3416 15.8929 61.3448 15.9526 61.3326 16.0101C61.3205 16.0677 61.2934 16.121 61.2541 16.1649L60.5086 16.9984C60.4774 17.0331 60.4537 17.0739 60.4392 17.1182C60.4247 17.1626 60.4197 17.2095 60.4244 17.2559L60.5369 18.3677C60.5428 18.4262 60.5333 18.4852 60.5093 18.5389C60.4852 18.5925 60.4475 18.639 60.3999 18.6735C60.3522 18.7081 60.2963 18.7296 60.2378 18.7358C60.1792 18.7421 60.1201 18.7329 60.0662 18.7092L59.0419 18.2588C58.9992 18.2399 58.9529 18.2301 58.9062 18.2301C58.8594 18.2301 58.8132 18.2399 58.7705 18.2588L57.7455 18.7092C57.6916 18.7329 57.6324 18.7421 57.5739 18.7358C57.5153 18.7296 57.4595 18.7081 57.4118 18.6735C57.3642 18.639 57.3265 18.5925 57.3024 18.5389C57.2784 18.4852 57.2688 18.4262 57.2748 18.3677L57.3879 17.2559C57.3927 17.2095 57.3876 17.1626 57.3731 17.1182C57.3586 17.0739 57.335 17.0331 57.3037 16.9984L56.5576 16.1649C56.5183 16.121 56.4912 16.0677 56.4791 16.0101C56.4669 15.9526 56.4701 15.8929 56.4883 15.837C56.5065 15.781 56.5391 15.7309 56.5828 15.6914C56.6265 15.652 56.6798 15.6247 56.7374 15.6123L57.8317 15.3757C57.8774 15.3657 57.9206 15.3464 57.9585 15.3189C57.9964 15.2915 58.0282 15.2566 58.0519 15.2164L58.6149 14.2504ZM39.8071 14.2504C39.8368 14.1996 39.8792 14.1575 39.9303 14.1282C39.9813 14.0989 40.0392 14.0835 40.0981 14.0835C40.1569 14.0835 40.2148 14.0989 40.2658 14.1282C40.3169 14.1575 40.3593 14.1996 40.389 14.2504L40.952 15.2164C40.9998 15.2977 41.0799 15.3555 41.1722 15.3757L42.2665 15.6123C42.3241 15.6247 42.3774 15.652 42.4211 15.6914C42.4648 15.7309 42.4974 15.781 42.5156 15.837C42.5338 15.8929 42.537 15.9526 42.5248 16.0101C42.5127 16.0677 42.4856 16.121 42.4463 16.1649L41.7002 16.9984C41.6689 17.0331 41.6453 17.0739 41.6308 17.1182C41.6163 17.1626 41.6112 17.2095 41.616 17.2559L41.7291 18.3677C41.7351 18.4263 41.7256 18.4854 41.7015 18.5392C41.6775 18.5929 41.6397 18.6394 41.5919 18.674C41.5442 18.7085 41.4882 18.73 41.4295 18.7362C41.3709 18.7424 41.3116 18.7331 41.2577 18.7092L40.2341 18.2588C40.1913 18.2398 40.1449 18.23 40.0981 18.23C40.0512 18.23 40.0049 18.2398 39.962 18.2588L38.9377 18.7092C38.8838 18.7331 38.8246 18.7424 38.7659 18.7362C38.7073 18.73 38.6513 18.7085 38.6035 18.674C38.5558 18.6394 38.518 18.5929 38.4939 18.5392C38.4698 18.4854 38.4603 18.4263 38.4663 18.3677L38.5795 17.2559C38.5842 17.2095 38.5791 17.1626 38.5646 17.1183C38.5501 17.0739 38.5265 17.0331 38.4953 16.9984L37.7498 16.1649C37.7105 16.121 37.6835 16.0677 37.6713 16.0101C37.6592 15.9526 37.6623 15.8929 37.6805 15.837C37.6987 15.781 37.7313 15.7309 37.775 15.6914C37.8187 15.652 37.872 15.6247 37.9296 15.6123L39.0239 15.3757C39.0696 15.3657 39.1126 15.3464 39.1504 15.319C39.1882 15.2915 39.2199 15.2566 39.2435 15.2164L39.8071 14.2504Z" fill="#9B9B9B"/>
<path d="M41.1769 67.5596C41.1269 67.5596 41.0819 67.5421 41.0419 67.5071C41.0069 67.4721 40.9894 67.4271 40.9894 67.3721V63.8021L39.9619 64.5896C39.9169 64.6246 39.8694 64.6371 39.8194 64.6271C39.7744 64.6171 39.7344 64.5896 39.6994 64.5446L39.2569 63.9671C39.2269 63.9221 39.2144 63.8746 39.2194 63.8246C39.2294 63.7696 39.2594 63.7271 39.3094 63.6971L41.0344 62.3621C41.0644 62.3421 41.0919 62.3296 41.1169 62.3246C41.1469 62.3146 41.1794 62.3096 41.2144 62.3096H42.1519C42.2019 62.3096 42.2444 62.3271 42.2794 62.3621C42.3194 62.3971 42.3394 62.4421 42.3394 62.4971V67.3721C42.3394 67.4271 42.3194 67.4721 42.2794 67.5071C42.2444 67.5421 42.2019 67.5596 42.1519 67.5596H41.1769ZM45.7449 67.6346C45.3849 67.6346 45.0724 67.5846 44.8074 67.4846C44.5424 67.3796 44.3224 67.2371 44.1474 67.0571C43.9774 66.8771 43.8474 66.6671 43.7574 66.4271C43.6674 66.1871 43.6149 65.9296 43.5999 65.6546C43.5949 65.5196 43.5899 65.3671 43.5849 65.1971C43.5849 65.0221 43.5849 64.8471 43.5849 64.6721C43.5899 64.4921 43.5949 64.3321 43.5999 64.1921C43.6149 63.9171 43.6674 63.6621 43.7574 63.4271C43.8524 63.1871 43.9874 62.9796 44.1624 62.8046C44.3424 62.6246 44.5624 62.4846 44.8224 62.3846C45.0874 62.2846 45.3949 62.2346 45.7449 62.2346C46.0999 62.2346 46.4074 62.2846 46.6674 62.3846C46.9274 62.4846 47.1449 62.6246 47.3199 62.8046C47.4999 62.9796 47.6374 63.1871 47.7324 63.4271C47.8274 63.6621 47.8799 63.9171 47.8899 64.1921C47.8999 64.3321 47.9049 64.4921 47.9049 64.6721C47.9099 64.8471 47.9099 65.0221 47.9049 65.1971C47.9049 65.3671 47.8999 65.5196 47.8899 65.6546C47.8799 65.9296 47.8274 66.1871 47.7324 66.4271C47.6424 66.6671 47.5099 66.8771 47.3349 67.0571C47.1649 67.2371 46.9474 67.3796 46.6824 67.4846C46.4224 67.5846 46.1099 67.6346 45.7449 67.6346ZM45.7449 66.5471C46.0049 66.5471 46.1924 66.4646 46.3074 66.2996C46.4274 66.1296 46.4899 65.9021 46.4949 65.6171C46.5049 65.4721 46.5099 65.3196 46.5099 65.1596C46.5149 64.9996 46.5149 64.8396 46.5099 64.6796C46.5099 64.5196 46.5049 64.3721 46.4949 64.2371C46.4899 63.9621 46.4274 63.7396 46.3074 63.5696C46.1924 63.3996 46.0049 63.3121 45.7449 63.3071C45.4849 63.3121 45.2974 63.3996 45.1824 63.5696C45.0674 63.7396 45.0049 63.9621 44.9949 64.2371C44.9899 64.3721 44.9849 64.5196 44.9799 64.6796C44.9799 64.8396 44.9799 64.9996 44.9799 65.1596C44.9849 65.3196 44.9899 65.4721 44.9949 65.6171C45.0049 65.9021 45.0699 66.1296 45.1899 66.2996C45.3099 66.4646 45.4949 66.5471 45.7449 66.5471ZM51.2175 67.6346C50.8575 67.6346 50.545 67.5846 50.28 67.4846C50.015 67.3796 49.795 67.2371 49.62 67.0571C49.45 66.8771 49.32 66.6671 49.23 66.4271C49.14 66.1871 49.0875 65.9296 49.0725 65.6546C49.0675 65.5196 49.0625 65.3671 49.0575 65.1971C49.0575 65.0221 49.0575 64.8471 49.0575 64.6721C49.0625 64.4921 49.0675 64.3321 49.0725 64.1921C49.0875 63.9171 49.14 63.6621 49.23 63.4271C49.325 63.1871 49.46 62.9796 49.635 62.8046C49.815 62.6246 50.035 62.4846 50.295 62.3846C50.56 62.2846 50.8675 62.2346 51.2175 62.2346C51.5725 62.2346 51.88 62.2846 52.14 62.3846C52.4 62.4846 52.6175 62.6246 52.7925 62.8046C52.9725 62.9796 53.11 63.1871 53.205 63.4271C53.3 63.6621 53.3525 63.9171 53.3625 64.1921C53.3725 64.3321 53.3775 64.4921 53.3775 64.6721C53.3825 64.8471 53.3825 65.0221 53.3775 65.1971C53.3775 65.3671 53.3725 65.5196 53.3625 65.6546C53.3525 65.9296 53.3 66.1871 53.205 66.4271C53.115 66.6671 52.9825 66.8771 52.8075 67.0571C52.6375 67.2371 52.42 67.3796 52.155 67.4846C51.895 67.5846 51.5825 67.6346 51.2175 67.6346ZM51.2175 66.5471C51.4775 66.5471 51.665 66.4646 51.78 66.2996C51.9 66.1296 51.9625 65.9021 51.9675 65.6171C51.9775 65.4721 51.9825 65.3196 51.9825 65.1596C51.9875 64.9996 51.9875 64.8396 51.9825 64.6796C51.9825 64.5196 51.9775 64.3721 51.9675 64.2371C51.9625 63.9621 51.9 63.7396 51.78 63.5696C51.665 63.3996 51.4775 63.3121 51.2175 63.3071C50.9575 63.3121 50.77 63.3996 50.655 63.5696C50.54 63.7396 50.4775 63.9621 50.4675 64.2371C50.4625 64.3721 50.4575 64.5196 50.4525 64.6796C50.4525 64.8396 50.4525 64.9996 50.4525 65.1596C50.4575 65.3196 50.4625 65.4721 50.4675 65.6171C50.4775 65.9021 50.5425 66.1296 50.6625 66.2996C50.7825 66.4646 50.9675 66.5471 51.2175 66.5471ZM54.9877 67.5596C54.8727 67.5596 54.8152 67.5096 54.8152 67.4096C54.8152 67.3796 54.8252 67.3521 54.8452 67.3271L58.5502 62.4521C58.5852 62.4071 58.6202 62.3721 58.6552 62.3471C58.6902 62.3221 58.7427 62.3096 58.8127 62.3096H59.3452C59.4602 62.3096 59.5177 62.3596 59.5177 62.4596C59.5177 62.4896 59.5077 62.5171 59.4877 62.5421L55.7827 67.4171C55.7477 67.4621 55.7127 67.4971 55.6777 67.5221C55.6427 67.5471 55.5902 67.5596 55.5202 67.5596H54.9877ZM58.7602 67.5971C58.4202 67.5971 58.1477 67.5071 57.9427 67.3271C57.7427 67.1471 57.6302 66.9071 57.6052 66.6071C57.6002 66.4771 57.5977 66.3621 57.5977 66.2621C57.5977 66.1621 57.6002 66.0421 57.6052 65.9021C57.6252 65.5971 57.7327 65.3546 57.9277 65.1746C58.1277 64.9896 58.4052 64.8971 58.7602 64.8971C59.1202 64.8971 59.3977 64.9896 59.5927 65.1746C59.7877 65.3546 59.8952 65.5971 59.9152 65.9021C59.9252 66.0421 59.9302 66.1621 59.9302 66.2621C59.9302 66.3621 59.9252 66.4771 59.9152 66.6071C59.8952 66.9071 59.7827 67.1471 59.5777 67.3271C59.3727 67.5071 59.1002 67.5971 58.7602 67.5971ZM58.7602 66.9371C58.8452 66.9371 58.9102 66.9196 58.9552 66.8846C59.0052 66.8496 59.0427 66.8046 59.0677 66.7496C59.0927 66.6896 59.1052 66.6271 59.1052 66.5621C59.1152 66.4471 59.1202 66.3421 59.1202 66.2471C59.1202 66.1521 59.1152 66.0496 59.1052 65.9396C59.1002 65.8446 59.0727 65.7596 59.0227 65.6846C58.9727 65.6046 58.8852 65.5646 58.7602 65.5646C58.6352 65.5646 58.5477 65.6046 58.4977 65.6846C58.4477 65.7596 58.4202 65.8446 58.4152 65.9396C58.4102 66.0496 58.4077 66.1521 58.4077 66.2471C58.4077 66.3421 58.4102 66.4471 58.4152 66.5621C58.4202 66.6271 58.4327 66.6896 58.4527 66.7496C58.4777 66.8046 58.5152 66.8496 58.5652 66.8846C58.6152 66.9196 58.6802 66.9371 58.7602 66.9371ZM55.5877 64.9571C55.2427 64.9571 54.9677 64.8696 54.7627 64.6946C54.5627 64.5146 54.4527 64.2746 54.4327 63.9746C54.4227 63.8446 54.4177 63.7321 54.4177 63.6371C54.4227 63.5371 54.4277 63.4171 54.4327 63.2771C54.4477 62.9721 54.5527 62.7296 54.7477 62.5496C54.9477 62.3646 55.2277 62.2721 55.5877 62.2721C55.9477 62.2721 56.2252 62.3646 56.4202 62.5496C56.6152 62.7296 56.7202 62.9721 56.7352 63.2771C56.7452 63.4171 56.7502 63.5371 56.7502 63.6371C56.7502 63.7321 56.7452 63.8446 56.7352 63.9746C56.7202 64.2746 56.6102 64.5146 56.4052 64.6946C56.2002 64.8696 55.9277 64.9571 55.5877 64.9571ZM55.5877 64.3121C55.6677 64.3121 55.7327 64.2946 55.7827 64.2596C55.8327 64.2196 55.8702 64.1721 55.8952 64.1171C55.9202 64.0571 55.9327 63.9971 55.9327 63.9371C55.9427 63.8221 55.9477 63.7171 55.9477 63.6221C55.9477 63.5271 55.9427 63.4246 55.9327 63.3146C55.9277 63.2196 55.8977 63.1346 55.8427 63.0596C55.7927 62.9796 55.7077 62.9396 55.5877 62.9396C55.4627 62.9396 55.3727 62.9796 55.3177 63.0596C55.2677 63.1346 55.2402 63.2196 55.2352 63.3146C55.2302 63.4246 55.2277 63.5271 55.2277 63.6221C55.2277 63.7171 55.2302 63.8221 55.2352 63.9371C55.2402 63.9971 55.2527 64.0571 55.2727 64.1171C55.2977 64.1721 55.3352 64.2196 55.3852 64.2596C55.4352 64.2946 55.5027 64.3121 55.5877 64.3121ZM25.9887 75.6267C25.5725 75.6267 25.219 75.5551 24.9281 75.4119C24.6417 75.2642 24.4224 75.0561 24.2702 74.7876C24.1181 74.5146 24.0331 74.188 24.0152 73.8076C24.0107 73.6241 24.0084 73.4272 24.0084 73.2169C24.0084 73.0065 24.0107 72.8051 24.0152 72.6127C24.0331 72.2368 24.1181 71.9124 24.2702 71.6394C24.4269 71.3664 24.6484 71.1583 24.9348 71.0151C25.2257 70.8674 25.577 70.7936 25.9887 70.7936C26.293 70.7936 26.566 70.8339 26.8076 70.9144C27.0493 70.995 27.2551 71.1068 27.4252 71.2501C27.5952 71.3888 27.7273 71.5521 27.8212 71.7401C27.9152 71.928 27.9644 72.1316 27.9689 72.3509C27.9734 72.3912 27.96 72.4248 27.9286 72.4516C27.9018 72.4785 27.8682 72.4919 27.8279 72.4919H27.1902C27.141 72.4919 27.1007 72.4807 27.0694 72.4583C27.0381 72.4315 27.0157 72.389 27.0023 72.3308C26.9307 72.0354 26.8076 71.8341 26.6331 71.7267C26.4586 71.6192 26.2415 71.5655 25.982 71.5655C25.6821 71.5655 25.4427 71.6506 25.2637 71.8206C25.0847 71.9862 24.9885 72.2614 24.9751 72.6463C24.9616 73.0132 24.9616 73.3891 24.9751 73.774C24.9885 74.1589 25.0847 74.4363 25.2637 74.6064C25.4427 74.772 25.6821 74.8547 25.982 74.8547C26.2415 74.8547 26.4586 74.801 26.6331 74.6936C26.8076 74.5818 26.9307 74.3804 27.0023 74.0895C27.0157 74.0268 27.0381 73.9843 27.0694 73.962C27.1007 73.9396 27.141 73.9284 27.1902 73.9284H27.8279C27.8682 73.9284 27.9018 73.9418 27.9286 73.9687C27.96 73.9955 27.9734 74.0291 27.9689 74.0694C27.9644 74.2886 27.9152 74.4923 27.8212 74.6802C27.7273 74.8682 27.5952 75.0337 27.4252 75.1769C27.2551 75.3157 27.0493 75.4253 26.8076 75.5059C26.566 75.5864 26.293 75.6267 25.9887 75.6267ZM30.9063 75.6267C30.508 75.6267 30.1657 75.5618 29.8793 75.432C29.5929 75.2978 29.3691 75.0942 29.208 74.8212C29.0469 74.5437 28.9596 74.1991 28.9462 73.7874C28.9417 73.595 28.9395 73.4048 28.9395 73.2169C28.9395 73.0289 28.9417 72.8365 28.9462 72.6396C28.9596 72.2323 29.0492 71.8922 29.2147 71.6192C29.3803 71.3463 29.6063 71.1404 29.8927 71.0017C30.1836 70.863 30.5215 70.7936 30.9063 70.7936C31.2912 70.7936 31.629 70.863 31.9199 71.0017C32.2108 71.1404 32.439 71.3463 32.6046 71.6192C32.7702 71.8922 32.8597 72.2323 32.8731 72.6396C32.8821 72.8365 32.8865 73.0289 32.8865 73.2169C32.8865 73.4048 32.8821 73.595 32.8731 73.7874C32.8597 74.1991 32.7724 74.5437 32.6113 74.8212C32.4502 75.0942 32.2242 75.2978 31.9334 75.432C31.6469 75.5618 31.3046 75.6267 30.9063 75.6267ZM30.9063 74.8547C31.1972 74.8547 31.4344 74.7697 31.6179 74.5997C31.8013 74.4251 31.8998 74.1432 31.9132 73.7539C31.9222 73.557 31.9266 73.3757 31.9266 73.2101C31.9266 73.0401 31.9222 72.8588 31.9132 72.6664C31.9043 72.4069 31.855 72.1965 31.7655 72.0354C31.6805 71.8699 31.5642 71.7513 31.4165 71.6797C31.2688 71.6036 31.0987 71.5655 30.9063 71.5655C30.7184 71.5655 30.5505 71.6036 30.4029 71.6797C30.2552 71.7513 30.1366 71.8699 30.0471 72.0354C29.9621 72.1965 29.9151 72.4069 29.9061 72.6664C29.9017 72.8588 29.8994 73.0401 29.8994 73.2101C29.8994 73.3757 29.9017 73.557 29.9061 73.7539C29.9196 74.1432 30.018 74.4251 30.2015 74.5997C30.385 74.7697 30.6199 74.8547 30.9063 74.8547ZM34.2647 75.5596C34.22 75.5596 34.1819 75.5439 34.1506 75.5126C34.1193 75.4813 34.1036 75.4432 34.1036 75.3985V71.0285C34.1036 70.9793 34.1193 70.939 34.1506 70.9077C34.1819 70.8764 34.22 70.8607 34.2647 70.8607H34.7816C34.8443 70.8607 34.889 70.8764 34.9159 70.9077C34.9472 70.9346 34.9673 70.9547 34.9763 70.9681L36.9095 73.9754V71.0285C36.9095 70.9793 36.9229 70.939 36.9498 70.9077C36.9811 70.8764 37.0214 70.8607 37.0706 70.8607H37.6345C37.6837 70.8607 37.724 70.8764 37.7553 70.9077C37.7866 70.939 37.8023 70.9793 37.8023 71.0285V75.3918C37.8023 75.441 37.7866 75.4813 37.7553 75.5126C37.724 75.5439 37.6859 75.5596 37.6412 75.5596H37.1176C37.055 75.5596 37.0102 75.5439 36.9834 75.5126C36.9565 75.4813 36.9364 75.4611 36.9229 75.4522L34.9964 72.512V75.3985C34.9964 75.4432 34.9808 75.4813 34.9494 75.5126C34.9181 75.5439 34.8778 75.5596 34.8286 75.5596H34.2647ZM39.3464 75.5596C39.3017 75.5596 39.2636 75.5439 39.2323 75.5126C39.201 75.4813 39.1853 75.4432 39.1853 75.3985V71.0285C39.1853 70.9793 39.201 70.939 39.2323 70.9077C39.2636 70.8764 39.3017 70.8607 39.3464 70.8607H42.2597C42.3089 70.8607 42.3492 70.8764 42.3805 70.9077C42.4119 70.939 42.4275 70.9793 42.4275 71.0285V71.4984C42.4275 71.5476 42.4119 71.5879 42.3805 71.6192C42.3492 71.6461 42.3089 71.6595 42.2597 71.6595H40.1049V72.9349H42.1255C42.1747 72.9349 42.215 72.9506 42.2463 72.9819C42.2776 73.0132 42.2933 73.0535 42.2933 73.1027V73.5726C42.2933 73.6174 42.2776 73.6554 42.2463 73.6867C42.215 73.7181 42.1747 73.7337 42.1255 73.7337H40.1049V75.3985C40.1049 75.4432 40.0893 75.4813 40.058 75.5126C40.0266 75.5439 39.9864 75.5596 39.9371 75.5596H39.3464ZM43.7136 75.5596C43.6688 75.5596 43.6308 75.5439 43.5995 75.5126C43.5681 75.4813 43.5525 75.4432 43.5525 75.3985V71.0218C43.5525 70.9771 43.5681 70.939 43.5995 70.9077C43.6308 70.8764 43.6688 70.8607 43.7136 70.8607H44.3446C44.3938 70.8607 44.4318 70.8764 44.4587 70.9077C44.49 70.939 44.5057 70.9771 44.5057 71.0218V75.3985C44.5057 75.4432 44.49 75.4813 44.4587 75.5126C44.4318 75.5439 44.3938 75.5596 44.3446 75.5596H43.7136ZM46.0551 75.5596C46.0104 75.5596 45.9723 75.5439 45.941 75.5126C45.9097 75.4813 45.894 75.4432 45.894 75.3985V71.0285C45.894 70.9793 45.9097 70.939 45.941 70.9077C45.9723 70.8764 46.0104 70.8607 46.0551 70.8607H47.693C48.145 70.8607 48.5164 70.9301 48.8073 71.0688C49.1027 71.2075 49.3242 71.4134 49.4719 71.6864C49.624 71.9594 49.7023 72.2928 49.7068 72.6866C49.7158 72.8835 49.7202 73.058 49.7202 73.2101C49.7202 73.3623 49.7158 73.5346 49.7068 73.727C49.6979 74.1432 49.6218 74.4878 49.4786 74.7608C49.3354 75.0293 49.1183 75.2307 48.8274 75.3649C48.541 75.4947 48.1741 75.5596 47.7266 75.5596H46.0551ZM46.8271 74.7876H47.693C47.9436 74.7876 48.1472 74.7518 48.3039 74.6802C48.4605 74.6086 48.5746 74.4945 48.6462 74.3379C48.7223 74.1768 48.7626 73.9664 48.767 73.7069C48.7715 73.5726 48.7737 73.4563 48.7737 73.3578C48.7782 73.2549 48.7782 73.1542 48.7737 73.0558C48.7737 72.9528 48.7715 72.8365 48.767 72.7067C48.7581 72.3397 48.6663 72.069 48.4918 71.8945C48.3173 71.7199 48.0398 71.6327 47.6594 71.6327H46.8271V74.7876ZM51.1106 75.5596C51.0658 75.5596 51.0278 75.5439 50.9965 75.5126C50.9651 75.4813 50.9495 75.4432 50.9495 75.3985V71.0285C50.9495 70.9793 50.9651 70.939 50.9965 70.9077C51.0278 70.8764 51.0658 70.8607 51.1106 70.8607H54.0642C54.1134 70.8607 54.1537 70.8764 54.185 70.9077C54.2163 70.939 54.232 70.9793 54.232 71.0285V71.4716C54.232 71.5163 54.2163 71.5544 54.185 71.5857C54.1537 71.617 54.1134 71.6327 54.0642 71.6327H51.8557V72.8208H53.9165C53.9657 72.8208 54.006 72.8365 54.0373 72.8678C54.0686 72.8947 54.0843 72.9327 54.0843 72.9819V73.3981C54.0843 73.4473 54.0686 73.4876 54.0373 73.5189C54.006 73.5458 53.9657 73.5592 53.9165 73.5592H51.8557V74.7876H54.1179C54.1671 74.7876 54.2074 74.8033 54.2387 74.8346C54.27 74.8659 54.2857 74.9062 54.2857 74.9554V75.3985C54.2857 75.4432 54.27 75.4813 54.2387 75.5126C54.2074 75.5439 54.1671 75.5596 54.1179 75.5596H51.1106ZM55.622 75.5596C55.5772 75.5596 55.5392 75.5439 55.5078 75.5126C55.4765 75.4813 55.4609 75.4432 55.4609 75.3985V71.0285C55.4609 70.9793 55.4765 70.939 55.5078 70.9077C55.5392 70.8764 55.5772 70.8607 55.622 70.8607H56.1388C56.2015 70.8607 56.2462 70.8764 56.2731 70.9077C56.3044 70.9346 56.3245 70.9547 56.3335 70.9681L58.2667 73.9754V71.0285C58.2667 70.9793 58.2802 70.939 58.307 70.9077C58.3383 70.8764 58.3786 70.8607 58.4278 70.8607H58.9917C59.0409 70.8607 59.0812 70.8764 59.1125 70.9077C59.1439 70.939 59.1595 70.9793 59.1595 71.0285V75.3918C59.1595 75.441 59.1439 75.4813 59.1125 75.5126C59.0812 75.5439 59.0432 75.5596 58.9984 75.5596H58.4748C58.4122 75.5596 58.3674 75.5439 58.3406 75.5126C58.3137 75.4813 58.2936 75.4611 58.2802 75.4522L56.3536 72.512V75.3985C56.3536 75.4432 56.338 75.4813 56.3066 75.5126C56.2753 75.5439 56.235 75.5596 56.1858 75.5596H55.622ZM61.7374 75.5596C61.6926 75.5596 61.6546 75.5439 61.6233 75.5126C61.5919 75.4813 61.5763 75.4432 61.5763 75.3985V71.6864H60.3344C60.2897 71.6864 60.2517 71.6707 60.2203 71.6394C60.189 71.6081 60.1733 71.57 60.1733 71.5253V71.0285C60.1733 70.9793 60.189 70.939 60.2203 70.9077C60.2517 70.8764 60.2897 70.8607 60.3344 70.8607H63.7579C63.8071 70.8607 63.8474 70.8764 63.8787 70.9077C63.91 70.939 63.9257 70.9793 63.9257 71.0285V71.5253C63.9257 71.57 63.91 71.6081 63.8787 71.6394C63.8474 71.6707 63.8071 71.6864 63.7579 71.6864H62.5228V75.3985C62.5228 75.4432 62.5071 75.4813 62.4758 75.5126C62.4444 75.5439 62.4042 75.5596 62.3549 75.5596H61.7374ZM65.1036 75.5596C65.0588 75.5596 65.0208 75.5439 64.9895 75.5126C64.9581 75.4813 64.9425 75.4432 64.9425 75.3985V71.0218C64.9425 70.9771 64.9581 70.939 64.9895 70.9077C65.0208 70.8764 65.0588 70.8607 65.1036 70.8607H65.7346C65.7838 70.8607 65.8218 70.8764 65.8487 70.9077C65.88 70.939 65.8957 70.9771 65.8957 71.0218V75.3985C65.8957 75.4432 65.88 75.4813 65.8487 75.5126C65.8218 75.5439 65.7838 75.5596 65.7346 75.5596H65.1036ZM66.9954 75.5596C66.9596 75.5596 66.926 75.5461 66.8947 75.5193C66.8678 75.4924 66.8544 75.4589 66.8544 75.4186C66.8544 75.4007 66.8589 75.3806 66.8678 75.3582L68.4856 71.0285C68.499 70.9838 68.5236 70.9457 68.5594 70.9144C68.5997 70.8786 68.6534 70.8607 68.7205 70.8607H69.4522C69.5193 70.8607 69.5708 70.8786 69.6066 70.9144C69.6424 70.9457 69.6692 70.9838 69.6871 71.0285L71.3049 75.3582C71.3094 75.3806 71.3116 75.4007 71.3116 75.4186C71.3116 75.4589 71.2982 75.4924 71.2713 75.5193C71.2445 75.5461 71.2132 75.5596 71.1774 75.5596H70.5934C70.5307 75.5596 70.4837 75.5461 70.4524 75.5193C70.4255 75.488 70.4076 75.4589 70.3987 75.432L70.0832 74.6131H68.0895L67.774 75.432C67.7651 75.4589 67.745 75.488 67.7136 75.5193C67.6868 75.5461 67.642 75.5596 67.5794 75.5596H66.9954ZM68.3245 73.8411H69.8482L69.083 71.7669L68.3245 73.8411ZM72.435 75.5596C72.3903 75.5596 72.3522 75.5439 72.3209 75.5126C72.2896 75.4813 72.2739 75.4432 72.2739 75.3985V71.0218C72.2739 70.9771 72.2896 70.939 72.3209 70.9077C72.3522 70.8764 72.3903 70.8607 72.435 70.8607H73.0593C73.1041 70.8607 73.1421 70.8764 73.1734 70.9077C73.2047 70.939 73.2204 70.9771 73.2204 71.0218V74.7608H75.3483C75.3975 74.7608 75.4378 74.7764 75.4691 74.8078C75.5005 74.8391 75.5161 74.8794 75.5161 74.9286V75.3985C75.5161 75.4432 75.5005 75.4813 75.4691 75.5126C75.4378 75.5439 75.3975 75.5596 75.3483 75.5596H72.435Z" fill="#3F3F3F" fill-opacity="0.6"/>
</svg>
