<svg width="97" height="95" fill="none" xmlns="http://www.w3.org/2000/svg"><path d="M88.89 72.257a3.119 3.119 0 0 0 1.559-2.7V25.878a3.119 3.119 0 0 0-1.56-2.7L51.065 1.341a3.119 3.119 0 0 0-3.119 0L10.122 23.177a3.119 3.119 0 0 0-1.56 2.701v43.679c0 1.114.595 2.143 1.56 2.7L47.946 94.1a3.119 3.119 0 0 0 3.12 0L88.89 72.257z" fill="#ECECEC"/><path d="M96 34.67H1l2.985 12.047L1 58.77h95l-2.985-12.053L96 34.671z" fill="#C6C6C6" stroke="#fff" stroke-width=".936" stroke-miterlimit="10"/><path d="M27.9 54.059a.487.487 0 0 1-.36-.14.487.487 0 0 1-.14-.36v-13c0-.147.047-.267.14-.36a.487.487 0 0 1 .36-.14h2.12c.227 0 .387.053.48.16a.879.879 0 0 1 .2.22l4.88 7.7v-7.58c0-.147.047-.267.14-.36a.487.487 0 0 1 .36-.14h2.4c.147 0 .267.046.36.14.093.093.14.213.14.36v13a.533.533 0 0 1-.14.36.487.487 0 0 1-.36.14h-2.14c-.213 0-.373-.054-.48-.16a2.718 2.718 0 0 1-.18-.22l-4.88-7.4v7.28a.487.487 0 0 1-.14.36.487.487 0 0 1-.36.14h-2.4zm15.375 0a.487.487 0 0 1-.36-.14.487.487 0 0 1-.14-.36v-13c0-.147.047-.267.14-.36a.487.487 0 0 1 .36-.14h5.2c1.307 0 2.42.213 3.34.64.92.413 1.627 1.026 2.12 1.84.493.8.76 1.793.8 2.98.013.586.02 1.1.02 1.54 0 .44-.007.946-.02 1.52-.053 1.24-.32 2.266-.8 3.08-.467.813-1.153 1.42-2.06 1.82-.893.386-1.993.58-3.3.58h-5.3zm3.08-2.88h2.12c.573 0 1.047-.087 1.42-.26.387-.187.673-.474.86-.86.2-.387.307-.894.32-1.52.027-.387.04-.734.04-1.04.013-.307.013-.614 0-.92a14.4 14.4 0 0 0-.04-1.02c-.027-.907-.267-1.567-.72-1.98-.44-.427-1.1-.64-1.98-.64h-2.02v8.24zm10.643 2.88a.454.454 0 0 1-.3-.12.453.453 0 0 1-.12-.3c0-.067.007-.127.02-.18l4.7-12.84a.773.773 0 0 1 .24-.38c.134-.12.314-.18.54-.18h2.96c.227 0 .4.06.52.18.134.106.22.233.26.38l4.68 12.84c.027.053.04.113.04.18a.42.42 0 0 1-.14.3c-.08.08-.18.12-.3.12h-2.46c-.2 0-.353-.047-.46-.14a.88.88 0 0 1-.18-.28l-.78-2.04h-5.34l-.76 2.04a.877.877 0 0 1-.18.28c-.093.093-.253.14-.48.14h-2.46zm4.7-5.34h3.72l-1.88-5.28-1.84 5.28zM33.734 29.903a.278.278 0 0 1-.192-.064.393.393 0 0 1-.088-.176l-.952-5.128a.088.088 0 0 0-.008-.04v-.024c0-.048.016-.088.048-.12a.182.182 0 0 1 .12-.048h.704c.133 0 .208.054.224.16l.664 3.624.72-2.344a.424.424 0 0 1 .08-.128c.042-.048.104-.072.184-.072h.432c.085 0 .146.024.184.072a.311.311 0 0 1 .072.128l.728 2.336.664-3.616c.016-.106.09-.16.224-.16h.704c.042 0 .08.016.112.048a.163.163 0 0 1 .048.12v.024a.13.13 0 0 1-.008.04l-.952 5.128a.308.308 0 0 1-.088.176.278.278 0 0 1-.192.064h-.536a.278.278 0 0 1-.192-.064.35.35 0 0 1-.088-.136l-.896-2.672-.896 2.672a.452.452 0 0 1-.096.136c-.043.043-.107.064-.192.064h-.536zm6.203 0a.185.185 0 0 1-.136-.056.185.185 0 0 1-.056-.136v-5.208c0-.058.019-.106.056-.144a.185.185 0 0 1 .136-.056h3.52c.059 0 .107.019.144.056a.195.195 0 0 1 .056.144v.528a.185.185 0 0 1-.056.136.195.195 0 0 1-.144.056h-2.632v1.416h2.456c.059 0 .107.019.144.056a.17.17 0 0 1 .056.136v.496a.195.195 0 0 1-.056.144.213.213 0 0 1-.144.048h-2.456v1.464h2.696c.059 0 .107.019.144.056a.195.195 0 0 1 .056.144v.528a.185.185 0 0 1-.056.136.195.195 0 0 1-.144.056h-3.584zm9.357.08c-.496 0-.912-.072-1.248-.216-.33-.149-.584-.341-.76-.576-.17-.24-.262-.49-.272-.752a.163.163 0 0 1 .168-.168h.712c.07 0 .12.016.152.048.037.027.07.062.096.104a.843.843 0 0 0 .184.304c.09.096.213.176.368.24.16.064.36.096.6.096.384 0 .67-.064.856-.192a.595.595 0 0 0 .288-.52.47.47 0 0 0-.152-.368c-.102-.096-.259-.181-.472-.256a7.208 7.208 0 0 0-.832-.248c-.4-.096-.736-.21-1.008-.344a1.59 1.59 0 0 1-.608-.52c-.134-.208-.2-.472-.2-.792 0-.309.082-.584.248-.824.17-.24.41-.429.72-.568.314-.138.688-.208 1.12-.208.346 0 .653.048.92.144.266.091.488.214.664.368.176.15.31.312.4.488.096.171.146.339.152.504a.181.181 0 0 1-.048.12c-.027.032-.067.048-.12.048h-.744a.283.283 0 0 1-.128-.032.235.235 0 0 1-.104-.12c-.032-.165-.136-.306-.312-.424-.176-.117-.403-.176-.68-.176-.288 0-.52.054-.696.16-.176.107-.264.272-.264.496 0 .15.042.275.128.376.09.096.232.182.424.256.197.075.456.155.776.24.453.102.824.219 1.112.352.288.134.498.304.632.512.133.203.2.462.2.776 0 .352-.096.654-.288.904-.187.246-.45.435-.792.568-.342.134-.739.2-1.192.2zm3.78-.08a.185.185 0 0 1-.135-.056.185.185 0 0 1-.056-.136v-5.216c0-.053.018-.098.056-.136a.185.185 0 0 1 .136-.056h.752a.17.17 0 0 1 .136.056.185.185 0 0 1 .056.136v5.216a.185.185 0 0 1-.056.136.17.17 0 0 1-.136.056h-.752zm4.775.08c-.49 0-.91-.085-1.256-.256a1.906 1.906 0 0 1-.8-.736c-.186-.325-.288-.712-.304-1.16a31.937 31.937 0 0 1 0-1.488c.016-.442.118-.821.304-1.136.192-.314.462-.557.808-.728.352-.17.768-.256 1.248-.256.39 0 .73.054 1.024.16.294.102.536.235.728.4.198.16.344.334.44.52.102.187.155.36.16.52a.14.14 0 0 1-.04.12.173.173 0 0 1-.128.048h-.824c-.053 0-.093-.01-.12-.032a.283.283 0 0 1-.072-.096 1.129 1.129 0 0 0-.2-.328 1.051 1.051 0 0 0-.368-.28 1.385 1.385 0 0 0-.6-.112c-.362 0-.653.096-.872.288-.213.192-.328.51-.344.952-.016.464-.016.934 0 1.408.016.454.134.779.352.976.224.198.518.296.88.296.24 0 .454-.042.64-.128a.96.96 0 0 0 .448-.4c.112-.181.168-.413.168-.696v-.248h-.976a.185.185 0 0 1-.136-.056.195.195 0 0 1-.056-.144v-.424c0-.058.019-.106.056-.144a.185.185 0 0 1 .136-.056h1.912a.17.17 0 0 1 .136.056.195.195 0 0 1 .056.144v.84c0 .448-.098.835-.296 1.16-.192.326-.47.576-.832.752-.357.176-.781.264-1.272.264zm4.018-.08a.185.185 0 0 1-.136-.056.185.185 0 0 1-.056-.136v-5.208c0-.058.018-.106.056-.144a.185.185 0 0 1 .136-.056h.616c.074 0 .128.019.16.056a.44.44 0 0 1 .072.072l2.304 3.584v-3.512c0-.058.016-.106.048-.144a.195.195 0 0 1 .144-.056h.672c.058 0 .106.019.144.056a.195.195 0 0 1 .056.144v5.2a.195.195 0 0 1-.056.144.185.185 0 0 1-.136.056h-.624c-.075 0-.128-.018-.16-.056a.44.44 0 0 0-.072-.072l-2.296-3.504v3.44a.185.185 0 0 1-.056.136.195.195 0 0 1-.144.056h-.672z" fill="#3F3F3F" fill-opacity=".7"/><path d="M49.217 12.685a.337.337 0 0 1 .582 0l1.07 1.835c.048.081.127.14.22.16l2.078.448a.337.337 0 0 1 .18.553l-1.417 1.583a.335.335 0 0 0-.084.257l.214 2.113a.335.335 0 0 1-.299.368.337.337 0 0 1-.171-.027l-1.947-.856a.336.336 0 0 0-.271 0l-1.946.856a.337.337 0 0 1-.47-.341l.214-2.113a.334.334 0 0 0-.084-.257l-1.417-1.583a.336.336 0 0 1 .18-.553l2.078-.449a.337.337 0 0 0 .22-.16l1.07-1.834zm9.398 1.565a.337.337 0 0 1 .582 0l.563.966a.338.338 0 0 0 .22.16l1.094.236a.337.337 0 0 1 .18.553l-.745.833a.335.335 0 0 0-.085.258l.113 1.112a.337.337 0 0 1-.47.341l-1.025-.45a.336.336 0 0 0-.272 0l-1.025.45a.337.337 0 0 1-.47-.341l.113-1.112a.333.333 0 0 0-.084-.258l-.746-.833a.335.335 0 0 1 .18-.553l1.094-.236a.34.34 0 0 0 .22-.16l.563-.966zm-18.808 0a.337.337 0 0 1 .582 0l.563.966a.34.34 0 0 0 .22.16l1.095.236a.337.337 0 0 1 .18.553l-.747.833a.334.334 0 0 0-.084.258l.113 1.112a.336.336 0 0 1-.471.341l-1.024-.45a.335.335 0 0 0-.272 0l-1.024.45a.336.336 0 0 1-.472-.341l.114-1.112a.334.334 0 0 0-.085-.258l-.745-.833a.336.336 0 0 1 .18-.553l1.094-.236a.339.339 0 0 0 .22-.16l.563-.966z" fill="#9B9B9B"/><path d="M41.177 67.56a.2.2 0 0 1-.135-.053.183.183 0 0 1-.053-.135v-3.57l-1.027.788a.17.17 0 0 1-.143.037.21.21 0 0 1-.12-.082l-.442-.578a.213.213 0 0 1-.038-.142.181.181 0 0 1 .09-.128l1.725-1.335a.237.237 0 0 1 .083-.037.307.307 0 0 1 .097-.015h.938c.05 0 .092.017.127.052.04.035.06.08.06.135v4.875c0 .055-.02.1-.06.135a.174.174 0 0 1-.127.053h-.975zm4.568.075c-.36 0-.673-.05-.938-.15a1.861 1.861 0 0 1-.66-.428c-.17-.18-.3-.39-.39-.63a2.589 2.589 0 0 1-.157-.772l-.015-.458v-.525l.015-.48c.015-.275.067-.53.157-.765.095-.24.23-.447.405-.622.18-.18.4-.32.66-.42.265-.1.573-.15.923-.15.355 0 .662.05.922.15.26.1.478.24.653.42.18.175.317.382.412.622.095.235.148.49.158.765.01.14.015.3.015.48.005.175.005.35 0 .525 0 .17-.005.323-.015.458-.01.275-.063.532-.158.772a1.8 1.8 0 0 1-1.05 1.058c-.26.1-.572.15-.937.15zm0-1.088c.26 0 .447-.082.562-.247.12-.17.183-.398.188-.683.01-.145.015-.297.015-.457.005-.16.005-.32 0-.48 0-.16-.005-.308-.015-.443-.005-.275-.068-.497-.188-.667-.115-.17-.302-.258-.562-.263-.26.005-.448.093-.563.263-.115.17-.177.392-.187.667l-.015.443v.48l.015.457c.01.285.075.513.195.683.12.165.305.247.555.247zm5.473 1.088c-.36 0-.673-.05-.938-.15a1.861 1.861 0 0 1-.66-.428c-.17-.18-.3-.39-.39-.63a2.589 2.589 0 0 1-.157-.772l-.016-.458v-.525l.015-.48c.015-.275.068-.53.158-.765.095-.24.23-.447.405-.622.18-.18.4-.32.66-.42.265-.1.572-.15.922-.15.355 0 .663.05.923.15.26.1.477.24.652.42.18.175.318.382.413.622.095.235.148.49.157.765.01.14.015.3.015.48.005.175.005.35 0 .525 0 .17-.005.323-.015.458-.01.275-.062.532-.157.772a1.8 1.8 0 0 1-1.05 1.058c-.26.1-.572.15-.938.15zm0-1.088c.26 0 .447-.082.562-.247.12-.17.182-.398.188-.683.01-.145.014-.297.014-.457.005-.16.005-.32 0-.48 0-.16-.005-.308-.014-.443-.006-.275-.068-.497-.188-.667-.115-.17-.303-.258-.563-.263-.26.005-.447.093-.562.263-.115.17-.178.392-.188.667-.005.135-.01.283-.014.443v.48l.014.457c.01.285.075.513.196.683.12.165.305.247.555.247zm3.77 1.013c-.115 0-.173-.05-.173-.15 0-.03.01-.058.03-.083l3.705-4.875a.52.52 0 0 1 .105-.105.271.271 0 0 1 .158-.037h.532c.115 0 .173.05.173.15a.13.13 0 0 1-.03.082l-3.705 4.875a.52.52 0 0 1-.105.105.271.271 0 0 1-.158.038h-.532zm3.772.037c-.34 0-.612-.09-.817-.27-.2-.18-.313-.42-.338-.72a9.093 9.093 0 0 1 0-.705c.02-.305.128-.547.323-.727.2-.185.477-.278.832-.278.36 0 .638.093.833.278.195.18.302.422.322.727.01.14.015.26.015.36 0 .1-.005.215-.015.345-.02.3-.132.54-.337.72-.205.18-.478.27-.818.27zm0-.66a.312.312 0 0 0 .308-.187.483.483 0 0 0 .037-.188 3.41 3.41 0 0 0 0-.623.498.498 0 0 0-.082-.254c-.05-.08-.138-.12-.263-.12s-.212.04-.262.12a.498.498 0 0 0-.083.255 6.8 6.8 0 0 0 0 .622.78.78 0 0 0 .038.188c.025.055.062.1.112.135s.115.052.195.052zm-3.172-1.98c-.345 0-.62-.087-.825-.262-.2-.18-.31-.42-.33-.72a4.483 4.483 0 0 1-.015-.338l.015-.36c.015-.305.12-.547.315-.727.2-.185.48-.278.84-.278s.637.093.832.278c.195.18.3.422.315.727.01.14.015.26.015.36 0 .095-.005.208-.015.338a.98.98 0 0 1-.33.72c-.205.175-.477.262-.817.262zm0-.645c.08 0 .145-.017.195-.052a.385.385 0 0 0 .112-.143.465.465 0 0 0 .038-.18 3.41 3.41 0 0 0 0-.623.463.463 0 0 0-.09-.254c-.05-.08-.135-.12-.255-.12-.125 0-.215.04-.27.12a.498.498 0 0 0-.083.255 6.8 6.8 0 0 0 0 .622.77.77 0 0 0 .038.18.385.385 0 0 0 .112.143c.05.035.118.052.203.052zm-29.6 11.315c-.415 0-.769-.072-1.06-.215a1.557 1.557 0 0 1-.658-.624 2.202 2.202 0 0 1-.255-.98 24.166 24.166 0 0 1 0-1.195c.018-.376.103-.7.255-.974.157-.273.378-.48.665-.624.29-.148.642-.221 1.054-.221.304 0 .577.04.819.12.241.081.447.193.617.336.17.139.302.302.396.49.094.188.143.392.148.61a.11.11 0 0 1-.04.102.136.136 0 0 1-.101.04h-.638a.203.203 0 0 1-.12-.034.23.23 0 0 1-.068-.127c-.071-.296-.194-.497-.369-.604a1.22 1.22 0 0 0-.651-.162c-.3 0-.54.086-.718.256-.18.165-.276.44-.289.825-.013.367-.013.743 0 1.128.013.385.11.662.289.832.179.166.418.249.718.249.26 0 .477-.054.651-.161.175-.112.298-.314.37-.605.013-.062.035-.105.066-.127a.203.203 0 0 1 .121-.034h.638c.04 0 .074.014.1.04a.11.11 0 0 1 .04.101c-.004.22-.053.423-.147.611a1.555 1.555 0 0 1-.396.497c-.17.139-.376.248-.617.329-.242.08-.515.12-.82.12zm4.918 0c-.398 0-.74-.065-1.027-.195a1.503 1.503 0 0 1-.671-.61c-.161-.278-.248-.623-.262-1.035a24.4 24.4 0 0 1 0-1.147c.014-.408.103-.748.269-1.02.165-.274.391-.48.678-.618a2.33 2.33 0 0 1 1.013-.208c.385 0 .723.069 1.014.208.29.138.519.344.685.617.165.273.255.613.268 1.02a12.644 12.644 0 0 1 0 1.148c-.013.412-.1.757-.262 1.034a1.497 1.497 0 0 1-.678.611c-.286.13-.628.195-1.027.195zm0-.772c.291 0 .528-.085.712-.255.183-.175.282-.457.295-.846a11.969 11.969 0 0 0 0-1.088c-.009-.26-.058-.47-.148-.63a.769.769 0 0 0-.349-.356 1.099 1.099 0 0 0-.51-.115c-.188 0-.355.039-.503.115a.804.804 0 0 0-.356.355c-.085.162-.132.372-.14.631a23.877 23.877 0 0 0 0 1.088c.013.39.111.671.294.846.184.17.419.255.705.255zm3.359.705a.155.155 0 0 1-.114-.047.155.155 0 0 1-.047-.115v-4.37c0-.049.015-.089.047-.12a.155.155 0 0 1 .114-.047h.517c.062 0 .107.015.134.047a.373.373 0 0 1 .06.06l1.934 3.007v-2.947c0-.049.013-.089.04-.12a.164.164 0 0 1 .12-.047h.565c.049 0 .089.015.12.047a.164.164 0 0 1 .047.12v4.364c0 .049-.015.09-.047.12a.155.155 0 0 1-.114.048h-.523c-.063 0-.108-.016-.135-.047a.364.364 0 0 0-.06-.06l-1.927-2.941v2.886a.155.155 0 0 1-.047.115.164.164 0 0 1-.12.047h-.564zm5.081 0a.155.155 0 0 1-.114-.047.155.155 0 0 1-.047-.115v-4.37c0-.049.016-.089.047-.12a.155.155 0 0 1 .114-.047h2.914c.049 0 .09.015.12.047a.163.163 0 0 1 .047.12v.47c0 .05-.015.09-.047.121a.179.179 0 0 1-.12.04h-2.155v1.276h2.02c.05 0 .09.016.121.047a.164.164 0 0 1 .047.12v.47a.155.155 0 0 1-.047.115.163.163 0 0 1-.12.047h-2.021v1.665a.155.155 0 0 1-.047.114.164.164 0 0 1-.12.047h-.592zm4.368 0a.155.155 0 0 1-.114-.047.155.155 0 0 1-.047-.115v-4.376c0-.045.015-.083.047-.114a.155.155 0 0 1 .114-.047h.63c.05 0 .088.015.115.047.031.031.047.07.047.114v4.376a.155.155 0 0 1-.047.115.142.142 0 0 1-.114.047h-.631zm2.341 0a.155.155 0 0 1-.114-.047.155.155 0 0 1-.047-.115v-4.37c0-.049.016-.089.047-.12a.155.155 0 0 1 .114-.047h1.638c.452 0 .823.07 1.114.208.296.138.517.344.665.617.152.273.23.607.235 1a11.166 11.166 0 0 1 0 1.04c-.01.417-.085.762-.228 1.035a1.36 1.36 0 0 1-.652.604c-.286.13-.653.195-1.1.195h-1.672zm.772-.772h.866c.25 0 .454-.036.61-.108a.672.672 0 0 0 .343-.342c.076-.161.117-.372.121-.631.005-.134.007-.25.007-.35a3.38 3.38 0 0 0 0-.301c0-.103-.002-.22-.007-.35-.009-.366-.1-.637-.275-.812-.175-.174-.452-.261-.833-.261h-.832v3.155zm4.284.772a.155.155 0 0 1-.114-.047.155.155 0 0 1-.047-.115v-4.37c0-.049.015-.089.046-.12a.155.155 0 0 1 .115-.047h2.953c.05 0 .09.015.121.047a.164.164 0 0 1 .047.12v.444a.155.155 0 0 1-.047.114.164.164 0 0 1-.12.047h-2.21v1.188h2.062c.049 0 .089.016.12.047a.142.142 0 0 1 .047.114v.416c0 .05-.015.09-.047.12a.179.179 0 0 1-.12.041h-2.061v1.229h2.262c.05 0 .09.015.12.047a.164.164 0 0 1 .048.12v.444a.155.155 0 0 1-.047.114.164.164 0 0 1-.121.047H51.11zm4.511 0a.156.156 0 0 1-.114-.047.155.155 0 0 1-.047-.115v-4.37c0-.049.016-.089.047-.12a.156.156 0 0 1 .114-.047h.517c.063 0 .107.015.134.047a.373.373 0 0 1 .06.06l1.934 3.007v-2.947c0-.049.013-.089.04-.12a.164.164 0 0 1 .12-.047h.565c.049 0 .09.015.12.047a.163.163 0 0 1 .047.12v4.364c0 .049-.015.09-.047.12a.155.155 0 0 1-.114.048h-.523c-.063 0-.108-.016-.134-.047a.369.369 0 0 0-.06-.06l-1.927-2.941v2.886a.155.155 0 0 1-.047.115.164.164 0 0 1-.121.047h-.564zm6.115 0a.155.155 0 0 1-.114-.047.155.155 0 0 1-.047-.115v-3.712h-1.242a.156.156 0 0 1-.114-.047.155.155 0 0 1-.047-.114v-.497c0-.049.016-.089.047-.12a.156.156 0 0 1 .114-.047h3.424c.05 0 .09.015.12.047a.164.164 0 0 1 .048.12v.497a.155.155 0 0 1-.047.114.164.164 0 0 1-.121.047h-1.235v3.712a.155.155 0 0 1-.047.115.164.164 0 0 1-.121.047h-.618zm3.367 0a.155.155 0 0 1-.114-.047.155.155 0 0 1-.047-.115v-4.376c0-.045.015-.083.047-.114a.155.155 0 0 1 .114-.047h.63c.05 0 .088.015.115.047.031.031.047.07.047.114v4.376a.155.155 0 0 1-.047.115.142.142 0 0 1-.114.047h-.631zm1.891 0a.152.152 0 0 1-.1-.04.137.137 0 0 1-.04-.101c0-.018.004-.038.013-.06l1.618-4.33a.234.234 0 0 1 .235-.168h.731c.067 0 .119.018.155.053.035.032.062.07.08.114l1.618 4.33a.31.31 0 0 1 .007.06c0 .04-.014.074-.04.101a.129.129 0 0 1-.095.04h-.584c-.062 0-.11-.013-.14-.04a.269.269 0 0 1-.054-.087l-.316-.819H68.09l-.316.819a.235.235 0 0 1-.06.087c-.027.027-.072.04-.135.04h-.584zm1.33-1.719h1.523l-.765-2.074-.758 2.074zm4.11 1.719a.155.155 0 0 1-.114-.047.155.155 0 0 1-.047-.115v-4.376c0-.045.016-.083.047-.114a.155.155 0 0 1 .114-.047h.624c.045 0 .083.015.114.047.032.031.047.07.047.114v3.739h2.128c.05 0 .09.015.121.047a.163.163 0 0 1 .047.12v.47a.155.155 0 0 1-.047.115.164.164 0 0 1-.12.047h-2.914z" fill="#3F3F3F" fill-opacity=".6"/></svg>