<svg xmlns="http://www.w3.org/2000/svg" xmlns:xlink="http://www.w3.org/1999/xlink" width="230" zoomAndPan="magnify" viewBox="0 0 172.5 167.249994" height="223" preserveAspectRatio="xMidYMid meet" version="1.0"><defs><clipPath id="6d5cff5160"><path d="M 10.554688 71 L 40 71 L 40 156.71875 L 10.554688 156.71875 Z M 10.554688 71 " clip-rule="nonzero"/></clipPath><clipPath id="5dfbb4b0b2"><path d="M 47 94 L 77 94 L 77 156.71875 L 47 156.71875 Z M 47 94 " clip-rule="nonzero"/></clipPath><clipPath id="266c9f4cef"><path d="M 83 112 L 113 112 L 113 156.71875 L 83 156.71875 Z M 83 112 " clip-rule="nonzero"/></clipPath><clipPath id="1af1937be1"><path d="M 120 129 L 150 129 L 150 156.71875 L 120 156.71875 Z M 120 129 " clip-rule="nonzero"/></clipPath><clipPath id="79be3c563d"><path d="M 87 24.5625 L 161.378906 24.5625 L 161.378906 94 L 87 94 Z M 87 24.5625 " clip-rule="nonzero"/></clipPath></defs><g clip-path="url(#6d5cff5160)"><path fill="#204ecf" d="M 38.476562 71.257812 L 12.066406 71.257812 C 11.898438 71.257812 11.738281 71.289062 11.585938 71.351562 C 11.433594 71.417969 11.296875 71.507812 11.179688 71.625 C 11.0625 71.742188 10.972656 71.875 10.910156 72.03125 C 10.847656 72.183594 10.8125 72.34375 10.8125 72.507812 L 10.8125 155.398438 C 10.8125 155.5625 10.84375 155.722656 10.910156 155.875 C 10.972656 156.027344 11.0625 156.164062 11.179688 156.28125 C 11.296875 156.398438 11.433594 156.488281 11.585938 156.554688 C 11.738281 156.617188 11.898438 156.648438 12.066406 156.648438 L 38.476562 156.648438 C 38.640625 156.648438 38.800781 156.617188 38.953125 156.554688 C 39.109375 156.488281 39.242188 156.398438 39.359375 156.28125 C 39.476562 156.164062 39.570312 156.027344 39.632812 155.875 C 39.695312 155.722656 39.726562 155.5625 39.726562 155.398438 L 39.726562 72.507812 C 39.726562 72.34375 39.695312 72.183594 39.632812 72.03125 C 39.566406 71.875 39.476562 71.742188 39.359375 71.625 C 39.242188 71.507812 39.109375 71.417969 38.953125 71.351562 C 38.800781 71.289062 38.640625 71.257812 38.476562 71.257812 Z M 37.222656 154.144531 L 13.316406 154.144531 L 13.316406 73.761719 L 37.222656 73.761719 Z M 37.222656 154.144531 " fill-opacity="1" fill-rule="nonzero"/></g><g clip-path="url(#5dfbb4b0b2)"><path fill="#204ecf" d="M 75.042969 94.011719 L 48.632812 94.011719 C 48.46875 94.011719 48.308594 94.042969 48.15625 94.105469 C 48 94.167969 47.867188 94.257812 47.75 94.375 C 47.632812 94.492188 47.539062 94.628906 47.476562 94.78125 C 47.414062 94.9375 47.382812 95.097656 47.382812 95.261719 L 47.382812 155.398438 C 47.382812 155.5625 47.414062 155.722656 47.476562 155.875 C 47.539062 156.027344 47.632812 156.164062 47.75 156.28125 C 47.867188 156.398438 48 156.488281 48.15625 156.554688 C 48.308594 156.617188 48.46875 156.648438 48.632812 156.648438 L 75.042969 156.648438 C 75.210938 156.648438 75.371094 156.617188 75.523438 156.554688 C 75.675781 156.488281 75.8125 156.398438 75.929688 156.28125 C 76.046875 156.164062 76.136719 156.027344 76.199219 155.875 C 76.261719 155.722656 76.296875 155.5625 76.296875 155.398438 L 76.296875 95.261719 C 76.296875 95.097656 76.261719 94.9375 76.199219 94.78125 C 76.136719 94.628906 76.046875 94.496094 75.929688 94.375 C 75.8125 94.257812 75.675781 94.167969 75.523438 94.105469 C 75.371094 94.042969 75.210938 94.011719 75.042969 94.011719 Z M 73.792969 154.144531 L 49.886719 154.144531 L 49.886719 96.511719 L 73.792969 96.511719 Z M 73.792969 154.144531 " fill-opacity="1" fill-rule="nonzero"/></g><g clip-path="url(#266c9f4cef)"><path fill="#204ecf" d="M 111.613281 112.703125 L 85.203125 112.703125 C 85.035156 112.703125 84.875 112.734375 84.722656 112.796875 C 84.570312 112.859375 84.433594 112.949219 84.316406 113.066406 C 84.199219 113.183594 84.109375 113.320312 84.046875 113.472656 C 83.980469 113.628906 83.949219 113.785156 83.949219 113.953125 L 83.949219 155.398438 C 83.949219 155.5625 83.980469 155.722656 84.046875 155.875 C 84.109375 156.027344 84.199219 156.164062 84.316406 156.28125 C 84.433594 156.398438 84.570312 156.488281 84.722656 156.554688 C 84.875 156.617188 85.035156 156.648438 85.203125 156.648438 L 111.613281 156.648438 C 111.777344 156.648438 111.9375 156.617188 112.089844 156.554688 C 112.246094 156.488281 112.378906 156.398438 112.496094 156.28125 C 112.613281 156.164062 112.703125 156.027344 112.769531 155.875 C 112.832031 155.722656 112.863281 155.5625 112.863281 155.398438 L 112.863281 113.953125 C 112.863281 113.785156 112.832031 113.628906 112.769531 113.472656 C 112.703125 113.320312 112.613281 113.183594 112.496094 113.066406 C 112.378906 112.949219 112.246094 112.859375 112.089844 112.796875 C 111.9375 112.734375 111.777344 112.703125 111.613281 112.703125 Z M 110.359375 154.144531 L 86.453125 154.144531 L 86.453125 115.203125 L 110.359375 115.203125 Z M 110.359375 154.144531 " fill-opacity="1" fill-rule="nonzero"/></g><g clip-path="url(#1af1937be1)"><path fill="#204ecf" d="M 148.179688 129.003906 L 121.769531 129.003906 C 121.601562 129.003906 121.445312 129.035156 121.289062 129.101562 C 121.136719 129.164062 121 129.253906 120.882812 129.371094 C 120.765625 129.488281 120.675781 129.625 120.613281 129.777344 C 120.550781 129.929688 120.519531 130.089844 120.519531 130.257812 L 120.519531 155.398438 C 120.519531 155.5625 120.550781 155.722656 120.613281 155.875 C 120.675781 156.027344 120.765625 156.164062 120.882812 156.28125 C 121 156.398438 121.136719 156.488281 121.289062 156.554688 C 121.445312 156.617188 121.601562 156.648438 121.769531 156.648438 L 148.179688 156.648438 C 148.34375 156.648438 148.503906 156.617188 148.660156 156.554688 C 148.8125 156.488281 148.945312 156.398438 149.066406 156.28125 C 149.183594 156.164062 149.273438 156.027344 149.335938 155.875 C 149.398438 155.722656 149.429688 155.5625 149.429688 155.398438 L 149.429688 130.257812 C 149.429688 130.089844 149.398438 129.929688 149.335938 129.777344 C 149.273438 129.625 149.183594 129.488281 149.066406 129.371094 C 148.945312 129.253906 148.8125 129.164062 148.660156 129.101562 C 148.503906 129.035156 148.34375 129.003906 148.179688 129.003906 Z M 146.929688 154.144531 L 123.019531 154.144531 L 123.019531 131.507812 L 146.929688 131.507812 Z M 146.929688 154.144531 " fill-opacity="1" fill-rule="nonzero"/></g><path fill="#204ecf" d="M 124.261719 58 C 124.144531 54.328125 121.003906 50.371094 114.429688 50.136719 C 114.394531 50.136719 114.363281 50.117188 114.328125 50.117188 C 109.042969 50.078125 106.589844 47.34375 106.503906 44.65625 C 106.425781 42.292969 108.199219 39.617188 112.28125 39.320312 C 121.835938 38.613281 122.484375 45.796875 122.511719 46.121094 C 122.523438 46.285156 122.566406 46.441406 122.640625 46.589844 C 122.710938 46.738281 122.8125 46.867188 122.9375 46.976562 C 123.0625 47.085938 123.203125 47.167969 123.359375 47.21875 C 123.519531 47.273438 123.679688 47.292969 123.84375 47.28125 C 124.011719 47.273438 124.167969 47.230469 124.316406 47.15625 C 124.464844 47.082031 124.59375 46.980469 124.703125 46.855469 C 124.8125 46.730469 124.890625 46.589844 124.945312 46.433594 C 125 46.277344 125.019531 46.113281 125.007812 45.949219 C 124.871094 44.691406 124.511719 43.496094 123.929688 42.371094 C 123.351562 41.242188 122.585938 40.257812 121.640625 39.414062 C 119.933594 37.984375 117.972656 37.152344 115.753906 36.921875 L 115.753906 34.683594 C 115.753906 34.515625 115.722656 34.359375 115.660156 34.203125 C 115.597656 34.050781 115.507812 33.914062 115.386719 33.796875 C 115.269531 33.679688 115.136719 33.589844 114.984375 33.527344 C 114.828125 33.464844 114.667969 33.433594 114.503906 33.433594 C 114.335938 33.433594 114.179688 33.464844 114.023438 33.527344 C 113.871094 33.589844 113.734375 33.679688 113.617188 33.796875 C 113.5 33.914062 113.410156 34.050781 113.347656 34.203125 C 113.285156 34.359375 113.253906 34.515625 113.253906 34.683594 L 113.253906 36.777344 C 112.875 36.785156 112.492188 36.792969 112.101562 36.820312 C 106.628906 37.222656 103.882812 41.105469 104 44.738281 C 104.121094 48.40625 107.257812 52.363281 113.835938 52.597656 C 113.871094 52.601562 113.898438 52.621094 113.933594 52.621094 C 119.222656 52.660156 121.675781 55.394531 121.761719 58.082031 C 121.839844 60.445312 120.0625 63.121094 115.984375 63.417969 C 106.457031 64.113281 105.78125 56.941406 105.753906 56.617188 C 105.742188 56.453125 105.699219 56.296875 105.625 56.148438 C 105.554688 56 105.453125 55.871094 105.328125 55.761719 C 105.203125 55.652344 105.0625 55.570312 104.90625 55.519531 C 104.746094 55.464844 104.585938 55.445312 104.421875 55.457031 C 104.253906 55.46875 104.097656 55.507812 103.949219 55.582031 C 103.800781 55.65625 103.671875 55.757812 103.5625 55.882812 C 103.453125 56.007812 103.375 56.148438 103.320312 56.304688 C 103.265625 56.460938 103.246094 56.625 103.257812 56.789062 C 103.394531 58.046875 103.753906 59.242188 104.335938 60.367188 C 104.914062 61.496094 105.679688 62.480469 106.625 63.324219 C 107.558594 64.101562 108.59375 64.710938 109.726562 65.152344 C 110.863281 65.59375 112.035156 65.84375 113.253906 65.90625 L 113.253906 68.726562 C 113.253906 68.890625 113.285156 69.050781 113.347656 69.203125 C 113.410156 69.359375 113.5 69.492188 113.617188 69.609375 C 113.734375 69.726562 113.871094 69.820312 114.023438 69.882812 C 114.179688 69.945312 114.335938 69.976562 114.503906 69.976562 C 114.667969 69.976562 114.828125 69.945312 114.984375 69.882812 C 115.136719 69.820312 115.269531 69.726562 115.386719 69.609375 C 115.507812 69.492188 115.597656 69.359375 115.660156 69.203125 C 115.722656 69.050781 115.753906 68.890625 115.753906 68.726562 L 115.753906 65.929688 C 115.894531 65.921875 116.023438 65.925781 116.164062 65.914062 C 121.636719 65.515625 124.382812 61.632812 124.261719 58 Z M 124.261719 58 " fill-opacity="1" fill-rule="nonzero"/><path fill="#204ecf" d="M 121.359375 119.804688 L 135.601562 111.582031 C 135.691406 111.527344 135.777344 111.464844 135.855469 111.386719 L 135.859375 111.382812 C 135.960938 111.28125 136.039062 111.164062 136.097656 111.03125 C 136.113281 111 136.125 110.964844 136.136719 110.929688 C 136.257812 110.644531 136.257812 110.355469 136.136719 110.066406 C 136.125 110.03125 136.113281 110 136.097656 109.964844 C 136.039062 109.835938 135.960938 109.71875 135.859375 109.617188 L 135.855469 109.609375 C 135.777344 109.535156 135.691406 109.46875 135.601562 109.414062 L 121.359375 101.195312 C 121.214844 101.113281 121.0625 101.058594 120.898438 101.039062 C 120.734375 101.015625 120.570312 101.027344 120.410156 101.070312 C 120.25 101.113281 120.105469 101.1875 119.972656 101.289062 C 119.84375 101.386719 119.734375 101.511719 119.652344 101.652344 C 119.570312 101.796875 119.519531 101.953125 119.496094 102.117188 C 119.472656 102.28125 119.484375 102.441406 119.527344 102.601562 C 119.570312 102.761719 119.640625 102.90625 119.742188 103.039062 C 119.84375 103.171875 119.964844 103.277344 120.109375 103.363281 L 129.9375 109.035156 C 78.628906 104.796875 26.796875 37.953125 26.261719 37.257812 C 26.164062 37.125 26.039062 37.019531 25.898438 36.9375 C 25.753906 36.851562 25.597656 36.800781 25.433594 36.777344 C 25.269531 36.757812 25.105469 36.765625 24.945312 36.808594 C 24.785156 36.851562 24.640625 36.925781 24.507812 37.027344 C 24.378906 37.128906 24.269531 37.25 24.1875 37.394531 C 24.105469 37.535156 24.050781 37.691406 24.03125 37.855469 C 24.007812 38.019531 24.019531 38.183594 24.0625 38.34375 C 24.105469 38.503906 24.175781 38.648438 24.277344 38.78125 C 26.5 41.679688 77.941406 108.003906 130.582031 111.589844 L 120.109375 117.636719 C 119.964844 117.71875 119.84375 117.828125 119.742188 117.957031 C 119.640625 118.089844 119.570312 118.234375 119.527344 118.394531 C 119.484375 118.554688 119.472656 118.71875 119.496094 118.882812 C 119.515625 119.046875 119.570312 119.203125 119.652344 119.34375 C 119.734375 119.488281 119.84375 119.609375 119.972656 119.710938 C 120.105469 119.8125 120.25 119.886719 120.410156 119.929688 C 120.570312 119.972656 120.734375 119.980469 120.898438 119.960938 C 121.0625 119.9375 121.214844 119.886719 121.359375 119.804688 Z M 121.359375 119.804688 " fill-opacity="1" fill-rule="nonzero"/><g clip-path="url(#79be3c563d)"><path fill="#204ecf" d="M 160.945312 70.027344 C 160.839844 69.808594 160.6875 69.632812 160.480469 69.5 C 160.277344 69.371094 160.050781 69.304688 159.808594 69.300781 L 150.320312 69.300781 L 150.320312 38.277344 C 150.320312 38.113281 150.289062 37.953125 150.226562 37.800781 C 150.164062 37.644531 150.074219 37.511719 149.957031 37.390625 C 149.839844 37.273438 149.703125 37.183594 149.550781 37.121094 C 149.394531 37.058594 149.234375 37.027344 149.070312 37.027344 L 137.28125 37.027344 C 136.652344 36.03125 135.960938 35.078125 135.203125 34.175781 C 133.917969 32.683594 132.488281 31.347656 130.914062 30.164062 C 129.339844 28.980469 127.660156 27.976562 125.871094 27.152344 C 124.082031 26.328125 122.226562 25.703125 120.304688 25.277344 C 118.382812 24.851562 116.4375 24.632812 114.46875 24.625 C 112.683594 24.625 110.917969 24.804688 109.171875 25.164062 C 109.097656 25.160156 109.023438 25.167969 108.949219 25.1875 C 107.453125 25.507812 105.996094 25.953125 104.578125 26.523438 C 103.160156 27.09375 101.796875 27.777344 100.496094 28.578125 C 99.191406 29.378906 97.96875 30.285156 96.820312 31.292969 C 95.667969 32.300781 94.613281 33.402344 93.652344 34.589844 C 92.691406 35.777344 91.835938 37.039062 91.089844 38.371094 C 90.34375 39.707031 89.710938 41.09375 89.203125 42.535156 C 88.691406 43.976562 88.304688 45.449219 88.042969 46.957031 C 87.78125 48.460938 87.652344 49.980469 87.648438 51.507812 C 87.644531 53.039062 87.773438 54.554688 88.027344 56.0625 C 88.285156 57.570312 88.664062 59.046875 89.171875 60.488281 C 89.679688 61.929688 90.300781 63.320312 91.046875 64.65625 C 91.789062 65.992188 92.636719 67.257812 93.597656 68.449219 C 94.554688 69.640625 95.605469 70.742188 96.75 71.753906 C 97.894531 72.769531 99.117188 73.675781 100.417969 74.480469 C 101.71875 75.285156 103.078125 75.976562 104.496094 76.550781 C 105.910156 77.125 107.367188 77.574219 108.859375 77.898438 C 108.945312 77.925781 109.035156 77.9375 109.125 77.9375 L 109.171875 77.9375 C 110.921875 78.292969 112.683594 78.46875 114.46875 78.464844 C 118.160156 78.464844 121.699219 77.742188 125.09375 76.285156 L 139.847656 93.28125 C 139.964844 93.417969 140.101562 93.527344 140.265625 93.601562 C 140.433594 93.679688 140.605469 93.71875 140.785156 93.71875 C 140.964844 93.71875 141.140625 93.679688 141.304688 93.601562 C 141.46875 93.527344 141.609375 93.417969 141.722656 93.28125 L 160.746094 71.367188 C 160.910156 71.183594 161.007812 70.96875 161.042969 70.726562 C 161.082031 70.484375 161.046875 70.25 160.945312 70.027344 Z M 114.46875 75.960938 C 112.816406 75.960938 111.179688 75.792969 109.5625 75.460938 C 109.476562 75.4375 109.386719 75.429688 109.296875 75.433594 L 109.261719 75.433594 C 107.914062 75.132812 106.601562 74.71875 105.320312 74.191406 C 104.042969 73.667969 102.820312 73.039062 101.648438 72.304688 C 100.476562 71.574219 99.375 70.746094 98.34375 69.828125 C 97.3125 68.90625 96.363281 67.910156 95.503906 66.828125 C 94.640625 65.75 93.875 64.605469 93.207031 63.394531 C 92.539062 62.1875 91.976562 60.929688 91.519531 59.625 C 91.066406 58.320312 90.722656 56.988281 90.492188 55.625 C 90.261719 54.261719 90.148438 52.890625 90.152344 51.507812 C 90.152344 50.128906 90.273438 48.753906 90.507812 47.394531 C 90.742188 46.03125 91.089844 44.699219 91.550781 43.398438 C 92.011719 42.09375 92.578125 40.839844 93.25 39.632812 C 93.921875 38.425781 94.691406 37.285156 95.558594 36.207031 C 96.425781 35.132812 97.375 34.136719 98.410156 33.222656 C 99.445312 32.304688 100.550781 31.484375 101.722656 30.753906 C 102.898438 30.027344 104.125 29.402344 105.40625 28.882812 C 106.683594 28.359375 108 27.953125 109.347656 27.652344 C 109.421875 27.65625 109.492188 27.648438 109.5625 27.628906 C 111.179688 27.292969 112.816406 27.128906 114.46875 27.128906 C 116.253906 27.136719 118.023438 27.332031 119.765625 27.71875 C 121.511719 28.105469 123.199219 28.671875 124.820312 29.417969 C 126.445312 30.164062 127.972656 31.074219 129.402344 32.148438 C 130.832031 33.222656 132.132812 34.4375 133.300781 35.789062 C 133.640625 36.1875 133.953125 36.601562 134.253906 37.027344 L 132.5 37.027344 C 132.335938 37.027344 132.175781 37.058594 132.019531 37.121094 C 131.867188 37.183594 131.730469 37.273438 131.613281 37.390625 C 131.496094 37.511719 131.40625 37.644531 131.34375 37.800781 C 131.28125 37.953125 131.25 38.113281 131.25 38.277344 L 131.25 69.300781 L 121.761719 69.300781 C 121.519531 69.304688 121.296875 69.371094 121.089844 69.5 C 120.882812 69.632812 120.730469 69.808594 120.625 70.027344 C 120.523438 70.25 120.492188 70.484375 120.527344 70.726562 C 120.5625 70.96875 120.664062 71.183594 120.824219 71.367188 L 123.351562 74.28125 C 120.496094 75.40625 117.535156 75.964844 114.46875 75.960938 Z M 140.785156 90.550781 L 127.417969 75.160156 L 125.730469 73.207031 L 124.515625 71.804688 L 132.5 71.804688 C 132.667969 71.804688 132.824219 71.773438 132.980469 71.710938 C 133.132812 71.644531 133.265625 71.554688 133.382812 71.4375 C 133.5 71.320312 133.59375 71.183594 133.65625 71.03125 C 133.71875 70.878906 133.75 70.71875 133.753906 70.554688 L 133.753906 39.53125 L 147.820312 39.53125 L 147.820312 70.554688 C 147.820312 70.71875 147.851562 70.878906 147.914062 71.03125 C 147.980469 71.183594 148.070312 71.320312 148.1875 71.4375 C 148.304688 71.554688 148.4375 71.644531 148.589844 71.707031 C 148.746094 71.773438 148.902344 71.804688 149.070312 71.804688 L 157.054688 71.804688 Z M 140.785156 90.550781 " fill-opacity="1" fill-rule="nonzero"/></g></svg>