<svg xmlns="http://www.w3.org/2000/svg" xmlns:xlink="http://www.w3.org/1999/xlink" width="230" zoomAndPan="magnify" viewBox="0 0 172.5 167.249994" height="223" preserveAspectRatio="xMidYMid meet" version="1.0"><defs><clipPath id="c69bbc6a70"><path d="M 0.136719 0 L 171.867188 0 L 171.867188 166.503906 L 0.136719 166.503906 Z M 0.136719 0 " clip-rule="nonzero"/></clipPath><clipPath id="5f45baf488"><path d="M 90.609375 103.34375 L 116.535156 103.34375 L 116.535156 129.289062 L 90.609375 129.289062 Z M 90.609375 103.34375 " clip-rule="nonzero"/></clipPath><clipPath id="8cab185fe6"><path d="M 104 130 L 107 130 L 107 136.199219 L 104 136.199219 Z M 104 130 " clip-rule="nonzero"/></clipPath><clipPath id="d2f0bfb610"><path d="M 25.351562 51.835938 L 110.472656 51.835938 L 110.472656 136.207031 L 25.351562 136.207031 Z M 25.351562 51.835938 " clip-rule="nonzero"/></clipPath><clipPath id="eecab5212e"><path d="M 0.351562 0.835938 L 85.28125 0.835938 L 85.28125 85.207031 L 0.351562 85.207031 Z M 0.351562 0.835938 " clip-rule="nonzero"/></clipPath><clipPath id="44308801fb"><rect x="0" width="86" y="0" height="86"/></clipPath></defs><g clip-path="url(#c69bbc6a70)"><path fill="#ffffff" d="M 0.136719 0 L 171.867188 0 L 171.867188 166.503906 L 0.136719 166.503906 Z M 0.136719 0 " fill-opacity="1" fill-rule="nonzero"/><path fill="#ffffff" d="M 0.136719 0 L 171.867188 0 L 171.867188 166.503906 L 0.136719 166.503906 Z M 0.136719 0 " fill-opacity="1" fill-rule="nonzero"/></g><path fill="#204ecf" d="M 111.253906 115.980469 L 103.574219 115.980469 C 103.484375 115.980469 103.402344 116.015625 103.339844 116.074219 L 99.453125 119.960938 C 99.328125 120.089844 99.328125 120.296875 99.453125 120.425781 C 99.515625 120.488281 99.601562 120.519531 99.683594 120.519531 C 99.769531 120.519531 99.851562 120.488281 99.914062 120.425781 L 103.707031 116.632812 L 111.253906 116.632812 C 111.4375 116.632812 111.582031 116.484375 111.582031 116.304688 C 111.582031 116.125 111.4375 115.980469 111.253906 115.980469 " fill-opacity="1" fill-rule="nonzero"/><g clip-path="url(#5f45baf488)"><path fill="#204ecf" d="M 112.492188 124.761719 L 111.5625 123.832031 C 111.433594 123.707031 111.226562 123.707031 111.097656 123.832031 C 110.972656 123.960938 110.972656 124.167969 111.097656 124.292969 L 112.03125 125.226562 C 109.898438 127.25 107.046875 128.515625 103.898438 128.597656 L 103.898438 127.277344 C 103.898438 127.097656 103.753906 126.949219 103.574219 126.949219 C 103.390625 126.949219 103.246094 127.097656 103.246094 127.277344 L 103.246094 128.597656 C 100.101562 128.515625 97.25 127.25 95.117188 125.226562 L 96.046875 124.292969 C 96.171875 124.167969 96.171875 123.960938 96.046875 123.832031 C 95.917969 123.707031 95.710938 123.707031 95.585938 123.832031 L 94.652344 124.761719 C 92.628906 122.628906 91.363281 119.777344 91.28125 116.632812 L 92.601562 116.632812 C 92.78125 116.632812 92.929688 116.484375 92.929688 116.304688 C 92.929688 116.125 92.78125 115.980469 92.601562 115.980469 L 91.28125 115.980469 C 91.363281 112.832031 92.628906 109.980469 94.652344 107.847656 L 95.585938 108.777344 C 95.648438 108.84375 95.730469 108.875 95.816406 108.875 C 95.898438 108.875 95.980469 108.84375 96.046875 108.777344 C 96.171875 108.652344 96.171875 108.445312 96.046875 108.316406 L 95.117188 107.386719 C 97.25 105.363281 100.101562 104.097656 103.246094 104.015625 L 103.246094 105.335938 C 103.246094 105.515625 103.390625 105.660156 103.574219 105.660156 C 103.753906 105.660156 103.898438 105.515625 103.898438 105.335938 L 103.898438 104.015625 C 107.046875 104.097656 109.898438 105.363281 112.03125 107.386719 L 111.097656 108.316406 C 110.972656 108.445312 110.972656 108.652344 111.097656 108.777344 C 111.164062 108.84375 111.246094 108.875 111.332031 108.875 C 111.414062 108.875 111.496094 108.84375 111.5625 108.777344 L 112.492188 107.847656 C 114.515625 109.980469 115.78125 112.832031 115.863281 115.980469 L 114.542969 115.980469 C 114.363281 115.980469 114.21875 116.125 114.21875 116.304688 C 114.21875 116.484375 114.363281 116.632812 114.542969 116.632812 L 115.863281 116.632812 C 115.78125 119.777344 114.515625 122.628906 112.492188 124.761719 Z M 112.757812 107.171875 C 112.75 107.164062 112.746094 107.148438 112.738281 107.140625 C 112.726562 107.132812 112.714844 107.128906 112.707031 107.121094 C 110.359375 104.789062 107.132812 103.34375 103.574219 103.34375 C 100.011719 103.34375 96.785156 104.789062 94.4375 107.121094 C 94.429688 107.128906 94.417969 107.132812 94.40625 107.140625 C 94.398438 107.148438 94.394531 107.164062 94.386719 107.171875 C 92.054688 109.515625 90.609375 112.746094 90.609375 116.304688 C 90.609375 119.867188 92.054688 123.09375 94.386719 125.4375 C 94.394531 125.449219 94.398438 125.460938 94.40625 125.472656 C 94.417969 125.480469 94.429688 125.484375 94.441406 125.492188 C 96.785156 127.824219 100.011719 129.265625 103.574219 129.265625 C 107.132812 129.265625 110.359375 127.824219 112.703125 125.492188 C 112.714844 125.484375 112.726562 125.480469 112.738281 125.472656 C 112.746094 125.460938 112.75 125.449219 112.757812 125.4375 C 115.089844 123.09375 116.535156 119.867188 116.535156 116.304688 C 116.535156 112.746094 115.089844 109.515625 112.757812 107.171875 " fill-opacity="1" fill-rule="nonzero"/></g><path fill="#204ecf" d="M 100.554688 134.949219 C 100.289062 134.976562 99.960938 134.992188 99.566406 134.992188 L 98.28125 134.992188 L 99.296875 133.957031 C 99.546875 133.707031 99.742188 133.492188 99.886719 133.3125 C 100.03125 133.136719 100.140625 132.949219 100.214844 132.757812 C 100.289062 132.566406 100.328125 132.375 100.328125 132.183594 C 100.328125 131.925781 100.265625 131.703125 100.136719 131.507812 C 100.007812 131.3125 99.839844 131.171875 99.628906 131.085938 C 99.417969 131 99.199219 130.957031 98.96875 130.957031 C 98.773438 130.957031 98.589844 130.984375 98.414062 131.039062 C 98.234375 131.09375 98.046875 131.222656 97.84375 131.421875 C 97.824219 131.707031 97.789062 131.996094 97.738281 132.289062 L 97.769531 132.320312 L 97.902344 132.320312 L 97.933594 132.292969 C 98.019531 131.984375 98.082031 131.792969 98.125 131.726562 C 98.171875 131.660156 98.257812 131.597656 98.386719 131.546875 C 98.519531 131.492188 98.671875 131.464844 98.847656 131.464844 C 99.121094 131.464844 99.339844 131.550781 99.5 131.726562 C 99.660156 131.902344 99.738281 132.125 99.738281 132.386719 C 99.738281 132.613281 99.671875 132.855469 99.539062 133.117188 C 99.410156 133.378906 99.117188 133.746094 98.667969 134.21875 L 97.578125 135.375 L 97.578125 135.523438 L 97.617188 135.558594 C 97.746094 135.546875 97.988281 135.539062 98.34375 135.535156 C 98.699219 135.527344 98.980469 135.523438 99.191406 135.523438 C 99.296875 135.523438 99.511719 135.527344 99.832031 135.535156 C 100.15625 135.542969 100.398438 135.550781 100.554688 135.558594 L 100.574219 135.523438 C 100.5625 135.460938 100.554688 135.375 100.554688 135.265625 C 100.554688 135.144531 100.5625 135.050781 100.574219 134.976562 L 100.554688 134.949219 " fill-opacity="1" fill-rule="nonzero"/><path fill="#204ecf" d="M 102.65625 133.921875 L 101.269531 133.921875 C 101.371094 133.714844 101.582031 133.351562 101.898438 132.832031 C 102.214844 132.316406 102.480469 131.90625 102.6875 131.609375 Z M 103.390625 134.335938 C 103.53125 134.335938 103.707031 134.34375 103.917969 134.355469 L 103.949219 134.328125 C 103.945312 134.257812 103.941406 134.1875 103.941406 134.117188 C 103.941406 134.078125 103.941406 134.019531 103.945312 133.9375 L 103.917969 133.90625 C 103.753906 133.914062 103.523438 133.921875 103.222656 133.921875 L 103.222656 133.25 L 103.234375 132.332031 C 103.234375 131.789062 103.246094 131.332031 103.269531 130.960938 L 103.1875 130.921875 L 102.730469 131.109375 C 101.847656 132.449219 101.214844 133.472656 100.839844 134.179688 L 100.894531 134.355469 C 101.179688 134.34375 101.53125 134.335938 101.945312 134.335938 L 102.65625 134.335938 L 102.65625 134.578125 C 102.65625 134.730469 102.652344 134.875 102.636719 135.007812 C 102.621094 135.140625 102.601562 135.226562 102.574219 135.261719 C 102.546875 135.296875 102.5 135.320312 102.441406 135.328125 C 102.382812 135.339844 102.191406 135.351562 101.871094 135.359375 L 101.84375 135.386719 L 101.84375 135.523438 L 101.871094 135.550781 C 102.179688 135.535156 102.542969 135.523438 102.964844 135.523438 C 103.222656 135.523438 103.542969 135.535156 103.925781 135.550781 L 103.949219 135.523438 L 103.949219 135.386719 L 103.921875 135.359375 C 103.710938 135.355469 103.5625 135.347656 103.476562 135.335938 C 103.390625 135.320312 103.332031 135.296875 103.304688 135.269531 C 103.277344 135.242188 103.257812 135.175781 103.242188 135.074219 C 103.230469 134.972656 103.222656 134.796875 103.222656 134.554688 L 103.222656 134.335938 L 103.390625 134.335938 " fill-opacity="1" fill-rule="nonzero"/><g clip-path="url(#8cab185fe6)"><path fill="#204ecf" d="M 105.921875 130.679688 L 105.890625 130.707031 L 104.132812 136.292969 L 104.15625 136.324219 L 104.472656 136.324219 L 104.511719 136.296875 L 106.265625 130.710938 L 106.246094 130.679688 L 105.921875 130.679688 " fill-opacity="1" fill-rule="nonzero"/></g><path fill="#204ecf" d="M 108.097656 131.035156 C 107.976562 131.035156 107.730469 131.027344 107.363281 131.011719 C 107 130.996094 106.757812 130.980469 106.636719 130.96875 L 106.574219 131 C 106.582031 131.214844 106.589844 131.371094 106.589844 131.472656 L 106.574219 132.367188 L 106.601562 132.390625 L 106.738281 132.390625 L 106.769531 132.367188 L 106.828125 131.90625 C 106.84375 131.765625 106.859375 131.683594 106.875 131.660156 C 106.886719 131.636719 106.914062 131.613281 106.949219 131.597656 C 106.980469 131.582031 107.097656 131.570312 107.296875 131.5625 C 107.492188 131.554688 107.71875 131.546875 107.972656 131.546875 L 108.980469 131.546875 L 109.015625 131.582031 C 108.953125 131.695312 108.871094 131.839844 108.765625 132.023438 L 108.277344 132.863281 L 107.71875 133.777344 L 107.121094 134.726562 C 106.878906 135.113281 106.714844 135.367188 106.636719 135.484375 L 106.707031 135.550781 C 106.8125 135.539062 106.914062 135.535156 107.015625 135.535156 C 107.078125 135.535156 107.171875 135.539062 107.296875 135.550781 L 107.328125 135.523438 C 107.496094 135.082031 107.761719 134.515625 108.125 133.816406 C 108.488281 133.121094 108.8125 132.523438 109.097656 132.011719 L 109.566406 131.183594 L 109.566406 131.015625 L 109.539062 130.988281 C 109.019531 131.019531 108.539062 131.035156 108.097656 131.035156 " fill-opacity="1" fill-rule="nonzero"/><g clip-path="url(#d2f0bfb610)"><g transform="matrix(1, 0, 0, 1, 25, 51)"><g clip-path="url(#44308801fb)"><g clip-path="url(#eecab5212e)"><path fill="#204ecf" d="M 35.382812 0.832031 C 34.65625 0.945312 33.933594 1.257812 33.242188 1.496094 C 31.972656 1.933594 30.714844 2.371094 29.472656 2.882812 C 22.296875 5.851562 15.222656 10.601562 10.226562 16.589844 C 7.417969 19.953125 5.023438 24.023438 3.351562 28.070312 C 3.226562 28.378906 3.109375 28.6875 2.992188 29 C 2.875 29.3125 2.761719 29.625 2.652344 29.9375 C 2.542969 30.253906 2.4375 30.566406 2.335938 30.882812 C 2.234375 31.199219 2.136719 31.519531 2.042969 31.839844 C 1.949219 32.15625 1.859375 32.476562 1.773438 32.796875 C 1.6875 33.121094 1.605469 33.441406 1.527344 33.765625 C 1.449219 34.089844 1.375 34.414062 1.304688 34.738281 C 1.234375 35.0625 1.167969 35.390625 1.105469 35.714844 C 1.042969 36.042969 0.984375 36.371094 0.929688 36.699219 C 0.875 37.027344 0.824219 37.355469 0.78125 37.683594 C 0.734375 38.011719 0.691406 38.34375 0.652344 38.671875 C 0.613281 39.003906 0.578125 39.335938 0.550781 39.667969 C 0.519531 39.996094 0.492188 40.328125 0.46875 40.660156 C 0.449219 40.992188 0.429688 41.324219 0.414062 41.65625 C 0.402344 41.988281 0.390625 42.320312 0.382812 42.652344 C 0.378906 42.988281 0.375 43.320312 0.378906 43.652344 C 0.378906 43.984375 0.386719 44.316406 0.394531 44.648438 C 0.40625 44.980469 0.417969 45.3125 0.4375 45.644531 C 0.457031 45.976562 0.476562 46.308594 0.503906 46.640625 C 0.53125 46.972656 0.558594 47.304688 0.59375 47.636719 C 0.628906 47.964844 0.667969 48.296875 0.707031 48.625 C 0.75 48.957031 0.796875 49.285156 0.847656 49.613281 C 0.898438 49.941406 0.949219 50.269531 1.007812 50.597656 C 1.066406 50.925781 1.128906 51.253906 1.195312 51.578125 C 1.261719 51.90625 1.332031 52.230469 1.40625 52.554688 C 1.480469 52.878906 1.558594 53.203125 1.640625 53.523438 C 1.71875 53.847656 1.804688 54.167969 1.894531 54.488281 C 1.984375 54.808594 2.078125 55.128906 2.175781 55.445312 C 2.273438 55.765625 2.375 56.082031 2.480469 56.394531 C 2.585938 56.710938 2.695312 57.027344 2.804688 57.339844 C 2.917969 57.652344 3.035156 57.964844 3.15625 58.273438 C 3.277344 58.582031 3.398438 58.890625 3.527344 59.199219 C 3.644531 59.472656 3.765625 59.746094 3.886719 60.015625 C 4.007812 60.289062 4.132812 60.558594 4.261719 60.828125 C 4.390625 61.09375 4.519531 61.363281 4.652344 61.628906 C 4.785156 61.894531 4.921875 62.160156 5.0625 62.421875 C 5.199219 62.6875 5.339844 62.949219 5.484375 63.207031 C 5.628906 63.46875 5.777344 63.726562 5.925781 63.984375 C 6.074219 64.242188 6.226562 64.5 6.378906 64.753906 C 6.535156 65.007812 6.691406 65.261719 6.851562 65.511719 C 7.011719 65.761719 7.171875 66.011719 7.339844 66.261719 C 7.503906 66.507812 7.667969 66.753906 7.839844 67 C 8.007812 67.242188 8.179688 67.484375 8.355469 67.726562 C 8.53125 67.96875 8.707031 68.207031 8.886719 68.445312 C 9.066406 68.679688 9.25 68.917969 9.433594 69.152344 C 9.617188 69.382812 9.804688 69.617188 9.992188 69.847656 C 10.183594 70.074219 10.375 70.304688 10.566406 70.53125 C 10.761719 70.753906 10.957031 70.980469 11.15625 71.203125 C 11.351562 71.421875 11.554688 71.644531 11.757812 71.863281 C 11.960938 72.078125 12.164062 72.296875 12.371094 72.507812 C 12.578125 72.722656 12.789062 72.933594 13 73.144531 C 13.210938 73.351562 13.425781 73.558594 13.640625 73.765625 C 13.855469 73.96875 14.074219 74.171875 14.292969 74.375 C 14.511719 74.574219 14.734375 74.773438 14.957031 74.96875 C 15.183594 75.164062 15.40625 75.359375 15.636719 75.550781 C 15.863281 75.742188 16.09375 75.929688 16.324219 76.117188 C 16.554688 76.304688 16.789062 76.488281 17.023438 76.671875 C 17.261719 76.855469 17.496094 77.035156 17.738281 77.210938 C 17.976562 77.386719 18.214844 77.5625 18.457031 77.734375 C 18.703125 77.90625 18.945312 78.078125 19.191406 78.246094 C 19.4375 78.414062 19.683594 78.578125 19.933594 78.738281 C 20.183594 78.902344 20.433594 79.0625 20.6875 79.21875 C 20.941406 79.375 21.195312 79.53125 21.449219 79.683594 C 21.707031 79.835938 21.964844 79.984375 22.222656 80.132812 C 24.042969 81.171875 26.023438 82.074219 27.964844 82.867188 C 29.027344 83.304688 30.253906 83.828125 31.367188 84.09375 C 31.960938 84.230469 32.578125 84.285156 33.179688 84.355469 L 35.628906 84.652344 C 36.878906 84.800781 38.136719 84.953125 39.390625 85.039062 C 41.5 85.191406 43.609375 85.230469 45.71875 85.261719 C 47.242188 85.285156 48.761719 85.328125 50.28125 85.265625 C 51.714844 85.203125 53.15625 85.121094 54.582031 84.988281 C 55.695312 84.886719 56.804688 84.738281 57.914062 84.625 C 58.648438 84.550781 61.882812 84.3125 62.28125 84.097656 C 62.367188 84.050781 62.417969 83.964844 62.4375 83.867188 C 62.484375 83.585938 62.144531 83.226562 61.992188 83.015625 C 61.542969 82.382812 60.957031 81.347656 60.453125 80.816406 C 60.046875 80.386719 59.167969 80.335938 58.601562 80.214844 C 57.027344 79.875 55.4375 79.570312 53.839844 79.378906 C 52.121094 79.179688 50.398438 79.097656 48.667969 79.035156 L 48.660156 77.074219 C 49.617188 76.933594 50.585938 76.886719 51.542969 76.757812 C 54.613281 76.347656 57.675781 75.710938 60.570312 74.574219 C 60.863281 74.460938 61.152344 74.339844 61.445312 74.21875 C 61.734375 74.097656 62.019531 73.96875 62.308594 73.839844 C 62.59375 73.710938 62.878906 73.578125 63.160156 73.441406 C 63.445312 73.304688 63.726562 73.164062 64.007812 73.019531 C 64.285156 72.878906 64.5625 72.730469 64.839844 72.582031 C 65.117188 72.429688 65.390625 72.277344 65.664062 72.121094 C 65.9375 71.964844 66.207031 71.804688 66.476562 71.640625 C 66.742188 71.476562 67.011719 71.308594 67.273438 71.140625 C 67.539062 70.96875 67.800781 70.796875 68.0625 70.621094 C 68.324219 70.445312 68.582031 70.265625 68.835938 70.082031 C 69.09375 69.902344 69.347656 69.714844 69.597656 69.527344 C 69.851562 69.335938 70.097656 69.144531 70.347656 68.953125 C 70.59375 68.757812 70.835938 68.558594 71.078125 68.359375 C 71.320312 68.15625 71.5625 67.953125 71.796875 67.75 C 72.035156 67.542969 72.269531 67.332031 72.5 67.121094 C 72.734375 66.90625 72.964844 66.691406 73.191406 66.476562 C 73.417969 66.257812 73.640625 66.039062 73.863281 65.8125 C 74.085938 65.589844 74.304688 65.367188 74.519531 65.136719 C 74.734375 64.910156 74.949219 64.675781 75.160156 64.445312 C 75.367188 64.210938 75.578125 63.972656 75.78125 63.734375 C 75.984375 63.496094 76.1875 63.253906 76.386719 63.011719 C 76.585938 62.769531 76.78125 62.523438 76.972656 62.273438 C 77.167969 62.027344 77.355469 61.777344 77.542969 61.523438 C 77.730469 61.269531 77.914062 61.015625 78.09375 60.757812 C 78.273438 60.5 78.453125 60.242188 78.625 59.980469 C 78.800781 59.71875 78.972656 59.453125 79.140625 59.1875 C 79.308594 58.921875 79.472656 58.652344 79.632812 58.382812 C 79.796875 58.113281 79.953125 57.84375 80.109375 57.570312 C 80.261719 57.296875 80.414062 57.019531 80.5625 56.742188 C 80.710938 56.464844 80.855469 56.1875 80.996094 55.90625 C 81.136719 55.625 81.277344 55.34375 81.410156 55.058594 C 81.542969 54.773438 81.675781 54.488281 81.804688 54.199219 C 81.929688 53.917969 82.050781 53.628906 82.167969 53.34375 C 82.289062 53.058594 82.402344 52.769531 82.511719 52.476562 C 82.625 52.1875 82.730469 51.898438 82.835938 51.605469 C 82.941406 51.3125 83.039062 51.019531 83.136719 50.722656 C 83.234375 50.429688 83.328125 50.132812 83.417969 49.835938 C 83.507812 49.535156 83.589844 49.238281 83.671875 48.9375 C 83.753906 48.640625 83.832031 48.339844 83.910156 48.039062 C 83.984375 47.734375 84.054688 47.433594 84.121094 47.128906 C 84.1875 46.828125 84.25 46.523438 84.3125 46.21875 C 84.371094 45.914062 84.425781 45.609375 84.480469 45.300781 C 84.53125 44.996094 84.578125 44.6875 84.625 44.382812 C 84.667969 44.074219 84.707031 43.765625 84.746094 43.457031 C 84.78125 43.148438 84.816406 42.839844 84.84375 42.53125 C 84.875 42.222656 84.898438 41.914062 84.921875 41.605469 C 84.941406 41.292969 84.960938 40.984375 84.972656 40.671875 C 84.988281 40.363281 85 40.054688 85.003906 39.742188 C 85.011719 39.433594 85.011719 39.121094 85.011719 38.8125 C 85.011719 38.5 85.003906 38.191406 84.996094 37.878906 C 84.988281 37.570312 84.972656 37.257812 84.957031 36.949219 C 84.941406 36.640625 84.917969 36.328125 84.894531 36.019531 C 84.871094 35.710938 84.84375 35.402344 84.808594 35.089844 C 84.777344 34.78125 84.742188 34.472656 84.703125 34.167969 C 84.664062 33.859375 84.617188 33.550781 84.570312 33.246094 C 84.523438 32.9375 84.472656 32.632812 84.417969 32.324219 C 84.363281 32.019531 84.304688 31.714844 84.242188 31.410156 C 84.179688 31.105469 84.113281 30.804688 84.042969 30.5 C 83.972656 30.199219 83.898438 29.894531 83.824219 29.59375 C 83.746094 29.292969 83.664062 28.996094 83.578125 28.695312 C 83.496094 28.398438 83.40625 28.101562 83.3125 27.804688 C 83.222656 27.507812 83.125 27.210938 83.027344 26.917969 C 82.925781 26.625 82.824219 26.332031 82.71875 26.039062 C 82.609375 25.746094 82.5 25.457031 82.386719 25.167969 C 79.910156 18.894531 76.21875 13.933594 71.050781 9.636719 C 68.542969 7.550781 65.722656 5.707031 62.722656 4.414062 C 62.527344 4.328125 62.332031 4.246094 62.140625 4.160156 C 61.945312 4.078125 61.75 4 61.550781 3.917969 C 61.355469 3.839844 61.160156 3.761719 60.960938 3.683594 C 60.765625 3.609375 60.566406 3.535156 60.367188 3.460938 C 60.171875 3.386719 59.972656 3.316406 59.773438 3.246094 C 59.570312 3.175781 59.371094 3.109375 59.171875 3.042969 C 58.96875 2.976562 58.769531 2.910156 58.566406 2.847656 C 58.367188 2.785156 58.164062 2.722656 57.960938 2.660156 C 57.757812 2.601562 57.554688 2.542969 57.351562 2.484375 C 57.148438 2.429688 56.941406 2.375 56.738281 2.320312 C 56.535156 2.265625 56.328125 2.214844 56.125 2.164062 C 55.917969 2.113281 55.710938 2.0625 55.503906 2.015625 C 55.300781 1.96875 55.09375 1.925781 54.886719 1.878906 C 54.679688 1.835938 54.472656 1.792969 54.265625 1.753906 C 54.054688 1.714844 53.847656 1.675781 53.640625 1.636719 C 53.433594 1.601562 53.222656 1.566406 53.015625 1.53125 C 52.804688 1.496094 52.597656 1.464844 52.386719 1.433594 C 52.179688 1.40625 51.96875 1.375 51.757812 1.347656 C 51.550781 1.320312 51.339844 1.296875 51.128906 1.273438 C 50.917969 1.25 50.707031 1.226562 50.496094 1.207031 C 50.289062 1.183594 50.078125 1.167969 49.867188 1.148438 C 49.65625 1.132812 49.445312 1.117188 49.234375 1.105469 C 49.023438 1.089844 48.8125 1.078125 48.597656 1.066406 C 48.386719 1.058594 48.175781 1.050781 47.964844 1.042969 C 47.753906 1.035156 47.542969 1.03125 47.332031 1.027344 C 47.121094 1.023438 46.90625 1.023438 46.695312 1.023438 C 46.484375 1.019531 46.273438 1.023438 46.0625 1.027344 C 45.851562 1.03125 45.640625 1.035156 45.425781 1.042969 C 45.214844 1.046875 45.003906 1.054688 44.792969 1.066406 C 44.582031 1.078125 44.371094 1.089844 44.160156 1.101562 C 43.949219 1.113281 43.738281 1.128906 43.527344 1.148438 C 43.316406 1.164062 43.105469 1.183594 42.894531 1.203125 C 41.46875 1.339844 39.945312 1.488281 38.558594 1.867188 C 37.929688 2.042969 37.316406 2.28125 36.710938 2.523438 C 36.328125 1.933594 35.917969 1.296875 35.382812 0.832031 Z M 31.253906 13.542969 C 31.507812 13.691406 31.84375 13.710938 32.132812 13.738281 C 31.832031 14.246094 31.480469 14.757812 31.101562 15.207031 C 30.78125 15.117188 30.460938 15.007812 30.136719 14.941406 C 29.914062 14.929688 29.675781 14.941406 29.476562 14.835938 C 29.40625 14.75 29.40625 14.753906 29.410156 14.640625 C 29.648438 14.253906 30.117188 13.832031 29.996094 13.332031 C 29.964844 13.199219 29.871094 13.101562 29.753906 13.042969 C 29.589844 12.960938 29.363281 12.945312 29.179688 12.902344 L 29.15625 12.753906 C 29.628906 12.390625 30.035156 12.199219 30.628906 12.121094 C 30.742188 12.582031 30.804688 13.28125 31.253906 13.542969 Z M 53.726562 16.257812 C 53.820312 16.367188 53.972656 16.535156 54.007812 16.675781 C 54.019531 16.726562 54.015625 16.734375 54.011719 16.777344 C 53.925781 16.832031 53.878906 16.824219 53.777344 16.804688 C 53.59375 16.761719 53.421875 16.675781 53.234375 16.640625 C 52.871094 16.609375 52.519531 16.601562 52.15625 16.625 C 51.707031 16.65625 50.546875 16.925781 50.222656 16.523438 C 50.117188 16.390625 50.101562 16.226562 50.125 16.0625 C 50.1875 15.644531 50.492188 15.152344 50.816406 14.890625 C 51.816406 15.410156 52.941406 15.328125 53.726562 16.257812 Z M 47.933594 77.03125 C 47.90625 78.195312 47.949219 79.359375 47.945312 80.527344 C 47.816406 80.691406 47.691406 80.808594 47.515625 80.925781 C 47.105469 81.0625 46.636719 81.109375 46.238281 80.898438 C 46.113281 80.828125 45.960938 80.707031 45.925781 80.5625 C 45.832031 80.179688 45.859375 77.476562 45.90625 77.007812 C 46.003906 76.945312 46.035156 76.964844 46.144531 76.96875 C 46.742188 76.996094 47.335938 77.015625 47.933594 77.03125 Z M 57.675781 5.417969 C 57.683594 5.816406 57.699219 6.078125 58.011719 6.367188 C 58.410156 6.742188 58.976562 6.957031 59.476562 7.15625 C 61.503906 7.953125 63.4375 8.335938 64.746094 10.242188 C 64.917969 10.488281 65.234375 10.875 65.238281 11.191406 C 65.242188 11.300781 65.199219 11.378906 65.117188 11.449219 C 64.921875 11.625 64.632812 11.726562 64.394531 11.824219 C 63.289062 12.273438 62.429688 12.542969 62.171875 13.867188 C 62.144531 14.042969 62.140625 14.238281 62.023438 14.378906 C 61.929688 14.433594 61.902344 14.457031 61.785156 14.429688 C 61.648438 14.398438 61.496094 14.242188 61.398438 14.148438 C 59.960938 12.789062 59.710938 10.429688 58.367188 9.085938 C 57.730469 8.449219 56.859375 8.046875 56.023438 7.734375 C 55.273438 7.449219 53.257812 7.078125 52.890625 6.347656 C 52.886719 6.199219 52.941406 6.113281 53.039062 6.003906 C 53.398438 5.613281 54.710938 4.765625 55.230469 4.761719 C 55.28125 4.761719 55.328125 4.761719 55.375 4.765625 C 56.160156 5.003906 56.851562 5.320312 57.675781 5.417969 Z M 52.539062 2.390625 C 51.632812 3.105469 49.964844 3.328125 49.832031 4.695312 C 49.800781 5.015625 49.863281 5.320312 49.925781 5.632812 C 50.167969 6.875 49.847656 7.285156 48.933594 8.074219 C 48.027344 8.851562 46.257812 10.074219 45.179688 10.484375 C 44.914062 10.421875 44.625 10.371094 44.46875 10.125 C 44.339844 9.921875 44.363281 9.679688 44.421875 9.457031 C 44.492188 9.195312 44.613281 8.949219 44.726562 8.699219 C 44.863281 8.332031 44.910156 8.023438 44.773438 7.648438 C 44.769531 7.632812 44.765625 7.617188 44.757812 7.601562 C 44.679688 7.414062 44.394531 7.277344 44.222656 7.179688 C 43.65625 6.851562 43.003906 6.660156 42.421875 6.355469 C 41.769531 6.019531 41 5.40625 40.339844 5.179688 C 39.871094 5.015625 39.011719 5.144531 38.625 4.867188 C 38.566406 4.402344 39.210938 3.675781 39.40625 3.246094 C 39.496094 3.050781 39.53125 2.847656 39.558594 2.636719 C 42 2.09375 46.003906 1.753906 48.480469 1.960938 C 49.832031 2.050781 51.203125 2.148438 52.539062 2.390625 Z M 45.5 81.25 C 45.890625 81.628906 46.476562 81.761719 47.007812 81.738281 C 47.496094 81.714844 47.988281 81.566406 48.328125 81.195312 C 48.6875 80.800781 48.710938 80.292969 48.699219 79.792969 L 49.132812 79.789062 C 51.992188 79.910156 54.710938 80.199219 57.515625 80.761719 C 58.292969 80.917969 59.097656 81.046875 59.851562 81.289062 C 60.472656 81.941406 60.882812 82.808594 61.457031 83.511719 C 60.230469 83.632812 58.996094 83.714844 57.773438 83.855469 C 56.511719 84 55.265625 84.199219 54 84.292969 C 52.128906 84.421875 50.261719 84.496094 48.386719 84.519531 C 46.515625 84.539062 44.644531 84.511719 42.773438 84.425781 C 39.289062 84.328125 35.867188 83.863281 32.40625 83.488281 C 32.777344 82.832031 33.238281 81.804688 33.859375 81.363281 C 34.042969 81.230469 34.269531 81.160156 34.488281 81.101562 C 37.664062 80.246094 41.835938 79.878906 45.144531 79.765625 C 45.152344 80.296875 45.085938 80.847656 45.5 81.25 Z M 24.140625 11.839844 C 24.296875 12.523438 23.554688 12.945312 23.972656 13.949219 C 24.589844 15.433594 28.128906 17.261719 26.902344 19.046875 C 26.378906 19.8125 24.6875 20.589844 24.890625 21.648438 C 24.941406 21.910156 25.089844 22.089844 25.316406 22.226562 C 25.917969 22.585938 27.121094 22.527344 27.457031 23.203125 C 27.398438 23.558594 26.613281 25.605469 26.34375 25.8125 C 25.949219 26.109375 24.328125 26.035156 23.867188 25.90625 C 23.375 25.765625 23.042969 25.390625 22.816406 24.949219 C 22.105469 23.5625 21.871094 22.171875 20.167969 21.613281 C 19.550781 21.410156 18.917969 21.445312 18.339844 21.742188 C 17.382812 22.230469 17.160156 23.234375 16.449219 23.933594 C 16.222656 24.121094 15.875 24.445312 15.5625 24.417969 C 15.496094 24.410156 15.449219 24.390625 15.40625 24.335938 C 15.25 24.140625 15.261719 23.777344 15.324219 23.546875 C 15.511719 22.855469 16.621094 21.886719 16.535156 21.28125 C 16.472656 21.199219 16.429688 21.171875 16.324219 21.160156 C 16.191406 21.144531 16.070312 21.171875 15.96875 21.257812 C 15.679688 21.5 15.441406 21.980469 15.199219 22.285156 C 14.203125 23.558594 13.097656 24.753906 12.203125 26.101562 C 12.402344 25.453125 12.695312 24.832031 12.957031 24.203125 C 13.136719 23.777344 13.328125 23.355469 13.527344 22.9375 C 13.722656 22.519531 13.929688 22.105469 14.144531 21.695312 C 14.359375 21.285156 14.582031 20.882812 14.816406 20.480469 C 15.046875 20.082031 15.285156 19.683594 15.53125 19.292969 C 15.777344 18.902344 16.035156 18.515625 16.296875 18.136719 C 16.558594 17.753906 16.828125 17.378906 17.105469 17.011719 C 17.382812 16.640625 17.667969 16.277344 17.960938 15.917969 C 18.253906 15.558594 18.554688 15.207031 18.859375 14.859375 C 19.289062 14.371094 19.753906 13.914062 20.203125 13.445312 C 20.648438 12.976562 21.304688 12.105469 21.859375 11.804688 C 22.382812 11.519531 23.292969 11.519531 23.871094 11.554688 C 24.003906 11.632812 24.101562 11.679688 24.140625 11.839844 Z M 35.945312 2.671875 C 34.507812 3.117188 33.046875 3.535156 31.652344 4.101562 C 30.964844 4.382812 30.296875 4.746094 29.628906 5.078125 C 28.5 5.628906 27.382812 6.199219 26.277344 6.796875 C 24.195312 7.933594 22.125 9.140625 20.191406 10.511719 C 14.84375 14.296875 10.21875 19.402344 7.15625 25.214844 C 7.007812 25.496094 6.863281 25.78125 6.71875 26.066406 C 6.578125 26.355469 6.4375 26.644531 6.304688 26.933594 C 6.167969 27.222656 6.035156 27.515625 5.910156 27.808594 C 5.78125 28.101562 5.65625 28.394531 5.535156 28.691406 C 5.414062 28.988281 5.296875 29.285156 5.183594 29.582031 C 5.070312 29.882812 4.960938 30.183594 4.855469 30.484375 C 4.746094 30.785156 4.644531 31.089844 4.546875 31.394531 C 4.449219 31.699219 4.351562 32.003906 4.261719 32.308594 C 4.171875 32.617188 4.082031 32.921875 4 33.230469 C 3.914062 33.539062 3.835938 33.851562 3.757812 34.160156 C 3.683594 34.472656 3.609375 34.78125 3.542969 35.09375 C 3.472656 35.40625 3.410156 35.722656 3.347656 36.035156 C 3.289062 36.347656 3.230469 36.664062 3.175781 36.980469 C 3.125 37.292969 3.074219 37.609375 3.03125 37.925781 C 2.984375 38.242188 2.941406 38.5625 2.90625 38.878906 C 2.867188 39.195312 2.835938 39.515625 2.804688 39.832031 C 2.773438 40.152344 2.75 40.46875 2.726562 40.789062 C 2.707031 41.109375 2.6875 41.425781 2.671875 41.746094 C 2.660156 42.066406 2.648438 42.386719 2.644531 42.707031 C 2.636719 43.023438 2.632812 43.34375 2.636719 43.664062 C 2.636719 43.984375 2.644531 44.304688 2.652344 44.625 C 2.660156 44.945312 2.675781 45.261719 2.691406 45.582031 C 2.710938 45.902344 2.730469 46.222656 2.757812 46.539062 C 2.78125 46.859375 2.808594 47.175781 2.84375 47.496094 C 2.875 47.8125 2.914062 48.132812 2.953125 48.449219 C 2.996094 48.765625 3.039062 49.082031 3.085938 49.398438 C 3.136719 49.714844 3.1875 50.03125 3.246094 50.34375 C 3.300781 50.660156 3.359375 50.972656 3.425781 51.289062 C 3.488281 51.601562 3.558594 51.914062 3.628906 52.226562 C 3.699219 52.535156 3.777344 52.847656 3.855469 53.15625 C 3.933594 53.46875 4.015625 53.777344 4.105469 54.082031 C 4.191406 54.390625 4.28125 54.699219 4.375 55.003906 C 4.570312 55.625 4.78125 56.238281 5.007812 56.847656 C 5.234375 57.457031 5.476562 58.0625 5.734375 58.65625 C 5.988281 59.253906 6.261719 59.84375 6.550781 60.425781 C 6.839844 61.011719 7.144531 61.585938 7.460938 62.152344 C 7.582031 62.375 7.707031 62.59375 7.835938 62.816406 C 7.960938 63.035156 8.089844 63.253906 8.21875 63.46875 C 8.351562 63.6875 8.484375 63.902344 8.617188 64.117188 C 8.753906 64.332031 8.890625 64.546875 9.027344 64.761719 C 9.164062 64.972656 9.304688 65.183594 9.449219 65.394531 C 9.589844 65.601562 9.734375 65.8125 9.882812 66.019531 C 10.027344 66.226562 10.175781 66.429688 10.324219 66.636719 C 10.476562 66.839844 10.628906 67.042969 10.78125 67.246094 C 10.933594 67.445312 11.089844 67.648438 11.25 67.84375 C 11.40625 68.042969 11.566406 68.242188 11.726562 68.4375 C 11.886719 68.632812 12.050781 68.828125 12.214844 69.019531 C 12.378906 69.214844 12.546875 69.402344 12.714844 69.59375 C 12.882812 69.785156 13.054688 69.972656 13.226562 70.160156 C 13.398438 70.34375 13.570312 70.53125 13.746094 70.714844 C 13.921875 70.898438 14.097656 71.078125 14.277344 71.257812 C 14.453125 71.4375 14.632812 71.617188 14.816406 71.792969 C 15 71.96875 15.179688 72.144531 15.367188 72.320312 C 15.550781 72.492188 15.738281 72.664062 15.925781 72.832031 C 16.113281 73.003906 16.304688 73.171875 16.496094 73.339844 C 16.6875 73.503906 16.878906 73.667969 17.074219 73.832031 C 17.269531 73.996094 17.464844 74.15625 17.664062 74.316406 C 17.859375 74.472656 18.058594 74.632812 18.257812 74.785156 C 18.457031 74.941406 18.660156 75.097656 18.863281 75.246094 C 19.066406 75.398438 19.269531 75.550781 19.476562 75.699219 C 19.683594 75.847656 19.890625 75.992188 20.097656 76.136719 C 20.308594 76.28125 20.515625 76.421875 20.730469 76.5625 C 20.941406 76.703125 21.152344 76.839844 21.367188 76.976562 C 21.578125 77.113281 21.792969 77.25 22.011719 77.382812 C 22.226562 77.511719 22.445312 77.644531 22.664062 77.773438 C 22.882812 77.902344 23.101562 78.027344 23.324219 78.152344 C 23.542969 78.277344 23.765625 78.398438 23.988281 78.519531 C 24.210938 78.636719 24.4375 78.757812 24.664062 78.871094 C 26.140625 79.648438 27.667969 80.378906 29.21875 80.996094 C 30.242188 81.402344 31.296875 81.746094 32.332031 82.117188 C 32.136719 82.519531 31.847656 83.078125 31.527344 83.382812 C 29.550781 82.628906 27.585938 81.945312 25.671875 81.03125 C 16.207031 76.511719 8.875 69.222656 4.578125 59.613281 C 4.410156 59.230469 4.25 58.847656 4.09375 58.460938 C 3.9375 58.074219 3.789062 57.683594 3.648438 57.292969 C 3.503906 56.902344 3.367188 56.511719 3.234375 56.113281 C 3.105469 55.71875 2.980469 55.320312 2.859375 54.921875 C 2.742188 54.523438 2.628906 54.121094 2.523438 53.71875 C 2.414062 53.316406 2.316406 52.914062 2.21875 52.507812 C 2.125 52.101562 2.039062 51.695312 1.957031 51.285156 C 1.875 50.878906 1.800781 50.46875 1.730469 50.058594 C 1.660156 49.648438 1.597656 49.234375 1.542969 48.820312 C 1.484375 48.410156 1.4375 47.996094 1.390625 47.582031 C 1.347656 47.167969 1.3125 46.753906 1.28125 46.335938 C 1.25 45.921875 1.222656 45.507812 1.207031 45.089844 C 1.1875 44.675781 1.175781 44.257812 1.171875 43.839844 C 1.164062 43.425781 1.167969 43.007812 1.175781 42.589844 C 1.179688 42.175781 1.195312 41.757812 1.214844 41.34375 C 1.234375 40.925781 1.261719 40.511719 1.292969 40.097656 C 1.34375 39.605469 1.398438 39.117188 1.464844 38.625 C 1.527344 38.136719 1.601562 37.648438 1.683594 37.164062 C 1.761719 36.675781 1.851562 36.191406 1.949219 35.707031 C 2.046875 35.226562 2.152344 34.742188 2.265625 34.261719 C 2.378906 33.785156 2.5 33.304688 2.632812 32.828125 C 2.761719 32.355469 2.898438 31.878906 3.046875 31.410156 C 3.191406 30.9375 3.34375 30.46875 3.507812 30.003906 C 3.667969 29.539062 3.839844 29.074219 4.015625 28.613281 C 8.234375 17.640625 17.40625 9.101562 28.039062 4.382812 C 28.78125 4.054688 29.523438 3.707031 30.277344 3.402344 C 31.144531 3.054688 32.035156 2.753906 32.917969 2.441406 C 33.699219 2.164062 34.484375 1.863281 35.292969 1.667969 C 35.507812 2.003906 35.734375 2.335938 35.945312 2.671875 Z M 24.050781 29.847656 C 24.757812 30.878906 25.027344 32.203125 25.871094 33.128906 C 26.179688 33.46875 26.558594 33.703125 26.902344 34.003906 C 27.25 34.308594 27.429688 34.683594 27.347656 35.148438 C 27.207031 35.960938 26.640625 36.648438 26.597656 37.5 C 26.550781 38.523438 27.332031 39.273438 27.351562 40.28125 C 27.363281 40.746094 27.164062 41.144531 26.929688 41.539062 C 26.441406 42.363281 23.535156 45.890625 22.808594 46.378906 C 22.492188 46.585938 22.039062 46.554688 21.6875 46.472656 C 20.648438 46.238281 16 44.191406 15.316406 44.621094 C 15.011719 44.808594 14.925781 45.324219 14.902344 45.644531 C 14.839844 46.40625 15.023438 47.203125 14.382812 47.769531 C 13.988281 48.121094 13.140625 48.425781 13.113281 49.03125 C 13.070312 50.003906 14.585938 50.714844 14.71875 51.742188 C 14.78125 52.25 14.640625 52.777344 14.550781 53.273438 C 14.234375 55.066406 14.625 56.140625 15.304688 57.769531 C 15.523438 58.296875 15.730469 58.761719 15.796875 59.332031 C 14.878906 58.222656 13.996094 56.441406 13.390625 55.109375 C 10.660156 49.121094 9.359375 42.351562 9.984375 35.773438 C 10.144531 34.089844 10.46875 31.570312 10.949219 29.964844 C 11.75 30.011719 12.578125 30.089844 13.367188 29.914062 C 15.527344 29.425781 17.144531 27.09375 19.464844 27.324219 C 21.039062 27.609375 23.125 28.5 24.050781 29.847656 Z M 78.648438 58.253906 C 78.519531 58.460938 78.390625 58.664062 78.261719 58.871094 C 78.128906 59.074219 77.996094 59.277344 77.863281 59.476562 C 77.726562 59.679688 77.589844 59.878906 77.453125 60.078125 C 77.316406 60.277344 77.175781 60.476562 77.03125 60.671875 C 76.890625 60.867188 76.746094 61.0625 76.601562 61.257812 C 76.453125 61.449219 76.304688 61.644531 76.15625 61.832031 C 76.007812 62.023438 75.855469 62.214844 75.703125 62.402344 C 75.546875 62.589844 75.394531 62.777344 75.238281 62.960938 C 75.078125 63.144531 74.921875 63.328125 74.761719 63.511719 C 74.601562 63.691406 74.4375 63.875 74.273438 64.050781 C 74.109375 64.230469 73.945312 64.40625 73.777344 64.582031 C 73.609375 64.757812 73.441406 64.933594 73.273438 65.105469 C 73.101562 65.277344 72.929688 65.449219 72.753906 65.617188 C 72.582031 65.785156 72.40625 65.953125 72.230469 66.121094 C 72.050781 66.285156 71.875 66.449219 71.695312 66.613281 C 71.515625 66.773438 71.332031 66.933594 71.148438 67.09375 C 70.964844 67.253906 70.78125 67.410156 70.59375 67.566406 C 70.410156 67.722656 70.222656 67.875 70.03125 68.027344 C 69.84375 68.179688 69.652344 68.328125 69.460938 68.476562 C 69.269531 68.625 69.074219 68.769531 68.878906 68.914062 C 68.6875 69.058594 68.488281 69.203125 68.292969 69.34375 C 68.09375 69.484375 67.894531 69.621094 67.695312 69.757812 C 67.496094 69.894531 67.292969 70.03125 67.089844 70.164062 C 66.886719 70.296875 66.683594 70.425781 66.480469 70.554688 C 66.273438 70.683594 66.066406 70.8125 65.859375 70.9375 C 65.652344 71.0625 65.445312 71.1875 65.234375 71.308594 C 65.023438 71.429688 64.8125 71.546875 64.601562 71.664062 C 64.386719 71.78125 64.175781 71.898438 63.960938 72.011719 C 63.746094 72.121094 63.53125 72.234375 63.3125 72.34375 C 63.097656 72.453125 62.878906 72.558594 62.660156 72.664062 C 62.441406 72.769531 62.222656 72.871094 62 72.972656 C 61.78125 73.070312 61.558594 73.171875 61.335938 73.265625 C 59.863281 73.890625 58.359375 74.4375 56.828125 74.902344 L 57.226562 74.191406 C 57.898438 72.859375 58.4375 71.398438 58.644531 69.917969 C 58.890625 68.175781 58.753906 65.097656 59.457031 63.617188 C 60.175781 62.101562 62.304688 61.507812 63.488281 60.355469 C 65.207031 58.675781 67.34375 53.726562 66.5625 51.398438 C 66.144531 50.148438 64.863281 49.933594 64.863281 48.355469 C 64.863281 48 64.925781 47.625 65.078125 47.300781 C 65.210938 47.023438 65.363281 46.855469 65.625 46.683594 C 66.160156 46.84375 66.632812 47.035156 67.175781 46.75 C 68.035156 46.296875 68.8125 44.835938 69.3125 44 C 69.539062 43.621094 69.761719 43.160156 70.125 42.894531 C 70.707031 42.46875 71.515625 42.679688 72.144531 42.390625 C 72.78125 42.097656 73.082031 41.355469 73.699219 41.050781 C 74.402344 40.703125 75.414062 40.613281 76.199219 40.308594 C 77.933594 39.636719 79.683594 38.261719 80.730469 36.710938 C 81.265625 35.917969 81.644531 35.042969 81.902344 34.125 C 82.121094 33.363281 82.570312 30.710938 83.007812 30.289062 C 85.3125 40.03125 83.925781 49.707031 78.648438 58.253906 Z M 21.839844 10.554688 C 21.609375 10.757812 21.382812 10.960938 21.15625 11.171875 C 20.933594 11.378906 20.707031 11.589844 20.488281 11.800781 C 20.269531 12.015625 20.050781 12.230469 19.835938 12.449219 C 19.621094 12.667969 19.40625 12.886719 19.199219 13.113281 C 18.988281 13.335938 18.78125 13.5625 18.578125 13.789062 C 18.371094 14.019531 18.171875 14.25 17.972656 14.484375 C 17.773438 14.71875 17.578125 14.953125 17.386719 15.191406 C 17.191406 15.429688 17.003906 15.671875 16.816406 15.914062 C 16.628906 16.15625 16.445312 16.402344 16.261719 16.648438 C 16.082031 16.894531 15.902344 17.144531 15.730469 17.398438 C 15.554688 17.648438 15.382812 17.902344 15.214844 18.160156 C 15.042969 18.414062 14.878906 18.671875 14.714844 18.933594 C 14.554688 19.191406 14.394531 19.453125 14.238281 19.71875 C 14.082031 19.984375 13.929688 20.246094 13.78125 20.515625 C 13.628906 20.78125 13.484375 21.050781 13.339844 21.324219 C 13.199219 21.59375 13.058594 21.867188 12.921875 22.140625 C 12.785156 22.417969 12.652344 22.691406 12.523438 22.972656 C 12.390625 23.25 12.265625 23.527344 12.144531 23.808594 C 12.019531 24.089844 11.902344 24.371094 11.785156 24.65625 C 11.667969 24.941406 11.554688 25.226562 11.445312 25.511719 C 11.339844 25.796875 11.234375 26.085938 11.128906 26.375 C 11.027344 26.664062 10.929688 26.953125 10.835938 27.246094 C 10.738281 27.535156 10.648438 27.828125 10.5625 28.125 C 10.472656 28.417969 10.386719 28.710938 10.308594 29.007812 C 10.226562 29.304688 10.148438 29.601562 10.078125 29.898438 C 10.003906 30.195312 9.933594 30.492188 9.867188 30.792969 C 9.800781 31.09375 9.738281 31.394531 9.679688 31.695312 C 9.621094 31.996094 9.566406 32.296875 9.511719 32.597656 C 9.460938 32.898438 9.414062 33.203125 9.371094 33.507812 C 9.324219 33.808594 9.285156 34.113281 9.25 34.417969 C 9.210938 34.722656 9.179688 35.027344 9.148438 35.332031 C 9.117188 35.640625 9.089844 35.949219 9.066406 36.261719 C 9.039062 36.570312 9.019531 36.878906 9.003906 37.191406 C 8.984375 37.5 8.972656 37.8125 8.964844 38.121094 C 8.953125 38.433594 8.949219 38.742188 8.949219 39.054688 C 8.945312 39.363281 8.949219 39.675781 8.953125 39.984375 C 8.960938 40.296875 8.96875 40.605469 8.984375 40.917969 C 8.996094 41.226562 9.015625 41.535156 9.035156 41.847656 C 9.058594 42.15625 9.082031 42.464844 9.109375 42.777344 C 9.140625 43.085938 9.171875 43.394531 9.207031 43.703125 C 9.246094 44.011719 9.285156 44.320312 9.328125 44.625 C 9.371094 44.933594 9.421875 45.242188 9.472656 45.546875 C 9.523438 45.855469 9.578125 46.160156 9.636719 46.464844 C 9.695312 46.769531 9.757812 47.074219 9.824219 47.378906 C 9.890625 47.679688 9.960938 47.984375 10.035156 48.285156 C 10.109375 48.585938 10.1875 48.886719 10.265625 49.1875 C 10.347656 49.488281 10.433594 49.785156 10.523438 50.085938 C 10.609375 50.382812 10.703125 50.679688 10.796875 50.976562 C 10.894531 51.269531 10.992188 51.566406 11.09375 51.859375 C 11.199219 52.152344 11.304688 52.441406 11.414062 52.734375 C 11.523438 53.023438 11.640625 53.3125 11.753906 53.601562 C 11.871094 53.886719 11.992188 54.175781 12.117188 54.460938 C 12.242188 54.746094 12.371094 55.027344 12.5 55.308594 C 12.632812 55.589844 12.765625 55.871094 12.902344 56.148438 C 13.042969 56.425781 13.183594 56.703125 13.328125 56.980469 C 13.472656 57.253906 13.621094 57.527344 13.773438 57.796875 C 13.921875 58.070312 14.078125 58.339844 14.234375 58.605469 C 14.394531 58.875 14.554688 59.140625 14.71875 59.402344 C 14.882812 59.667969 15.050781 59.929688 15.222656 60.1875 C 15.394531 60.445312 15.566406 60.703125 15.746094 60.960938 C 15.921875 61.214844 16.101562 61.46875 16.285156 61.71875 C 16.46875 61.96875 16.65625 62.21875 16.84375 62.464844 C 17.035156 62.710938 17.226562 62.953125 17.421875 63.195312 C 18.519531 64.527344 19.757812 65.746094 21.042969 66.894531 C 21.585938 67.378906 22.117188 67.878906 22.683594 68.328125 C 23.269531 68.796875 23.894531 69.222656 24.507812 69.652344 C 24.691406 69.78125 24.875 69.90625 25.0625 70.03125 C 25.246094 70.15625 25.433594 70.277344 25.621094 70.398438 C 25.808594 70.519531 25.996094 70.640625 26.183594 70.757812 C 26.375 70.878906 26.5625 70.996094 26.753906 71.109375 C 26.945312 71.226562 27.136719 71.339844 27.332031 71.449219 C 27.523438 71.5625 27.71875 71.671875 27.914062 71.78125 C 28.109375 71.890625 28.304688 71.996094 28.5 72.105469 C 28.695312 72.210938 28.894531 72.3125 29.09375 72.414062 C 29.289062 72.519531 29.488281 72.621094 29.6875 72.71875 C 29.890625 72.816406 30.089844 72.914062 30.289062 73.011719 C 30.492188 73.105469 30.695312 73.203125 30.898438 73.292969 C 31.101562 73.386719 31.304688 73.476562 31.507812 73.566406 C 31.714844 73.65625 31.917969 73.742188 32.125 73.832031 C 32.332031 73.917969 32.535156 74 32.742188 74.082031 C 32.953125 74.164062 33.160156 74.246094 33.367188 74.324219 C 33.578125 74.40625 33.785156 74.484375 33.996094 74.558594 C 34.207031 74.632812 34.414062 74.707031 34.625 74.78125 C 34.835938 74.851562 35.050781 74.921875 35.261719 74.992188 C 35.472656 75.0625 35.6875 75.128906 35.898438 75.195312 C 36.113281 75.261719 36.328125 75.324219 36.542969 75.386719 C 36.753906 75.449219 36.96875 75.507812 37.1875 75.566406 C 37.402344 75.625 37.617188 75.683594 37.832031 75.738281 C 38.050781 75.792969 38.265625 75.84375 38.484375 75.894531 C 38.699219 75.949219 38.917969 75.996094 39.136719 76.046875 C 39.355469 76.09375 39.570312 76.140625 39.789062 76.183594 C 40.007812 76.226562 40.230469 76.269531 40.449219 76.3125 C 40.667969 76.351562 40.886719 76.390625 41.105469 76.429688 C 41.328125 76.464844 41.546875 76.5 41.769531 76.535156 C 41.988281 76.566406 42.210938 76.601562 42.429688 76.628906 C 42.652344 76.660156 42.871094 76.6875 43.09375 76.714844 C 43.316406 76.742188 43.539062 76.765625 43.757812 76.789062 C 43.980469 76.8125 44.203125 76.832031 44.425781 76.851562 C 44.660156 76.875 44.898438 76.894531 45.132812 76.914062 C 45.136719 77.621094 45.152344 78.332031 45.140625 79.035156 C 43.839844 79.101562 42.535156 79.148438 41.238281 79.265625 C 40.105469 79.367188 38.980469 79.53125 37.855469 79.675781 C 36.757812 79.867188 34.5625 80.125 33.640625 80.636719 C 33.289062 80.832031 33.03125 81.101562 32.761719 81.398438 C 23.515625 78.386719 15.335938 72.734375 9.867188 64.621094 C 9.027344 63.375 8.226562 62.128906 7.539062 60.78125 C 7.398438 60.507812 7.257812 60.226562 7.125 59.945312 C 6.988281 59.667969 6.855469 59.386719 6.730469 59.101562 C 6.601562 58.816406 6.476562 58.53125 6.355469 58.246094 C 6.234375 57.960938 6.117188 57.671875 6.003906 57.382812 C 5.890625 57.09375 5.777344 56.800781 5.671875 56.507812 C 5.566406 56.21875 5.460938 55.921875 5.363281 55.628906 C 5.261719 55.335938 5.167969 55.039062 5.074219 54.742188 C 4.984375 54.445312 4.894531 54.144531 4.808594 53.847656 C 4.722656 53.546875 4.644531 53.246094 4.566406 52.945312 C 4.488281 52.644531 4.414062 52.339844 4.34375 52.039062 C 4.273438 51.734375 4.207031 51.429688 4.144531 51.125 C 4.082031 50.820312 4.023438 50.515625 3.96875 50.210938 C 3.914062 49.902344 3.863281 49.597656 3.816406 49.289062 C 3.769531 48.980469 3.726562 48.675781 3.683594 48.367188 C 3.644531 48.058594 3.609375 47.746094 3.578125 47.4375 C 3.542969 47.128906 3.515625 46.820312 3.492188 46.507812 C 3.46875 46.199219 3.445312 45.886719 3.429688 45.578125 C 3.414062 45.265625 3.398438 44.957031 3.390625 44.644531 C 3.382812 44.335938 3.375 44.023438 3.375 43.710938 C 3.371094 43.402344 3.375 43.089844 3.382812 42.777344 C 3.386719 42.46875 3.398438 42.15625 3.410156 41.847656 C 3.425781 41.535156 3.441406 41.226562 3.464844 40.914062 C 3.484375 40.605469 3.511719 40.292969 3.539062 39.984375 C 3.570312 39.675781 3.601562 39.363281 3.636719 39.054688 C 3.675781 38.746094 3.714844 38.4375 3.761719 38.132812 C 3.804688 37.824219 3.851562 37.515625 3.90625 37.207031 C 3.957031 36.902344 4.011719 36.597656 4.070312 36.289062 C 4.132812 35.984375 4.195312 35.679688 4.261719 35.375 C 4.328125 35.074219 4.398438 34.769531 4.472656 34.46875 C 4.546875 34.164062 4.625 33.863281 4.707031 33.5625 C 4.789062 33.265625 4.875 32.964844 4.964844 32.667969 C 5.054688 32.371094 5.148438 32.070312 5.242188 31.777344 C 5.320312 31.539062 5.402344 31.304688 5.484375 31.070312 C 5.566406 30.835938 5.648438 30.601562 5.734375 30.367188 C 5.824219 30.136719 5.910156 29.902344 6 29.671875 C 6.09375 29.441406 6.183594 29.210938 6.28125 28.980469 C 6.375 28.75 6.472656 28.523438 6.570312 28.292969 C 6.671875 28.066406 6.773438 27.839844 6.875 27.613281 C 6.980469 27.386719 7.085938 27.160156 7.191406 26.9375 C 7.300781 26.714844 7.410156 26.492188 7.519531 26.269531 C 7.632812 26.046875 7.746094 25.824219 7.863281 25.605469 C 7.976562 25.386719 8.09375 25.167969 8.214844 24.949219 C 8.335938 24.730469 8.457031 24.515625 8.582031 24.296875 C 8.703125 24.082031 8.832031 23.867188 8.957031 23.65625 C 9.085938 23.441406 9.214844 23.230469 9.347656 23.019531 C 9.480469 22.808594 9.613281 22.597656 9.75 22.390625 C 9.882812 22.183594 10.019531 21.976562 10.160156 21.769531 C 10.300781 21.5625 10.441406 21.359375 10.585938 21.15625 C 10.726562 20.953125 10.871094 20.75 11.019531 20.550781 C 11.167969 20.347656 11.316406 20.148438 11.464844 19.953125 C 11.617188 19.753906 11.769531 19.558594 11.921875 19.363281 C 12.078125 19.167969 12.234375 18.972656 12.390625 18.78125 C 12.546875 18.589844 12.707031 18.398438 12.867188 18.210938 C 13.03125 18.019531 13.191406 17.832031 13.359375 17.648438 C 13.523438 17.460938 13.6875 17.277344 13.855469 17.09375 C 14.023438 16.910156 14.195312 16.730469 14.367188 16.550781 C 14.539062 16.367188 14.710938 16.191406 14.886719 16.015625 C 15.0625 15.835938 15.238281 15.660156 15.414062 15.488281 C 15.59375 15.316406 15.773438 15.144531 15.953125 14.972656 C 16.136719 14.800781 16.316406 14.632812 16.503906 14.46875 C 16.6875 14.300781 16.871094 14.136719 17.058594 13.972656 C 17.246094 13.808594 17.4375 13.648438 17.625 13.488281 C 17.816406 13.328125 18.007812 13.167969 18.203125 13.011719 C 18.394531 12.855469 18.589844 12.703125 18.785156 12.550781 C 19.648438 11.871094 20.53125 11.265625 21.433594 10.648438 C 21.757812 10.429688 22.066406 10.167969 22.421875 10 C 22.476562 9.976562 22.488281 9.972656 22.539062 9.957031 C 22.304688 10.152344 22.070312 10.355469 21.839844 10.554688 Z M 64.40625 6.359375 C 64.609375 6.464844 64.808594 6.578125 65.007812 6.6875 C 65.210938 6.800781 65.410156 6.914062 65.605469 7.027344 C 65.804688 7.144531 66 7.261719 66.195312 7.378906 C 66.390625 7.5 66.585938 7.621094 66.777344 7.742188 C 66.972656 7.867188 67.164062 7.988281 67.355469 8.117188 C 67.546875 8.242188 67.738281 8.371094 67.925781 8.5 C 68.113281 8.628906 68.300781 8.761719 68.488281 8.894531 C 68.675781 9.027344 68.859375 9.160156 69.042969 9.296875 C 69.226562 9.433594 69.410156 9.570312 69.589844 9.710938 C 69.773438 9.851562 69.953125 9.992188 70.128906 10.136719 C 70.308594 10.277344 70.488281 10.425781 70.664062 10.570312 C 70.839844 10.714844 71.011719 10.863281 71.1875 11.015625 C 71.359375 11.164062 71.53125 11.316406 71.703125 11.46875 C 71.871094 11.621094 72.042969 11.773438 72.210938 11.929688 C 72.378906 12.085938 72.542969 12.242188 72.707031 12.402344 C 72.875 12.5625 73.035156 12.722656 73.199219 12.882812 C 73.359375 13.042969 73.519531 13.207031 73.679688 13.371094 C 73.839844 13.539062 73.996094 13.703125 74.152344 13.871094 C 74.308594 14.039062 74.460938 14.207031 74.613281 14.378906 C 74.769531 14.550781 74.917969 14.722656 75.066406 14.894531 C 75.21875 15.066406 75.367188 15.242188 75.511719 15.417969 C 75.660156 15.59375 75.804688 15.773438 75.945312 15.949219 C 76.089844 16.128906 76.230469 16.308594 76.371094 16.492188 C 76.511719 16.671875 76.648438 16.855469 76.785156 17.039062 C 76.921875 17.222656 77.054688 17.40625 77.191406 17.59375 C 77.324219 17.777344 77.453125 17.964844 77.582031 18.15625 C 77.714844 18.34375 77.839844 18.535156 77.96875 18.726562 C 78.09375 18.914062 78.21875 19.109375 78.339844 19.300781 C 78.464844 19.496094 78.585938 19.6875 78.703125 19.882812 C 78.820312 20.078125 78.9375 20.277344 79.054688 20.472656 C 79.171875 20.671875 79.285156 20.871094 79.394531 21.070312 C 79.507812 21.269531 79.617188 21.472656 79.726562 21.671875 C 81.085938 24.210938 82.023438 26.734375 82.824219 29.492188 C 81.753906 30.316406 81.59375 32.765625 81.207031 34.03125 C 80.914062 34.996094 80.492188 35.890625 79.859375 36.679688 C 78.703125 38.121094 77 39.390625 75.207031 39.882812 C 74.578125 40.054688 73.875 40.113281 73.296875 40.4375 C 72.691406 40.773438 72.40625 41.492188 71.761719 41.765625 C 71.144531 42.023438 70.421875 41.832031 69.816406 42.171875 C 68.847656 42.714844 67.480469 46.242188 66.582031 46.105469 C 66.035156 46.019531 65.65625 45.75 65.125 46.109375 C 64.578125 46.480469 64.285156 47.214844 64.183594 47.84375 C 64.050781 48.664062 64.191406 49.457031 64.6875 50.132812 C 64.917969 50.441406 65.195312 50.710938 65.445312 51.003906 C 66.0625 51.738281 66.015625 52.515625 65.882812 53.410156 C 65.535156 55.789062 64.25 58.945312 62.273438 60.40625 C 61.84375 60.726562 61.375 60.984375 60.914062 61.257812 C 59.1875 62.292969 58.621094 63.097656 58.316406 65.109375 C 58.195312 65.894531 58.160156 66.695312 58.109375 67.488281 C 57.984375 69.46875 57.761719 71.296875 56.929688 73.128906 C 56.667969 73.710938 56.363281 74.335938 55.957031 74.835938 C 54.757812 75.246094 53.484375 75.46875 52.238281 75.6875 L 52.203125 75.625 C 52.183594 75.597656 52.167969 75.570312 52.148438 75.542969 C 51.199219 74.058594 50.472656 73.738281 48.855469 73.3125 C 48.351562 73.179688 47.84375 73.011719 47.410156 72.710938 C 46.714844 72.222656 46.367188 71.316406 45.652344 70.902344 C 44.925781 70.476562 44.125 70.539062 43.382812 69.953125 C 42.425781 69.195312 42.339844 67.820312 41.289062 67.109375 C 40.792969 66.78125 40.25 66.617188 39.6875 66.441406 C 38.59375 66.101562 37.585938 65.664062 36.773438 64.824219 C 36.015625 64.035156 35.53125 62.933594 35.324219 61.863281 C 35.109375 60.742188 35.09375 59.984375 34.390625 59.035156 C 33.546875 57.890625 31.207031 56.144531 31.59375 54.554688 C 31.726562 54 32.125 53.582031 32.605469 53.300781 C 32.960938 53.089844 33.359375 52.953125 33.761719 52.867188 C 36.265625 52.4375 39.871094 52.347656 41.964844 50.855469 C 42.554688 50.4375 43.003906 49.898438 43.417969 49.3125 C 44.414062 47.90625 45.089844 46.878906 46.914062 46.558594 C 48.078125 46.355469 49.824219 46.53125 50.605469 45.472656 C 51.203125 44.65625 51.230469 43.800781 52.4375 43.582031 C 53.496094 43.390625 54.574219 43.863281 55.648438 43.816406 C 57.640625 43.726562 59.339844 41.988281 61.292969 43.382812 C 62.382812 44.160156 62.777344 45.199219 64.371094 44.941406 C 65.207031 44.804688 66.238281 44.476562 66.761719 43.761719 C 67.476562 42.785156 66.726562 41.703125 67.253906 41.011719 C 67.945312 40.105469 69.71875 40.519531 69.433594 38.773438 C 69.335938 38.1875 68.414062 36.785156 68.839844 36.261719 C 68.972656 36.097656 69.277344 36.070312 69.476562 36.0625 C 70.074219 36.050781 70.691406 36.390625 71.105469 36.808594 C 71.566406 37.277344 71.832031 38.03125 72.605469 38.035156 C 73.519531 38.042969 74.953125 37.328125 75.585938 36.679688 C 76.292969 35.957031 76.605469 34.929688 76.585938 33.933594 C 76.554688 32.625 75.917969 30.996094 74.957031 30.089844 C 74.320312 29.492188 73.484375 29.300781 72.632812 29.332031 C 71.910156 29.359375 71.214844 29.539062 70.5 29.601562 C 69.90625 29.652344 69.292969 29.546875 68.699219 29.5 C 68.414062 29.476562 67.082031 29.300781 66.929688 29.46875 C 66.714844 29.707031 66.710938 30.382812 66.632812 30.703125 C 66.519531 31.152344 66.03125 32.613281 65.519531 32.695312 C 65.425781 32.710938 65.363281 32.695312 65.269531 32.675781 C 65.191406 32.539062 65.207031 32.402344 65.246094 32.25 C 65.316406 31.960938 65.457031 31.679688 65.566406 31.402344 C 65.921875 30.507812 66.109375 29.679688 65.585938 28.792969 C 64.960938 27.742188 63.675781 27.417969 63.007812 26.515625 C 62.59375 25.960938 63.011719 25.160156 62.53125 24.601562 C 62.503906 24.566406 62.472656 24.535156 62.441406 24.507812 C 61.808594 23.914062 60.625 23.925781 60.132812 23.355469 C 59.574219 22.707031 60.128906 21.746094 59.375 21.042969 C 58.425781 20.164062 56.855469 19.730469 55.71875 19.09375 C 55.417969 18.925781 54.605469 18.496094 54.4375 18.199219 C 54.375 18.078125 54.382812 17.925781 54.414062 17.796875 C 54.566406 17.199219 54.929688 16.753906 54.570312 16.128906 C 54.207031 15.5 53.363281 15.003906 52.695312 14.769531 C 51.894531 14.488281 50.550781 14.425781 50.894531 13.179688 C 51.0625 12.558594 52.121094 12.15625 52.519531 11.570312 C 52.871094 11.0625 53.148438 9.660156 53.609375 9.363281 C 53.714844 9.292969 53.867188 9.308594 53.980469 9.355469 C 54.574219 9.59375 55.011719 10.292969 55.75 10.015625 C 56.277344 9.816406 56.570312 9.289062 56.839844 8.832031 C 57.292969 9.039062 57.652344 9.285156 57.964844 9.675781 C 58.300781 10.089844 58.542969 10.578125 58.777344 11.054688 C 59.285156 12.097656 60.640625 15.671875 62.269531 15.078125 C 62.457031 15.007812 62.617188 14.886719 62.703125 14.703125 C 63.132812 13.722656 62.585938 13.308594 63.960938 12.734375 C 64.578125 12.476562 65.652344 12.246094 65.925781 11.554688 C 66.046875 11.238281 65.972656 10.894531 65.828125 10.597656 C 64.527344 7.921875 62.152344 7.457031 59.660156 6.402344 C 59.1875 6.203125 58.636719 6.011719 58.285156 5.621094 C 58.417969 5.390625 59.179688 4.199219 59.363281 4.164062 C 59.371094 4.164062 59.378906 4.164062 59.386719 4.164062 C 61.121094 4.691406 62.8125 5.5 64.40625 6.359375 Z M 57.101562 3.453125 C 57.613281 3.59375 58.148438 3.710938 58.644531 3.898438 C 58.496094 4.226562 58.332031 4.570312 57.972656 4.695312 C 57.09375 5.003906 55.683594 3.816406 54.636719 4.140625 C 54.214844 4.273438 53.777344 4.601562 53.417969 4.847656 C 53.03125 5.117188 52.535156 5.433594 52.304688 5.855469 C 52.183594 6.082031 52.148438 6.328125 52.230469 6.574219 C 52.390625 7.078125 52.949219 7.382812 53.398438 7.601562 C 54.28125 8.023438 55.273438 8.085938 56.148438 8.523438 C 56.046875 8.78125 55.910156 9.203125 55.628906 9.308594 C 55.472656 9.363281 55.292969 9.3125 55.15625 9.234375 C 54.679688 8.957031 54.125 8.453125 53.523438 8.601562 C 53.15625 8.691406 52.917969 9.003906 52.746094 9.316406 C 52.414062 9.910156 52.28125 10.609375 51.898438 11.175781 C 51.242188 12.148438 49.761719 12.40625 50.207031 13.964844 C 50.273438 14.195312 50.394531 14.402344 50.527344 14.601562 C 50.023438 14.824219 49.703125 15.125 49.503906 15.65625 C 49.371094 16.007812 49.332031 16.40625 49.503906 16.75 C 49.648438 17.046875 49.929688 17.265625 50.242188 17.363281 C 51.285156 17.6875 52.59375 16.945312 53.582031 17.492188 C 53.714844 17.839844 53.601562 18.152344 53.824219 18.535156 C 54.605469 19.875 57.917969 20.484375 58.914062 21.636719 C 59.546875 22.375 58.683594 23.570312 60.355469 24.316406 C 60.78125 24.503906 61.867188 24.738281 62.046875 25.195312 C 62.292969 25.824219 61.957031 26.25 62.492188 27.023438 C 63.207031 28.054688 64.816406 28.203125 65.15625 29.5625 C 65.300781 30.140625 65.140625 30.707031 64.890625 31.230469 C 64.664062 31.703125 64.292969 32.230469 64.484375 32.78125 C 64.582031 33.0625 64.824219 33.25 65.089844 33.359375 C 65.359375 33.46875 65.636719 33.46875 65.898438 33.34375 C 66.660156 32.972656 67.066406 31.78125 67.300781 31.03125 C 67.394531 30.726562 67.449219 30.421875 67.527344 30.117188 C 68.433594 30.140625 69.34375 30.339844 70.246094 30.339844 C 71.847656 30.34375 73.300781 29.382812 74.65625 30.820312 C 75.453125 31.667969 75.917969 33.027344 75.871094 34.183594 C 75.839844 35 75.570312 35.730469 74.957031 36.289062 C 74.328125 36.863281 73.359375 37.304688 72.503906 37.359375 C 72.492188 37.347656 72.480469 37.339844 72.46875 37.328125 C 72.160156 37.074219 71.945312 36.710938 71.679688 36.410156 C 71.136719 35.789062 70.140625 35.320312 69.308594 35.390625 C 68.929688 35.421875 68.585938 35.582031 68.34375 35.875 C 68.316406 35.90625 68.292969 35.941406 68.269531 35.972656 C 67.714844 35.25 67.097656 34.710938 66.164062 34.589844 C 65.421875 34.496094 64.613281 34.636719 64.019531 35.109375 C 63.589844 35.449219 63.269531 35.921875 62.855469 36.285156 C 61.421875 37.546875 59.589844 38.0625 57.699219 37.875 C 57.644531 37.871094 57.59375 37.863281 57.539062 37.855469 C 59.679688 37.484375 60.976562 37.355469 62.777344 35.953125 C 63.113281 35.691406 63.507812 35.414062 63.757812 35.066406 C 63.828125 34.964844 63.871094 34.882812 63.867188 34.753906 C 63.800781 34.664062 63.753906 34.621094 63.640625 34.601562 C 63.414062 34.558594 63.222656 34.6875 63.050781 34.820312 C 62.664062 35.125 62.300781 35.457031 61.898438 35.746094 C 60.839844 36.503906 59.636719 36.796875 58.375 37.015625 C 57.75 37.121094 57.089844 37.199219 56.480469 37.386719 C 56.269531 37.449219 55.90625 37.601562 55.863281 37.855469 C 55.84375 37.960938 55.878906 38.054688 55.945312 38.136719 C 56.246094 38.519531 57.773438 38.566406 58.28125 38.582031 C 60.167969 38.632812 61.960938 38.074219 63.34375 36.75 C 64.121094 36.003906 64.609375 35.257812 65.804688 35.273438 C 66.378906 35.277344 66.789062 35.394531 67.203125 35.816406 C 67.480469 36.101562 67.730469 36.410156 68.015625 36.683594 C 68.066406 37.003906 68.121094 37.324219 68.226562 37.628906 C 68.378906 38.070312 69.015625 38.886719 68.675781 39.328125 C 68.050781 40.136719 66.136719 39.792969 66.304688 41.746094 C 66.34375 42.175781 66.410156 42.578125 66.390625 43.011719 L 66.363281 43.0625 C 65.972656 43.726562 65.277344 43.945312 64.574219 44.121094 C 64.046875 44.253906 63.632812 44.289062 63.148438 43.988281 C 62.722656 43.726562 62.371094 43.324219 61.996094 42.996094 C 61.074219 42.1875 59.902344 41.945312 58.71875 42.199219 C 57.679688 42.417969 56.722656 42.980469 55.664062 43.097656 C 54.976562 43.175781 54.308594 42.953125 53.636719 42.84375 C 52.472656 42.65625 51.257812 42.933594 50.589844 43.988281 C 50.078125 44.800781 50.113281 45.292969 49.039062 45.546875 C 47.964844 45.804688 46.859375 45.730469 45.800781 46.113281 C 43.183594 47.054688 43.085938 49.613281 40.992188 50.609375 C 39.257812 51.433594 37.136719 51.652344 35.253906 51.914062 C 34.335938 52.042969 33.332031 52.128906 32.476562 52.507812 C 31.964844 52.734375 31.488281 53.140625 31.1875 53.613281 C 30.832031 54.171875 30.738281 54.832031 30.890625 55.472656 C 31.351562 57.378906 33.253906 58.351562 34.085938 60.019531 C 34.386719 60.621094 34.433594 61.285156 34.550781 61.933594 C 34.707031 62.785156 35.015625 63.632812 35.46875 64.375 C 35.527344 64.46875 35.589844 64.566406 35.65625 64.65625 C 35.71875 64.75 35.785156 64.839844 35.855469 64.929688 C 35.925781 65.019531 36 65.105469 36.074219 65.191406 C 36.152344 65.273438 36.230469 65.355469 36.308594 65.4375 C 36.390625 65.515625 36.472656 65.59375 36.558594 65.667969 C 36.644531 65.742188 36.730469 65.816406 36.820312 65.886719 C 36.910156 65.957031 37 66.023438 37.09375 66.085938 C 37.1875 66.152344 37.28125 66.214844 37.378906 66.269531 C 37.601562 66.402344 37.824219 66.523438 38.058594 66.632812 C 38.289062 66.742188 38.527344 66.839844 38.769531 66.925781 C 39.464844 67.171875 40.292969 67.300781 40.886719 67.757812 C 41.691406 68.382812 41.867188 69.507812 42.546875 70.25 C 43.101562 70.855469 43.773438 71.109375 44.535156 71.351562 C 44.796875 71.433594 45.074219 71.507812 45.304688 71.660156 C 45.566406 71.832031 45.769531 72.121094 45.964844 72.363281 C 46.460938 72.96875 46.972656 73.394531 47.6875 73.722656 C 49.234375 74.4375 50.464844 74.1875 51.488281 75.90625 C 47.808594 76.320312 44.0625 76.046875 40.4375 75.339844 C 39.378906 75.132812 38.328125 74.882812 37.289062 74.597656 C 36.246094 74.316406 35.21875 73.992188 34.203125 73.632812 C 27.253906 71.121094 20.363281 66.339844 16.269531 60.125 C 16.210938 60.035156 16.152344 59.941406 16.097656 59.847656 C 16.386719 59.511719 16.546875 59.265625 16.503906 58.800781 C 16.421875 57.898438 15.375 56.410156 15.195312 55.195312 C 15.003906 53.902344 15.71875 52.550781 15.355469 51.328125 C 15.078125 50.40625 14.167969 49.847656 13.792969 48.984375 C 14.519531 48.566406 15.230469 48.230469 15.464844 47.34375 C 15.644531 46.667969 15.574219 45.933594 15.683594 45.242188 C 16.570312 45.464844 17.449219 45.734375 18.3125 46.042969 C 19.476562 46.457031 20.777344 47.074219 22.007812 47.179688 C 22.457031 47.21875 22.808594 47.167969 23.203125 46.9375 C 24.027344 46.453125 26.765625 43.117188 27.355469 42.226562 C 27.625 41.8125 27.882812 41.335938 28.003906 40.855469 C 28.203125 40.054688 27.875 39.238281 27.566406 38.515625 C 27.453125 38.253906 27.316406 37.980469 27.292969 37.691406 C 27.183594 36.523438 28.714844 35.417969 27.789062 33.925781 C 27.378906 33.265625 26.617188 32.917969 26.167969 32.261719 C 25.648438 31.503906 25.375 30.65625 24.949219 29.851562 C 23.996094 28.0625 21.773438 27.078125 19.878906 26.664062 C 18.320312 26.324219 16.980469 27.0625 15.707031 27.890625 C 14.175781 28.890625 13.078125 29.5625 11.175781 29.269531 C 11.292969 28.773438 11.414062 28.292969 11.625 27.832031 C 11.851562 27.699219 12.066406 27.570312 12.242188 27.367188 C 12.554688 27.015625 12.703125 26.53125 12.980469 26.144531 C 13.472656 25.460938 14.058594 24.851562 14.554688 24.167969 C 14.675781 24.527344 14.789062 24.824219 15.152344 25.003906 C 15.453125 25.152344 15.804688 25.121094 16.109375 25.007812 C 17.859375 24.347656 17.929688 21.414062 20.117188 22.363281 C 22.464844 23.382812 21.234375 26.6875 24.8125 26.71875 C 25.335938 26.722656 25.964844 26.746094 26.464844 26.554688 C 26.917969 26.382812 27.179688 26.011719 27.363281 25.582031 C 27.542969 25.160156 27.636719 24.703125 27.800781 24.277344 C 27.90625 24 28.097656 23.730469 28.15625 23.4375 C 28.191406 23.242188 28.175781 23.03125 28.101562 22.847656 C 27.929688 22.441406 27.488281 22.214844 27.097656 22.070312 C 26.667969 21.910156 25.972656 21.878906 25.644531 21.546875 C 25.597656 21.414062 25.589844 21.335938 25.660156 21.207031 C 25.789062 20.957031 26.027344 20.757812 26.238281 20.578125 C 27.191406 19.757812 28.191406 19.152344 27.792969 17.679688 C 27.46875 16.472656 26.40625 15.605469 25.53125 14.785156 C 25.257812 14.53125 24.925781 14.242188 24.746094 13.910156 C 24.289062 13.066406 25.4375 11.675781 24.511719 11.125 C 24.054688 10.851562 23.441406 10.875 22.925781 10.890625 C 24.015625 9.886719 25.214844 8.921875 26.457031 8.117188 C 27.09375 7.703125 27.769531 7.335938 28.429688 6.960938 C 28.742188 6.789062 29.191406 6.449219 29.539062 6.398438 C 29.648438 6.4375 29.707031 6.453125 29.773438 6.558594 C 29.902344 6.757812 29.789062 7.097656 29.710938 7.292969 C 29.066406 8.980469 26.035156 12.292969 26.785156 14.019531 C 26.855469 14.175781 26.964844 14.292969 27.128906 14.351562 C 27.429688 14.457031 27.753906 14.382812 28.027344 14.238281 C 28.59375 13.9375 28.640625 13.742188 29.34375 13.613281 C 29.082031 13.984375 28.613281 14.539062 28.710938 15.019531 C 28.746094 15.1875 28.847656 15.3125 28.996094 15.40625 C 29.089844 15.464844 29.191406 15.503906 29.300781 15.535156 C 29.636719 15.628906 29.988281 15.648438 30.328125 15.722656 C 30.570312 15.777344 30.804688 15.886719 31.050781 15.933594 C 31.121094 15.949219 31.21875 15.957031 31.292969 15.945312 C 31.726562 15.878906 32.480469 14.648438 32.691406 14.261719 C 32.8125 14.046875 32.960938 13.691406 32.859375 13.441406 C 32.796875 13.292969 32.597656 13.183594 32.449219 13.144531 C 32.179688 13.074219 31.753906 13.117188 31.59375 12.855469 C 31.324219 12.417969 31.363281 11.605469 30.75 11.441406 C 30.3125 11.320312 29.558594 11.660156 29.1875 11.886719 C 28.453125 12.335938 28.101562 13.667969 27.507812 13.585938 C 27.394531 13.46875 27.371094 13.386719 27.375 13.222656 C 27.453125 11.480469 30.53125 8.359375 30.53125 6.777344 C 30.53125 6.484375 30.382812 6.238281 30.246094 5.992188 C 32.394531 4.902344 34.664062 4.109375 36.964844 3.402344 C 37.566406 3.21875 38.160156 3.007812 38.769531 2.84375 L 38.742188 2.914062 C 38.492188 3.515625 37.710938 4.382812 37.96875 5.046875 C 38.074219 5.316406 38.300781 5.519531 38.5625 5.628906 C 39.058594 5.832031 39.609375 5.683594 40.101562 5.863281 C 40.617188 6.050781 41.058594 6.476562 41.546875 6.734375 C 42.117188 7.039062 43.824219 7.640625 44.136719 7.964844 C 44.210938 8.132812 44.175781 8.226562 44.109375 8.386719 C 43.847656 9.035156 43.449219 9.5625 43.761719 10.289062 C 43.773438 10.3125 43.78125 10.332031 43.792969 10.355469 C 43.804688 10.375 43.816406 10.398438 43.828125 10.417969 C 43.839844 10.441406 43.851562 10.460938 43.863281 10.480469 C 43.875 10.5 43.890625 10.519531 43.902344 10.539062 C 43.917969 10.558594 43.933594 10.578125 43.945312 10.597656 C 43.960938 10.617188 43.976562 10.636719 43.992188 10.652344 C 44.007812 10.671875 44.023438 10.6875 44.042969 10.707031 C 44.058594 10.722656 44.074219 10.738281 44.09375 10.757812 C 44.109375 10.773438 44.128906 10.789062 44.148438 10.804688 C 44.164062 10.820312 44.183594 10.835938 44.203125 10.847656 C 44.222656 10.863281 44.242188 10.878906 44.261719 10.890625 C 44.28125 10.902344 44.304688 10.917969 44.324219 10.929688 C 44.34375 10.941406 44.363281 10.953125 44.386719 10.964844 C 44.40625 10.976562 44.429688 10.984375 44.449219 10.996094 C 44.472656 11.007812 44.496094 11.015625 44.515625 11.023438 C 44.539062 11.035156 44.5625 11.042969 44.585938 11.050781 C 45.128906 11.238281 45.699219 11.058594 46.191406 10.808594 C 46.757812 10.519531 47.277344 10.136719 47.800781 9.777344 C 48.839844 9.066406 50.242188 8.261719 50.664062 6.988281 C 50.933594 6.160156 50.464844 5.382812 50.519531 4.546875 C 50.984375 3.824219 51.714844 3.8125 52.386719 3.402344 C 52.753906 3.175781 52.992188 2.867188 53.269531 2.546875 L 53.355469 2.550781 C 54.621094 2.808594 55.859375 3.109375 57.101562 3.453125 Z M 57.101562 3.453125 " fill-opacity="1" fill-rule="nonzero"/></g></g></g></g></svg>