<svg xmlns="http://www.w3.org/2000/svg" xmlns:xlink="http://www.w3.org/1999/xlink" width="230" zoomAndPan="magnify" viewBox="0 0 172.5 167.249994" height="223" preserveAspectRatio="xMidYMid meet" version="1.0"><defs><clipPath id="16b64c6351"><path d="M 0.136719 0 L 171.867188 0 L 171.867188 166.503906 L 0.136719 166.503906 Z M 0.136719 0 " clip-rule="nonzero"/></clipPath><clipPath id="d0cce050d9"><path d="M 2.75 0 L 171.867188 0 L 171.867188 166.503906 L 2.75 166.503906 Z M 2.75 0 " clip-rule="nonzero"/></clipPath></defs><g clip-path="url(#16b64c6351)"><path fill="#ffffff" d="M 0.136719 0 L 171.867188 0 L 171.867188 166.503906 L 0.136719 166.503906 Z M 0.136719 0 " fill-opacity="1" fill-rule="nonzero"/><path fill="#ffffff" d="M 0.136719 0 L 171.867188 0 L 171.867188 166.503906 L 0.136719 166.503906 Z M 0.136719 0 " fill-opacity="1" fill-rule="nonzero"/></g><g clip-path="url(#d0cce050d9)"><path fill="#204ecf" d="M 103.238281 74.214844 C 103.238281 73.054688 104.179688 72.109375 105.34375 72.109375 L 117.679688 72.109375 C 117.851562 72.105469 118.015625 72.125 118.179688 72.160156 C 118.429688 72.214844 118.65625 72.3125 118.863281 72.445312 C 119.125 72.613281 119.339844 72.835938 119.5 73.085938 C 119.65625 73.335938 119.765625 73.621094 119.808594 73.929688 C 119.84375 74.171875 119.832031 74.425781 119.777344 74.671875 C 119.738281 74.839844 119.683594 74.996094 119.609375 75.148438 L 109.929688 95.796875 C 109.574219 96.5625 108.816406 97.011719 108.023438 97.011719 C 107.722656 97.011719 107.417969 96.949219 107.132812 96.808594 C 106.078125 96.316406 105.625 95.0625 106.117188 94.011719 L 114.410156 76.320312 L 105.34375 76.320312 C 104.179688 76.320312 103.238281 75.375 103.238281 74.214844 Z M 70.046875 90.035156 C 70.425781 90.691406 71.121094 91.09375 71.875 91.09375 L 80.238281 91.09375 L 80.238281 94.902344 C 80.238281 96.0625 81.183594 97.007812 82.34375 97.007812 C 83.503906 97.007812 84.449219 96.0625 84.449219 94.902344 L 84.449219 91.09375 L 84.976562 91.09375 C 86.140625 91.09375 87.082031 90.152344 87.082031 88.988281 C 87.082031 87.828125 86.140625 86.882812 84.976562 86.882812 L 84.449219 86.882812 L 84.449219 81.972656 C 84.449219 80.8125 83.503906 79.867188 82.34375 79.867188 C 81.183594 79.867188 80.238281 80.8125 80.238281 81.972656 L 80.238281 86.882812 L 75.5625 86.882812 L 82.410156 75.285156 C 83 74.285156 82.667969 72.992188 81.664062 72.402344 C 80.664062 71.808594 79.375 72.140625 78.78125 73.144531 L 70.0625 87.917969 C 69.679688 88.570312 69.671875 89.375 70.046875 90.035156 Z M 55.84375 79.011719 C 56.847656 79.589844 58.136719 79.242188 58.714844 78.234375 C 59.386719 77.070312 60.644531 76.335938 61.996094 76.320312 C 62.976562 76.300781 63.886719 76.679688 64.582031 77.367188 C 65.296875 78.074219 65.691406 79.023438 65.691406 80.039062 C 65.691406 81.417969 64.125 83.34375 62.746094 85.046875 C 62.351562 85.535156 61.945312 86.039062 61.566406 86.535156 L 55.324219 93.5 C 54.769531 94.117188 54.632812 95.003906 54.96875 95.761719 C 55.308594 96.519531 56.058594 97.007812 56.890625 97.007812 L 69.40625 97.007812 C 70.566406 97.007812 71.511719 96.0625 71.511719 94.902344 C 71.511719 93.742188 70.566406 92.796875 69.40625 92.796875 L 61.601562 92.796875 L 64.757812 89.277344 C 64.796875 89.234375 64.835938 89.191406 64.871094 89.144531 C 65.222656 88.679688 65.605469 88.203125 66.015625 87.695312 C 67.839844 85.453125 69.902344 82.910156 69.902344 80.035156 C 69.902344 77.886719 69.0625 75.875 67.539062 74.371094 C 66.042969 72.886719 64.054688 72.089844 61.949219 72.105469 C 59.113281 72.136719 56.472656 73.679688 55.0625 76.132812 C 54.488281 77.144531 54.835938 78.429688 55.84375 79.011719 Z M 89.902344 96.84375 C 90.160156 96.945312 90.421875 96.992188 90.683594 96.992188 C 91.519531 96.992188 92.3125 96.492188 92.640625 95.667969 L 100.875 75.007812 C 101.308594 73.925781 100.78125 72.703125 99.699219 72.273438 C 98.621094 71.84375 97.394531 72.371094 96.96875 73.449219 L 88.730469 94.109375 C 88.296875 95.191406 88.824219 96.414062 89.902344 96.84375 Z M 38.980469 84.558594 C 38.980469 57.910156 60.660156 36.230469 87.308594 36.230469 C 113.957031 36.230469 135.636719 57.910156 135.636719 84.558594 C 135.636719 111.207031 113.957031 132.886719 87.308594 132.886719 C 60.660156 132.886719 38.980469 111.207031 38.980469 84.558594 Z M 50.207031 60.707031 L 54.179688 62.996094 C 55.1875 63.582031 55.53125 64.867188 54.949219 65.875 C 54.5625 66.546875 53.851562 66.925781 53.125 66.925781 C 52.769531 66.925781 52.40625 66.835938 52.078125 66.648438 L 48.101562 64.351562 C 45.265625 69.820312 43.546875 75.957031 43.238281 82.453125 L 47.835938 82.453125 C 48.996094 82.453125 49.941406 83.398438 49.941406 84.558594 C 49.941406 85.71875 48.996094 86.664062 47.835938 86.664062 L 43.238281 86.664062 C 43.542969 93.160156 45.265625 99.292969 48.09375 104.765625 L 52.070312 102.46875 C 53.078125 101.890625 54.363281 102.234375 54.949219 103.242188 C 55.53125 104.25 55.183594 105.535156 54.175781 106.117188 L 50.203125 108.410156 C 53.625 113.710938 58.152344 118.238281 63.453125 121.660156 L 65.742188 117.6875 C 66.324219 116.679688 67.613281 116.335938 68.621094 116.914062 C 69.628906 117.496094 69.972656 118.785156 69.394531 119.792969 L 67.097656 123.765625 C 72.566406 126.597656 78.699219 128.316406 85.199219 128.625 L 85.199219 124.027344 C 85.199219 122.867188 86.144531 121.921875 87.304688 121.921875 C 88.464844 121.921875 89.410156 122.867188 89.410156 124.027344 L 89.410156 128.625 C 95.90625 128.316406 102.039062 126.597656 107.511719 123.765625 L 105.214844 119.792969 C 104.632812 118.785156 104.980469 117.496094 105.988281 116.914062 C 106.996094 116.335938 108.28125 116.679688 108.863281 117.6875 L 111.15625 121.660156 C 116.457031 118.238281 120.984375 113.710938 124.40625 108.410156 L 120.433594 106.117188 C 119.425781 105.535156 119.082031 104.25 119.660156 103.242188 C 120.242188 102.234375 121.53125 101.890625 122.539062 102.46875 L 126.511719 104.765625 C 129.34375 99.292969 131.0625 93.160156 131.371094 86.664062 L 126.773438 86.664062 C 125.613281 86.664062 124.667969 85.71875 124.667969 84.558594 C 124.667969 83.398438 125.613281 82.453125 126.773438 82.453125 L 131.371094 82.453125 C 131.0625 75.957031 129.34375 69.820312 126.511719 64.351562 L 122.539062 66.648438 C 122.203125 66.839844 121.84375 66.925781 121.488281 66.925781 C 120.761719 66.925781 120.054688 66.546875 119.664062 65.875 C 119.082031 64.867188 119.429688 63.582031 120.4375 62.996094 L 124.40625 60.707031 C 120.988281 55.40625 116.460938 50.878906 111.160156 47.457031 L 108.867188 51.429688 C 108.480469 52.101562 107.769531 52.480469 107.042969 52.480469 C 106.6875 52.480469 106.324219 52.390625 105.996094 52.199219 C 104.988281 51.617188 104.644531 50.328125 105.222656 49.320312 L 107.515625 45.347656 C 102.042969 42.519531 95.910156 40.796875 89.414062 40.488281 L 89.414062 45.085938 C 89.414062 46.246094 88.46875 47.191406 87.308594 47.191406 C 86.144531 47.191406 85.203125 46.246094 85.203125 45.085938 L 85.203125 40.488281 C 78.703125 40.796875 72.570312 42.515625 67.101562 45.34375 L 69.394531 49.320312 C 69.980469 50.328125 69.632812 51.617188 68.625 52.199219 C 68.292969 52.390625 67.929688 52.480469 67.574219 52.480469 C 66.847656 52.480469 66.140625 52.101562 65.75 51.429688 L 63.460938 47.457031 C 58.15625 50.878906 53.628906 55.40625 50.207031 60.707031 Z M 29.578125 84.558594 C 29.578125 52.726562 55.476562 26.832031 87.308594 26.832031 C 119.136719 26.832031 145.035156 52.726562 145.035156 84.558594 C 145.035156 116.390625 119.136719 142.285156 87.308594 142.285156 C 55.476562 142.285156 29.578125 116.390625 29.578125 84.558594 Z M 33.789062 84.558594 C 33.789062 114.070312 57.800781 138.074219 87.308594 138.074219 C 116.816406 138.074219 140.824219 114.070312 140.824219 84.558594 C 140.824219 55.046875 116.816406 31.039062 87.308594 31.039062 C 57.800781 31.039062 33.789062 55.046875 33.789062 84.558594 Z M 6.960938 84.558594 C 6.960938 40.253906 43.003906 4.210938 87.308594 4.210938 C 102.574219 4.210938 117.253906 8.449219 130.039062 16.503906 L 120.894531 18.351562 C 119.753906 18.582031 119.019531 19.691406 119.25 20.832031 C 119.453125 21.832031 120.332031 22.519531 121.3125 22.519531 C 121.449219 22.519531 121.589844 22.503906 121.730469 22.476562 L 135.808594 19.628906 C 136.949219 19.398438 137.683594 18.289062 137.453125 17.148438 L 134.609375 3.074219 C 134.375 1.933594 133.269531 1.195312 132.128906 1.429688 C 130.988281 1.660156 130.25 2.769531 130.480469 3.910156 L 132.308594 12.957031 C 118.847656 4.464844 103.382812 0 87.308594 0 C 64.722656 0 43.488281 8.796875 27.515625 24.765625 C 11.546875 40.738281 2.75 61.972656 2.75 84.558594 C 2.75 102.390625 8.234375 119.441406 18.613281 133.871094 C 19.023438 134.445312 19.667969 134.75 20.324219 134.75 C 20.75 134.75 21.179688 134.621094 21.550781 134.351562 C 22.496094 133.675781 22.710938 132.359375 22.03125 131.417969 C 12.171875 117.703125 6.960938 101.5 6.960938 84.558594 Z M 156.003906 35.246094 C 155.328125 34.300781 154.011719 34.085938 153.066406 34.761719 C 152.121094 35.441406 151.910156 36.757812 152.585938 37.699219 C 162.445312 51.414062 167.65625 67.613281 167.65625 84.558594 C 167.65625 128.863281 131.613281 164.90625 87.308594 164.90625 C 72.039062 164.90625 57.363281 160.671875 44.574219 152.613281 L 53.714844 150.761719 C 54.855469 150.53125 55.59375 149.421875 55.363281 148.28125 C 55.128906 147.140625 54.019531 146.40625 52.882812 146.636719 L 38.804688 149.480469 C 38.257812 149.589844 37.777344 149.917969 37.46875 150.378906 C 37.160156 150.84375 37.046875 151.414062 37.160156 151.960938 L 40.003906 166.039062 C 40.207031 167.039062 41.085938 167.726562 42.066406 167.726562 C 42.203125 167.726562 42.34375 167.714844 42.484375 167.683594 C 43.625 167.453125 44.363281 166.34375 44.128906 165.203125 L 42.300781 156.15625 C 55.769531 164.648438 71.226562 169.117188 87.308594 169.117188 C 109.894531 169.117188 131.128906 160.320312 147.097656 144.347656 C 163.070312 128.378906 171.867188 107.144531 171.867188 84.558594 C 171.867188 66.726562 166.382812 49.675781 156.003906 35.246094 Z M 156.003906 35.246094 " fill-opacity="1" fill-rule="nonzero"/></g></svg>