<svg xmlns="http://www.w3.org/2000/svg" xmlns:xlink="http://www.w3.org/1999/xlink" width="450" zoomAndPan="magnify" viewBox="0 0 337.5 30.000001" height="40" preserveAspectRatio="xMidYMid meet" version="1.0"><defs><clipPath id="6c437ea789"><path d="M 5.203125 0 L 331.816406 0 L 331.816406 29.03125 L 5.203125 29.03125 Z M 5.203125 0 " clip-rule="nonzero"/></clipPath><clipPath id="a5c2723ee8"><path d="M 5.203125 9 L 331.816406 9 L 331.816406 29.03125 L 5.203125 29.03125 Z M 5.203125 9 " clip-rule="nonzero"/></clipPath></defs><g clip-path="url(#6c437ea789)"><path fill="#ffffff" d="M 5.203125 0 L 331.816406 0 L 331.816406 29.03125 L 5.203125 29.03125 Z M 5.203125 0 " fill-opacity="1" fill-rule="nonzero"/><path fill="#ffffff" d="M 5.203125 0 L 331.816406 0 L 331.816406 29.03125 L 5.203125 29.03125 Z M 5.203125 0 " fill-opacity="1" fill-rule="nonzero"/></g><g clip-path="url(#a5c2723ee8)"><path fill="#004aad" d="M 5.257812 11.609375 C 22.996094 8.058594 49.601562 15.15625 76.207031 11.609375 C 102.8125 8.058594 111.679688 8.949219 138.285156 10.722656 C 156.023438 13.382812 182.628906 8.058594 209.234375 10.722656 C 235.839844 13.382812 253.574219 16.042969 280.179688 12.496094 C 297.917969 9.835938 324.523438 14.269531 351.128906 13.382812 C 377.734375 12.496094 386.601562 15.15625 404.339844 11.609375 L 404.339844 29.34375 L 5.257812 29.34375 Z M 5.257812 11.609375 " fill-opacity="1" fill-rule="nonzero"/></g></svg>