<svg xmlns="http://www.w3.org/2000/svg" xmlns:xlink="http://www.w3.org/1999/xlink" width="450" zoomAndPan="magnify" viewBox="0 0 337.5 30.000001" height="40" preserveAspectRatio="xMidYMid meet" version="1.0"><defs><clipPath id="8320acaecb"><path d="M 5.203125 0 L 331.816406 0 L 331.816406 29.03125 L 5.203125 29.03125 Z M 5.203125 0 " clip-rule="nonzero"/></clipPath><clipPath id="fbdec918d5"><path d="M 5.203125 12 L 331.816406 12 L 331.816406 28.835938 L 5.203125 28.835938 Z M 5.203125 12 " clip-rule="nonzero"/></clipPath></defs><g clip-path="url(#8320acaecb)"><path fill="#ffffff" d="M 5.203125 0 L 331.816406 0 L 331.816406 29.03125 L 5.203125 29.03125 Z M 5.203125 0 " fill-opacity="1" fill-rule="nonzero"/><path fill="#ffffff" d="M 5.203125 0 L 331.816406 0 L 331.816406 29.03125 L 5.203125 29.03125 Z M 5.203125 0 " fill-opacity="1" fill-rule="nonzero"/></g><g clip-path="url(#fbdec918d5)"><path fill="#004aad" d="M 5.203125 14.78125 C 19.71875 11.875 41.492188 17.683594 63.265625 14.78125 C 85.039062 11.875 92.296875 12.601562 114.074219 14.054688 C 128.589844 16.230469 150.363281 11.875 172.136719 14.054688 C 193.910156 16.230469 208.425781 18.410156 230.203125 15.507812 C 244.71875 13.328125 266.492188 16.957031 288.265625 16.230469 C 310.039062 15.507812 317.296875 17.683594 331.816406 14.78125 L 331.816406 29.296875 L 5.203125 29.296875 Z M 5.203125 14.78125 " fill-opacity="1" fill-rule="nonzero"/></g></svg>