<svg width="29" height="28" viewBox="0 0 29 28" fill="none" xmlns="http://www.w3.org/2000/svg">
<path d="M6.14485 14C5.67666 13.9319 5.30514 13.8184 4.9783 13.6297C4.44154 13.3199 3.99583 12.8741 3.68593 12.3373C3.21289 11.518 3.21289 10.418 3.21289 8.21808C3.21289 6.0181 3.21289 4.91811 3.68593 4.09879C3.99583 3.56203 4.44154 3.11631 4.9783 2.80641C5.79763 2.33337 6.89762 2.33337 9.09759 2.33337C11.2976 2.33337 12.3975 2.33337 13.2168 2.80641C13.7536 3.11631 14.1994 3.56203 14.5093 4.09879C14.6979 4.42563 14.8114 4.79714 14.8796 5.26534" stroke="#0C1100" stroke-width="1.75" stroke-linecap="round"/>
<path d="M6.14485 14C5.67666 13.9319 5.30514 13.8184 4.9783 13.6297C4.44154 13.3199 3.99583 12.8741 3.68593 12.3373C3.21289 11.518 3.21289 10.418 3.21289 8.21808C3.21289 6.0181 3.21289 4.91811 3.68593 4.09879C3.99583 3.56203 4.44154 3.11631 4.9783 2.80641C5.79763 2.33337 6.89762 2.33337 9.09759 2.33337C11.2976 2.33337 12.3975 2.33337 13.2168 2.80641C13.7536 3.11631 14.1994 3.56203 14.5093 4.09879C14.6979 4.42563 14.8114 4.79714 14.8796 5.26534" stroke="black" stroke-opacity="0.2" stroke-width="1.75" stroke-linecap="round"/>
<path d="M6.14485 14C5.67666 13.9319 5.30514 13.8184 4.9783 13.6297C4.44154 13.3199 3.99583 12.8741 3.68593 12.3373C3.21289 11.518 3.21289 10.418 3.21289 8.21808C3.21289 6.0181 3.21289 4.91811 3.68593 4.09879C3.99583 3.56203 4.44154 3.11631 4.9783 2.80641C5.79763 2.33337 6.89762 2.33337 9.09759 2.33337C11.2976 2.33337 12.3975 2.33337 13.2168 2.80641C13.7536 3.11631 14.1994 3.56203 14.5093 4.09879C14.6979 4.42563 14.8114 4.79714 14.8796 5.26534" stroke="black" stroke-opacity="0.2" stroke-width="1.75" stroke-linecap="round"/>
<path d="M6.14485 14C5.67666 13.9319 5.30514 13.8184 4.9783 13.6297C4.44154 13.3199 3.99583 12.8741 3.68593 12.3373C3.21289 11.518 3.21289 10.418 3.21289 8.21808C3.21289 6.0181 3.21289 4.91811 3.68593 4.09879C3.99583 3.56203 4.44154 3.11631 4.9783 2.80641C5.79763 2.33337 6.89762 2.33337 9.09759 2.33337C11.2976 2.33337 12.3975 2.33337 13.2168 2.80641C13.7536 3.11631 14.1994 3.56203 14.5093 4.09879C14.6979 4.42563 14.8114 4.79714 14.8796 5.26534" stroke="black" stroke-opacity="0.2" stroke-width="1.75" stroke-linecap="round"/>
<path d="M6.14485 14C5.67666 13.9319 5.30514 13.8184 4.9783 13.6297C4.44154 13.3199 3.99583 12.8741 3.68593 12.3373C3.21289 11.518 3.21289 10.418 3.21289 8.21808C3.21289 6.0181 3.21289 4.91811 3.68593 4.09879C3.99583 3.56203 4.44154 3.11631 4.9783 2.80641C5.79763 2.33337 6.89762 2.33337 9.09759 2.33337C11.2976 2.33337 12.3975 2.33337 13.2168 2.80641C13.7536 3.11631 14.1994 3.56203 14.5093 4.09879C14.6979 4.42563 14.8114 4.79714 14.8796 5.26534" stroke="black" stroke-opacity="0.2" stroke-width="1.75" stroke-linecap="round"/>
<path d="M6.14485 14C5.67666 13.9319 5.30514 13.8184 4.9783 13.6297C4.44154 13.3199 3.99583 12.8741 3.68593 12.3373C3.21289 11.518 3.21289 10.418 3.21289 8.21808C3.21289 6.0181 3.21289 4.91811 3.68593 4.09879C3.99583 3.56203 4.44154 3.11631 4.9783 2.80641C5.79763 2.33337 6.89762 2.33337 9.09759 2.33337C11.2976 2.33337 12.3975 2.33337 13.2168 2.80641C13.7536 3.11631 14.1994 3.56203 14.5093 4.09879C14.6979 4.42563 14.8114 4.79714 14.8796 5.26534" stroke="black" stroke-opacity="0.2" stroke-width="1.75" stroke-linecap="round"/>
<path d="M11.9869 19.8333C11.5139 19.7653 11.1393 19.6516 10.8101 19.4615C10.2734 19.1517 9.82776 18.7061 9.5179 18.1693C9.04492 17.35 9.04492 16.2502 9.04492 14.0506C9.04492 11.8508 9.04492 10.751 9.5179 9.9318C9.82776 9.39513 10.2734 8.94946 10.8101 8.6396C11.6293 8.16663 12.7291 8.16663 14.9289 8.16663C17.1285 8.16663 18.2283 8.16663 19.0476 8.6396C19.5844 8.94946 20.03 9.39513 20.3398 9.9318C20.5299 10.261 20.6436 10.6356 20.7116 11.1086" stroke="#0C1100" stroke-width="1.75" stroke-linecap="round"/>
<path d="M11.9869 19.8333C11.5139 19.7653 11.1393 19.6516 10.8101 19.4615C10.2734 19.1517 9.82776 18.7061 9.5179 18.1693C9.04492 17.35 9.04492 16.2502 9.04492 14.0506C9.04492 11.8508 9.04492 10.751 9.5179 9.9318C9.82776 9.39513 10.2734 8.94946 10.8101 8.6396C11.6293 8.16663 12.7291 8.16663 14.9289 8.16663C17.1285 8.16663 18.2283 8.16663 19.0476 8.6396C19.5844 8.94946 20.03 9.39513 20.3398 9.9318C20.5299 10.261 20.6436 10.6356 20.7116 11.1086" stroke="black" stroke-opacity="0.2" stroke-width="1.75" stroke-linecap="round"/>
<path d="M11.9869 19.8333C11.5139 19.7653 11.1393 19.6516 10.8101 19.4615C10.2734 19.1517 9.82776 18.7061 9.5179 18.1693C9.04492 17.35 9.04492 16.2502 9.04492 14.0506C9.04492 11.8508 9.04492 10.751 9.5179 9.9318C9.82776 9.39513 10.2734 8.94946 10.8101 8.6396C11.6293 8.16663 12.7291 8.16663 14.9289 8.16663C17.1285 8.16663 18.2283 8.16663 19.0476 8.6396C19.5844 8.94946 20.03 9.39513 20.3398 9.9318C20.5299 10.261 20.6436 10.6356 20.7116 11.1086" stroke="black" stroke-opacity="0.2" stroke-width="1.75" stroke-linecap="round"/>
<path d="M11.9869 19.8333C11.5139 19.7653 11.1393 19.6516 10.8101 19.4615C10.2734 19.1517 9.82776 18.7061 9.5179 18.1693C9.04492 17.35 9.04492 16.2502 9.04492 14.0506C9.04492 11.8508 9.04492 10.751 9.5179 9.9318C9.82776 9.39513 10.2734 8.94946 10.8101 8.6396C11.6293 8.16663 12.7291 8.16663 14.9289 8.16663C17.1285 8.16663 18.2283 8.16663 19.0476 8.6396C19.5844 8.94946 20.03 9.39513 20.3398 9.9318C20.5299 10.261 20.6436 10.6356 20.7116 11.1086" stroke="black" stroke-opacity="0.2" stroke-width="1.75" stroke-linecap="round"/>
<path d="M11.9869 19.8333C11.5139 19.7653 11.1393 19.6516 10.8101 19.4615C10.2734 19.1517 9.82776 18.7061 9.5179 18.1693C9.04492 17.35 9.04492 16.2502 9.04492 14.0506C9.04492 11.8508 9.04492 10.751 9.5179 9.9318C9.82776 9.39513 10.2734 8.94946 10.8101 8.6396C11.6293 8.16663 12.7291 8.16663 14.9289 8.16663C17.1285 8.16663 18.2283 8.16663 19.0476 8.6396C19.5844 8.94946 20.03 9.39513 20.3398 9.9318C20.5299 10.261 20.6436 10.6356 20.7116 11.1086" stroke="black" stroke-opacity="0.2" stroke-width="1.75" stroke-linecap="round"/>
<path d="M11.9869 19.8333C11.5139 19.7653 11.1393 19.6516 10.8101 19.4615C10.2734 19.1517 9.82776 18.7061 9.5179 18.1693C9.04492 17.35 9.04492 16.2502 9.04492 14.0506C9.04492 11.8508 9.04492 10.751 9.5179 9.9318C9.82776 9.39513 10.2734 8.94946 10.8101 8.6396C11.6293 8.16663 12.7291 8.16663 14.9289 8.16663C17.1285 8.16663 18.2283 8.16663 19.0476 8.6396C19.5844 8.94946 20.03 9.39513 20.3398 9.9318C20.5299 10.261 20.6436 10.6356 20.7116 11.1086" stroke="black" stroke-opacity="0.2" stroke-width="1.75" stroke-linecap="round"/>
<path d="M14.8789 19.8333C14.8789 17.6526 14.8789 16.5622 15.3478 15.75C15.655 15.2179 16.0968 14.7761 16.6289 14.4689C17.4411 14 18.5315 14 20.7122 14C22.893 14 23.9833 14 24.7956 14.4689C25.3277 14.7761 25.7695 15.2179 26.0767 15.75C26.5456 16.5622 26.5456 17.6526 26.5456 19.8333C26.5456 22.0141 26.5456 23.1044 26.0767 23.9167C25.7695 24.4488 25.3277 24.8906 24.7956 25.1978C23.9833 25.6667 22.893 25.6667 20.7122 25.6667C18.5315 25.6667 17.4411 25.6667 16.6289 25.1978C16.0968 24.8906 15.655 24.4488 15.3478 23.9167C14.8789 23.1044 14.8789 22.0141 14.8789 19.8333Z" stroke="#0C1100" stroke-width="1.75"/>
<path d="M14.8789 19.8333C14.8789 17.6526 14.8789 16.5622 15.3478 15.75C15.655 15.2179 16.0968 14.7761 16.6289 14.4689C17.4411 14 18.5315 14 20.7122 14C22.893 14 23.9833 14 24.7956 14.4689C25.3277 14.7761 25.7695 15.2179 26.0767 15.75C26.5456 16.5622 26.5456 17.6526 26.5456 19.8333C26.5456 22.0141 26.5456 23.1044 26.0767 23.9167C25.7695 24.4488 25.3277 24.8906 24.7956 25.1978C23.9833 25.6667 22.893 25.6667 20.7122 25.6667C18.5315 25.6667 17.4411 25.6667 16.6289 25.1978C16.0968 24.8906 15.655 24.4488 15.3478 23.9167C14.8789 23.1044 14.8789 22.0141 14.8789 19.8333Z" stroke="black" stroke-opacity="0.2" stroke-width="1.75"/>
<path d="M14.8789 19.8333C14.8789 17.6526 14.8789 16.5622 15.3478 15.75C15.655 15.2179 16.0968 14.7761 16.6289 14.4689C17.4411 14 18.5315 14 20.7122 14C22.893 14 23.9833 14 24.7956 14.4689C25.3277 14.7761 25.7695 15.2179 26.0767 15.75C26.5456 16.5622 26.5456 17.6526 26.5456 19.8333C26.5456 22.0141 26.5456 23.1044 26.0767 23.9167C25.7695 24.4488 25.3277 24.8906 24.7956 25.1978C23.9833 25.6667 22.893 25.6667 20.7122 25.6667C18.5315 25.6667 17.4411 25.6667 16.6289 25.1978C16.0968 24.8906 15.655 24.4488 15.3478 23.9167C14.8789 23.1044 14.8789 22.0141 14.8789 19.8333Z" stroke="black" stroke-opacity="0.2" stroke-width="1.75"/>
<path d="M14.8789 19.8333C14.8789 17.6526 14.8789 16.5622 15.3478 15.75C15.655 15.2179 16.0968 14.7761 16.6289 14.4689C17.4411 14 18.5315 14 20.7122 14C22.893 14 23.9833 14 24.7956 14.4689C25.3277 14.7761 25.7695 15.2179 26.0767 15.75C26.5456 16.5622 26.5456 17.6526 26.5456 19.8333C26.5456 22.0141 26.5456 23.1044 26.0767 23.9167C25.7695 24.4488 25.3277 24.8906 24.7956 25.1978C23.9833 25.6667 22.893 25.6667 20.7122 25.6667C18.5315 25.6667 17.4411 25.6667 16.6289 25.1978C16.0968 24.8906 15.655 24.4488 15.3478 23.9167C14.8789 23.1044 14.8789 22.0141 14.8789 19.8333Z" stroke="black" stroke-opacity="0.2" stroke-width="1.75"/>
<path d="M14.8789 19.8333C14.8789 17.6526 14.8789 16.5622 15.3478 15.75C15.655 15.2179 16.0968 14.7761 16.6289 14.4689C17.4411 14 18.5315 14 20.7122 14C22.893 14 23.9833 14 24.7956 14.4689C25.3277 14.7761 25.7695 15.2179 26.0767 15.75C26.5456 16.5622 26.5456 17.6526 26.5456 19.8333C26.5456 22.0141 26.5456 23.1044 26.0767 23.9167C25.7695 24.4488 25.3277 24.8906 24.7956 25.1978C23.9833 25.6667 22.893 25.6667 20.7122 25.6667C18.5315 25.6667 17.4411 25.6667 16.6289 25.1978C16.0968 24.8906 15.655 24.4488 15.3478 23.9167C14.8789 23.1044 14.8789 22.0141 14.8789 19.8333Z" stroke="black" stroke-opacity="0.2" stroke-width="1.75"/>
<path d="M14.8789 19.8333C14.8789 17.6526 14.8789 16.5622 15.3478 15.75C15.655 15.2179 16.0968 14.7761 16.6289 14.4689C17.4411 14 18.5315 14 20.7122 14C22.893 14 23.9833 14 24.7956 14.4689C25.3277 14.7761 25.7695 15.2179 26.0767 15.75C26.5456 16.5622 26.5456 17.6526 26.5456 19.8333C26.5456 22.0141 26.5456 23.1044 26.0767 23.9167C25.7695 24.4488 25.3277 24.8906 24.7956 25.1978C23.9833 25.6667 22.893 25.6667 20.7122 25.6667C18.5315 25.6667 17.4411 25.6667 16.6289 25.1978C16.0968 24.8906 15.655 24.4488 15.3478 23.9167C14.8789 23.1044 14.8789 22.0141 14.8789 19.8333Z" stroke="black" stroke-opacity="0.2" stroke-width="1.75"/>
</svg>
