<svg width="56" height="22" viewBox="0 0 56 22" fill="none" xmlns="http://www.w3.org/2000/svg">
<path fill-rule="evenodd" clip-rule="evenodd" d="M0.734809 2.68358L0.734375 2.65735V0.557644H2.82854V15.958L2.82941 16.0061V18.084H0.734375V15.9843L0.734809 15.958V2.68358Z" fill="white" fill-opacity="0.6"/>
<path fill-rule="evenodd" clip-rule="evenodd" d="M22.0238 11.7015C22.0775 14.8869 24.0473 17.4343 26.4236 17.3916C28.7994 17.3489 30.6816 14.7322 30.6279 11.5468C30.5737 8.36102 28.6039 5.81363 26.2276 5.85675C23.8518 5.89943 21.9696 8.51618 22.0238 11.7015ZM39.3631 7.85021C39.4177 7.97158 39.288 7.66883 39.288 7.66883L39.3631 7.85021ZM40.7903 21.0375C40.8863 20.873 41.02 20.6214 41.1791 20.3071L40.7903 21.0375ZM40.9134 6.75123C40.9387 6.82192 40.968 6.89572 41.0009 6.97352L41.7061 8.71135L40.9134 6.75123ZM32.1386 15.4995C33.433 16.6821 34.5985 17.2934 36.0888 17.2934C37.6142 17.3049 38.9703 16.554 38.9703 15.1087C38.9703 13.9026 37.9079 13.1971 36.0097 12.3893C34.4012 11.6886 33.2041 11.1974 32.5785 10.1833C32.6549 10.6239 32.6949 11.0791 32.6949 11.545C32.6949 15.4568 29.876 18.6284 26.3987 18.6284C22.9213 18.6284 20.1024 15.4568 20.1024 11.545C20.1024 9.18659 21.1271 7.09755 22.7023 5.81007H18.4415V15.9583L18.4419 15.9988V18.0842H16.5495V16.0668C16.5509 16.0312 16.5513 15.9952 16.5513 15.9583V5.81007H14.8828V4.53282H16.5757C16.7943 1.95608 18.3802 0.498775 20.5757 0.498775C21.9993 0.498775 22.7809 0.648153 23.2323 0.858437V2.60516C23.2252 2.73542 23.2252 2.81499 23.2252 2.81499C23.2057 2.81277 23.159 2.81188 23.159 2.81188C22.4739 2.1757 21.798 1.70223 20.2193 1.70401C18.9618 1.70401 18.13 2.73231 18.4206 4.53282H25.5034C25.7962 4.48614 26.0947 4.46169 26.3987 4.46169C28.9212 4.46169 31.0976 6.13061 32.1022 8.54107C32.0929 8.40726 32.0884 8.26766 32.0884 8.12185C32.0884 5.6069 34.5069 4.53727 37.0192 4.5426C37.1152 4.54216 37.2094 4.5426 37.3018 4.54482C38.186 4.53059 39.4457 4.8209 40.2149 5.02452L41.7061 8.71135L43.8371 13.9431L44.0873 14.7833L44.3659 13.9431L47.0608 7.22781C47.558 5.37884 49.5259 4.57861 51.6996 4.58305C52.7803 4.57816 53.5783 4.70931 54.5354 5.04808V7.07888C53.357 6.21686 52.5132 5.71582 51.1762 5.71582C50.0009 5.71582 48.5884 6.23953 48.5884 7.98047C48.5657 9.28885 49.3455 9.52802 51.6339 10.671C53.5147 11.493 55.2499 12.4004 55.2601 14.5019C55.2601 18.0056 51.8307 18.6124 50.1613 18.6177C48.671 18.6177 47.3051 18.2474 46.5453 17.6112V15.2981L46.6675 15.3999C48.0232 16.6741 49.2211 17.3343 50.7692 17.3343C52.295 17.3458 53.6507 16.5945 53.6507 15.1492C53.6507 13.9431 52.5883 13.2375 50.6901 12.4297C48.8759 11.6393 47.6855 11.1156 47.1989 9.80633C46.4591 11.6224 43.0178 20.0581 42.2077 21.8613H40.3522L41.192 20.2831C41.6572 19.3611 42.3339 17.9144 42.9351 16.5305L39.3631 7.85021C39.3391 7.79731 39.2804 7.66393 39.1609 7.39052C38.8868 6.7619 38.6317 6.18129 37.8603 5.88876C37.4471 5.74872 37.0072 5.67537 36.4958 5.67537C35.3205 5.67537 33.8173 6.19907 33.8173 7.94002C33.7947 9.24839 34.6647 9.48757 36.9534 10.6301C38.8343 11.4526 40.5695 12.3599 40.5797 14.4614C40.5797 17.9651 37.1498 18.5715 35.4805 18.5773C34.1555 18.5773 32.9282 18.2843 32.1386 17.7722V15.4995Z" fill="white" fill-opacity="0.6"/>
<path fill-rule="evenodd" clip-rule="evenodd" d="M6.73889 4.66344L6.762 6.19632L6.76067 6.29946L6.78109 6.29901C6.80553 6.23499 6.83843 6.18076 6.86953 6.1403C7.63868 5.31029 8.60822 4.48561 10.9125 4.48561C13.1182 4.48561 14.5459 6.37193 14.6032 7.55938L14.6054 15.9582V16V18.0842H12.7152V15.5799L12.7148 8.42984C12.7148 6.94942 11.424 5.8789 9.8439 5.8789C8.53044 5.8789 6.84464 7.06857 6.78866 8.27291V15.9604L6.78955 16.0169V18.0859H4.89844V6.42838L4.8989 4.66344H6.73889Z" fill="white" fill-opacity="0.6"/>
</svg>
