<svg xmlns="http://www.w3.org/2000/svg" version="1.1" xmlns:xlink="http://www.w3.org/1999/xlink" width="512" height="512" x="0" y="0" viewBox="0 0 512 512" style="enable-background:new 0 0 512 512" xml:space="preserve" class=""><g><path fill-rule="evenodd" d="M248.918 131.417a8 8 0 0 1-16 0C232.918 61.599 289.519 5 359.336 5s126.417 56.6 126.417 126.417-56.599 126.418-126.417 126.418a8 8 0 0 1 0-16c60.984 0 110.417-49.435 110.417-110.418S420.319 21 359.336 21 248.918 70.433 248.918 131.417zm110.224-7.664a8 8 0 1 0 0 16 8 8 0 0 0 0-16zm-55.405 44.213 11.93-.223-82.043 90.535a17.7 17.7 0 0 0-15.189 2.862l-60.902-39.755c.018-9.939-8.151-17.941-18.086-17.705-11.168.266-19.19 10.654-16.839 21.444l-56.54 46.222c-11.698-5.176-25.109 3.533-24.8 16.581.232 9.754 8.326 17.474 18.08 17.242 11.169-.265 19.189-10.653 16.838-21.444l56.54-46.222a17.694 17.694 0 0 0 17.491-1.847l61.087 39.876c.119 9.837 8.248 17.685 18.082 17.452 12.347-.293 20.418-12.764 16.061-24.032l80.907-89.281.191 10.222a7.97 7.97 0 0 0 15.938-.25l-.566-30.337a7.97 7.97 0 0 0-8.094-7.844l-30.337.566a7.97 7.97 0 0 0 .25 15.938zM47.775 344.691h26.077a4.334 4.334 0 0 1 4.325 4.325V448.7a4.334 4.334 0 0 1-4.325 4.325H47.775a4.333 4.333 0 0 1-4.324-4.325v-99.684a4.333 4.333 0 0 1 4.324-4.325zm255.087-49.177h26.078a4.333 4.333 0 0 1 4.324 4.325v146.463a4.332 4.332 0 0 1-4.324 4.324h-26.078a4.332 4.332 0 0 1-4.324-4.324V299.839a4.333 4.333 0 0 1 4.324-4.325zm-85.029 28.118h26.077a4.332 4.332 0 0 1 4.324 4.324V447.1a4.333 4.333 0 0 1-4.324 4.325h-26.077a4.334 4.334 0 0 1-4.325-4.325V327.956a4.333 4.333 0 0 1 4.325-4.324zm-85.029-39.222h26.077a4.334 4.334 0 0 1 4.325 4.325V447.9a4.333 4.333 0 0 1-4.325 4.324h-26.077a4.333 4.333 0 0 1-4.325-4.324V288.735a4.334 4.334 0 0 1 4.325-4.325zM30.572 479.312h315.571a4.337 4.337 0 0 1 4.325 4.324v19.039a4.337 4.337 0 0 1-4.325 4.325H30.572a4.337 4.337 0 0 1-4.325-4.325v-19.039a4.337 4.337 0 0 1 4.325-4.324zm328.764-259.109c49.034 0 88.786-39.753 88.786-88.786s-39.752-88.786-88.786-88.786-88.786 39.752-88.786 88.786a8 8 0 0 0 16 0c0-40.2 32.586-72.786 72.786-72.786s72.786 32.586 72.786 72.786-32.586 72.786-72.786 72.786a8 8 0 0 0 0 16zm-34.838-88.786c0-19.241 15.596-34.837 34.838-34.837s34.837 15.596 34.837 34.837-15.596 34.838-34.837 34.838a8 8 0 0 0 0 16c28.075 0 50.837-22.763 50.837-50.838S387.411 80.58 359.336 80.58s-50.838 22.762-50.838 50.837a8 8 0 0 0 16 0z" fill="#204ecf" opacity="1" data-original="#000000" style="
    stroke: #204ecf;
    fill: none;
    stroke-width: 3;
" class=""></path></g></svg>