<svg xmlns="http://www.w3.org/2000/svg" version="1.1" xmlns:xlink="http://www.w3.org/1999/xlink" width="512" height="512" x="0" y="0" viewBox="0 0 500 500" style="enable-background:new 0 0 512 512" xml:space="preserve" class=""><g style="
    fill: none;
"><path fill-rule="evenodd" d="M386 181.02c-31.48 0-59.98 12.76-80.61 33.39S272 263.54 272 295.02s12.76 59.98 33.39 80.61 49.13 33.39 80.61 33.39 59.98-12.76 80.61-33.39S500 326.5 500 295.02s-12.76-59.98-33.39-80.61-49.13-33.39-80.61-33.39zm-72.72 41.28c18.61-18.61 44.32-30.12 72.72-30.12s54.11 11.51 72.72 30.12 30.12 44.32 30.12 72.72-11.51 54.11-30.12 72.72-44.32 30.12-72.72 30.12-54.11-11.51-72.72-30.12-30.12-44.32-30.12-72.72c-.01-28.4 11.5-54.11 30.12-72.72zm80.02-15.21a87.53 87.53 0 0 1 30.37 8.13l-3.35 5.81c-2 3.48-.8 7.93 2.68 9.93s7.93.8 9.93-2.68l3.33-5.77c4.34 3.01 8.4 6.41 12.12 10.13s7.11 7.77 10.12 12.11l-5.79 3.34c-3.48 2.02-4.67 6.48-2.65 9.96s6.48 4.67 9.96 2.65l5.78-3.34a87.627 87.627 0 0 1 8.12 30.39h-6.68a7.28 7.28 0 0 0 0 14.56h6.68a87.692 87.692 0 0 1-8.13 30.4l-5.81-3.35c-3.48-2-7.93-.8-9.93 2.68s-.8 7.93 2.68 9.93l5.77 3.33c-3.01 4.34-6.41 8.4-10.13 12.12s-7.77 7.11-12.11 10.12l-3.34-5.79c-2.02-3.48-6.48-4.67-9.96-2.65s-4.67 6.48-2.65 9.96l3.34 5.78a87.684 87.684 0 0 1-30.36 8.12v-6.68c0-4.03-3.27-7.31-7.31-7.31-4.03 0-7.31 3.27-7.31 7.31v6.68a87.53 87.53 0 0 1-30.37-8.13l3.35-5.81c2-3.48.8-7.93-2.68-9.93s-7.93-.8-9.93 2.68l-3.33 5.77c-4.34-3.01-8.4-6.41-12.12-10.13s-7.11-7.77-10.12-12.11l5.79-3.34c3.48-2.02 4.67-6.48 2.65-9.96s-6.48-4.67-9.96-2.65l-5.78 3.34a87.627 87.627 0 0 1-8.12-30.39h6.68a7.28 7.28 0 0 0 0-14.56h-6.68c.88-10.8 3.71-21.05 8.13-30.4l5.81 3.35c3.48 2 7.93.8 9.93-2.68s.8-7.93-2.68-9.93l-5.77-3.33c3.01-4.34 6.41-8.4 10.13-12.12s7.77-7.11 12.11-10.12l3.34 5.79c2.02 3.48 6.48 4.67 9.96 2.65s4.67-6.48 2.65-9.96l-3.34-5.78a87.684 87.684 0 0 1 30.36-8.12v6.68c0 4.03 3.27 7.31 7.31 7.31 4.03 0 7.31-3.27 7.31-7.31zm6.05 50.22c2.02-3.48 6.48-4.67 9.96-2.65s4.67 6.48 2.65 9.96l-19.66 34.06c-2.02 3.48-6.48 4.67-9.96 2.65l-51.37-29.66c-3.48-2.02-4.67-6.48-2.65-9.96s6.48-4.67 9.96-2.65l45.05 26.01zM500 462.48H0v14.73h500zM126.81 277.85H94.18v131.17h32.63zM221 216.84h-32.63v192.18H221zM32.63 333.4H0v75.62h32.63zM491.68 22.79l-22.14 38.35.01.01-22.15 38.37-9.28-16.08-.01.01a7.27 7.27 0 0 0-9.92-2.66l-131.7 76.04-53.42-46.13a7.28 7.28 0 0 0-7.96-1.03L70.4 190.26 243.53 71l51.13 38.83a7.284 7.284 0 0 0 8.21.66L409.7 48.81c3.48-2 4.68-6.45 2.68-9.93l-9.29-16.09z" clip-rule="evenodd" fill="#f6f8fd" opacity="1" data-original="#000000" class="" style="
  
    stroke: #204ecf;
    stroke-width: 6;
"></path></g></svg>