<svg xmlns="http://www.w3.org/2000/svg" version="1.1" xmlns:xlink="http://www.w3.org/1999/xlink" width="512" height="512" x="0" y="0" viewBox="0 0 16.933 16.933" style="enable-background:new 0 0 512 512" xml:space="preserve" class="">  <g fill="none" stroke="#204ecf" stroke-width="0.2"><path d="M3.968.53a3.444 3.444 0 0 0-3.44 3.439 3.444 3.444 0 0 0 3.44 3.44 3.445 3.445 0 0 0 3.441-3.44A3.445 3.445 0 0 0 3.968.529zm0 1.054c.133 0 .265.088.265.265v.305c.454.119.794.53.794 1.02a.265.265 0 0 1-.53 0 .526.526 0 0 0-.53-.53c-.295 0-.526.235-.526.53s.231.53.527.53c.581 0 1.059.476 1.059 1.058 0 .489-.34.9-.794 1.02v.302c0 .353-.529.353-.529 0v-.301a1.06 1.06 0 0 1-.793-1.021.265.265 0 1 1 .53 0c0 .295.231.53.527.53.295 0 .529-.235.529-.53s-.234-.53-.53-.53a1.06 1.06 0 0 1-1.056-1.058c0-.49.34-.902.793-1.021v-.304c0-.177.132-.265.265-.265zm8.97.004a.265.265 0 0 0 .026.527h1.514c-.639.809-5.862 7.145-12.891 7.145-.353 0-.353.53 0 .53 7.035 0 12.228-6.003 13.23-7.249V3.97a.265.265 0 0 0 .53 0V1.852a.265.265 0 0 0-.266-.264h-2.117a.265.265 0 0 0-.025 0zm1.877.527h.003v.002zm-1.85 4.764a.265.265 0 0 0-.265.264v8.202h2.647V7.143a.265.265 0 0 0-.266-.264zM9.233 8.996a.264.264 0 0 0-.239.264v6.085h2.647V9.26a.264.264 0 0 0-.264-.264H9.234zm-3.678 2.116a.265.265 0 0 0-.264.265v3.968h2.644v-3.968a.265.265 0 0 0-.263-.265zm-3.703 2.117a.265.265 0 0 0-.266.265v1.851h2.646v-1.85a.265.265 0 0 0-.265-.266zM.78 15.875c-.365.02-.338.546.014.53H16.14c.352 0 .352-.53 0-.53z" fill="none" opacity="1" data-original="#000000" class=""></path></g></svg>


