<svg xmlns="http://www.w3.org/2000/svg" xmlns:xlink="http://www.w3.org/1999/xlink" version="1.1" width="512" height="512" x="0" y="0" viewBox="0 0 512 512" style="enable-background:new 0 0 512 512" xml:space="preserve" class=""><g><path d="M245.896 108.248v32.836M245.896 414.724v32.836M76.24 277.904h32.836M382.716 277.904h32.836M161.068 130.977l16.418 28.438M314.306 396.393l16.418 28.438M98.969 362.732l28.438-16.418M98.969 193.076l28.438 16.418M364.385 346.314l28.438 16.418M161.068 424.831l16.418-28.438M472.492 277.904c0 125.145-101.45 226.596-226.596 226.596S19.3 403.05 19.3 277.904 120.751 51.308 245.896 51.308" style="stroke-width: 8;stroke-linecap:round;stroke-linejoin:round;stroke-miterlimit:10;" fill="none" stroke="#204ecf" stroke-width="8" stroke-linecap="round" stroke-linejoin="round" stroke-miterlimit="4" data-original="#000000" class="" opacity="1"/><path d="M321.171 299.707h-70.256s37.198-67.425 43.336-74.956c6.207-7.615 12.085-2.866 12.645 3.852.56 6.718-.28 104.125-.28 104.125M232.081 333.564s-54.433.684-57.012-.175c-2.578-.859 4.134-5.399 39.822-56.391 6.665-9.523 10.334-17.557 11.895-24.288l.553-4.328c0-15.811-12.817-28.628-28.628-28.628-13.912 0-25.507 9.924-28.09 23.079M234.803 30.919l21.445 21.445-21.445 21.444M492.7 77.877v-5.853a17.43 17.43 0 0 0-8.715-15.095L402.416 9.835a17.428 17.428 0 0 0-17.43 0l-81.569 47.093a17.43 17.43 0 0 0-8.715 15.095v33.521c0 43.768 23.35 84.211 61.254 106.095l29.03 16.76a17.428 17.428 0 0 0 17.43 0l29.03-16.76c35.777-20.656 58.577-57.849 61.024-98.764" style="stroke-width: 8;stroke-linecap:round;stroke-linejoin:round;stroke-miterlimit:10;" fill="none" stroke="#204ecf" stroke-width="8" stroke-linecap="round" stroke-linejoin="round" stroke-miterlimit="10" data-original="#000000" class="" opacity="1"/><path d="M346.452 161.101a89.879 89.879 0 0 0 25.771 22.362l18.977 10.956a5 5 0 0 0 5 0l18.977-10.957a89.97 89.97 0 0 0 44.985-77.917V83.632a5 5 0 0 0-2.5-4.33L396.2 43.817a5 5 0 0 0-5 0l-61.463 35.485a5 5 0 0 0-2.5 4.33v21.913c0 8.34 1.164 16.512 3.36 24.327" style="stroke-width: 8;stroke-linecap:round;stroke-linejoin:round;stroke-miterlimit: 4;" fill="none" stroke="#204ecf" stroke-width="8" stroke-linecap="round" stroke-linejoin="round" stroke-miterlimit="10" data-original="#000000" class="" opacity="1"/><path d="M393.701 195.088V43.147" style="stroke-width: 8;stroke-linejoin:round;stroke-miterlimit:10;" fill="none" stroke="#204ecf" stroke-width="15" stroke-linejoin="round" stroke-miterlimit="10" data-original="#000000" class="" opacity="1"/><path d="M295.123 115.511c-15.581-4.717-32.106-7.263-49.227-7.263-93.699 0-169.656 75.958-169.656 169.656 0 9.378.773 18.574 2.237 27.538M87.698 339.298C112.3 402.648 173.85 447.56 245.896 447.56c93.699 0 169.656-75.958 169.656-169.656 0-18.264-2.898-35.848-8.238-52.332" style="stroke-width: 8;stroke-linecap:round;stroke-linejoin:round;stroke-miterlimit:10;" fill="none" stroke="#204ecf" stroke-width="8" stroke-linecap="round" stroke-linejoin="round" stroke-miterlimit="10" data-original="#000000" class="" opacity="1"/></g></svg>